<?xml version="1.0" standalone="no"?>
<!DOCTYPE svg PUBLIC "-//W3C//DTD SVG 1.1//EN" "http://www.w3.org/Graphics/SVG/1.1/DTD/svg11.dtd" >
<svg xmlns="http://www.w3.org/2000/svg" xmlns:xlink="http://www.w3.org/1999/xlink" version="1.1">
<metadata>
Created by FontForge 20201107 at Tue Aug 31 23:41:11 2021
 By 
Copyright 2011 The Dosis Project Authors (https://github.com/googlefonts/dosis-vf)
</metadata>
<defs>
<font id="Dosis-Light" horiz-adv-x="0" >
  <font-face 
    font-family="Dosis Light"
    font-weight="300"
    font-stretch="normal"
    units-per-em="1000"
    panose-1="0 0 0 0 0 0 0 0 0 0"
    ascent="800"
    descent="-200"
    x-height="472"
    cap-height="731"
    bbox="-141 -237 1010 1065"
    underline-thickness="50"
    underline-position="-125"
    unicode-range="U+000D-FB02"
  />
<missing-glyph horiz-adv-x="328" 
d="M80 85q-9 0 -16 6t-7 15q0 4 1 7l2 6l77 117l-77 118l-2 6t-1 6q0 9 7 15.5t16 6.5q11 0 18 -10l66 -103l66 103q7 10 18 10q9 0 16 -6.5t7 -15.5q0 -3 -0.5 -6t-3.5 -6l-76 -118l75 -117q3 -3 3.5 -6t0.5 -7q0 -9 -6.5 -15t-16.5 -6q-11 0 -17 10l-66 101l-66 -101
q-7 -10 -18 -10z" />
    <glyph glyph-name="fi" unicode="fi" horiz-adv-x="490" 
d="M89 0q-10 0 -16.5 6t-6.5 14v561q0 45 23 87.5t67 70t109 27.5q36 0 70 -8.5t56.5 -22t22.5 -29.5q0 -6 -3 -12.5t-8 -10.5t-10 -4q-8 0 -21.5 10.5t-38 20.5t-66.5 10q-44 0 -73.5 -14t-46.5 -35.5t-24.5 -45t-7.5 -43.5v-110h134q9 0 14.5 -6t5.5 -15t-5.5 -15.5
t-14.5 -6.5h-134v-409q0 -8 -7.5 -14t-18.5 -6zM401 0q-10 0 -17 6.5t-7 14.5v431q0 9 7 14.5t17 5.5q11 0 18 -5.5t7 -14.5v-431q0 -8 -7 -14.5t-18 -6.5z" />
    <glyph glyph-name="fl" unicode="fl" horiz-adv-x="500" 
d="M89 0q-10 0 -16.5 6t-6.5 14v561q0 58 29.5 99.5t76.5 63.5t98 22q28 0 57 -7.5t54.5 -23t44.5 -38.5v-676q0 -8 -7 -14.5t-18 -6.5q-10 0 -17 6.5t-7 14.5v662q-21 22 -50 32.5t-58 10.5q-39 0 -74 -17.5t-57.5 -49.5t-22.5 -77v-110h134q9 0 14.5 -6t5.5 -15
t-5.5 -15.5t-14.5 -6.5h-134v-409q0 -8 -7.5 -14t-18.5 -6z" />
    <glyph glyph-name=".notdef" horiz-adv-x="328" 
d="M80 85q-9 0 -16 6t-7 15q0 4 1 7l2 6l77 117l-77 118l-2 6t-1 6q0 9 7 15.5t16 6.5q11 0 18 -10l66 -103l66 103q7 10 18 10q9 0 16 -6.5t7 -15.5q0 -3 -0.5 -6t-3.5 -6l-76 -118l75 -117q3 -3 3.5 -6t0.5 -7q0 -9 -6.5 -15t-16.5 -6q-11 0 -17 10l-66 101l-66 -101
q-7 -10 -18 -10z" />
    <glyph glyph-name=".null" 
 />
    <glyph glyph-name="nonmarkingreturn" horiz-adv-x="333" 
 />
    <glyph glyph-name="NULL" 
 />
    <glyph glyph-name="NULL" 
 />
    <glyph glyph-name="CR" unicode="&#xd;" horiz-adv-x="200" 
 />
    <glyph glyph-name="space" unicode=" " horiz-adv-x="200" 
 />
    <glyph glyph-name="exclam" unicode="!" horiz-adv-x="197" 
d="M98 155q-7 0 -13.5 5.5t-6.5 13.5q0 87 -2.5 178t-5.5 182t-3 178q0 16 9 25t22 9t22.5 -9t9.5 -25q0 -87 -2.5 -178t-5.5 -182t-3 -178q0 -8 -7 -13.5t-14 -5.5zM99 -6q-18 0 -29.5 12.5t-11.5 28.5q0 17 11.5 29t29.5 12q16 0 28 -12t12 -29q0 -16 -12 -28.5t-28 -12.5
z" />
    <glyph glyph-name="quotedbl" unicode="&#x22;" horiz-adv-x="262" 
d="M193 578q-9 0 -13.5 6.5t-4.5 14.5l-10 150q0 9 9.5 14t18.5 5t18.5 -5t9.5 -14l-10 -150q0 -8 -4 -14.5t-14 -6.5zM68 578q-9 0 -13 6.5t-4 14.5l-10 150q0 9 9.5 14t17.5 5q10 0 19.5 -5t9.5 -14l-10 -150q0 -8 -4.5 -14.5t-14.5 -6.5z" />
    <glyph glyph-name="numbersign" unicode="#" horiz-adv-x="567" 
d="M145 35q-9 0 -16 6t-7 17l30 203h-100q-12 0 -16.5 5.5t-4.5 14.5q0 8 4.5 14t10.5 6h114l25 169h-101q-11 0 -16 5.5t-5 14.5t4.5 14.5t11.5 5.5h113l30 190q1 7 6.5 10t11.5 3q12 0 18.5 -7t6.5 -17l-28 -179h131l29 190q2 7 7.5 10t11.5 3q11 0 18 -7t7 -17l-28 -179
h102q7 0 14.5 -5t7.5 -15q0 -8 -5 -14t-12 -6h-113l-27 -169h103q7 0 14.5 -5.5t7.5 -15.5q0 -7 -5.5 -13t-11.5 -6h-115l-31 -209q-2 -8 -8.5 -12.5t-13.5 -4.5q-6 0 -11.5 3t-9 8t-3.5 12l31 203h-130l-31 -208q-2 -9 -8 -13.5t-13 -4.5zM204 301h131l26 169h-130z" />
    <glyph glyph-name="dollar" unicode="$" horiz-adv-x="491" 
d="M259 -52q-8 0 -14.5 5.5t-6.5 12.5v38q-63 0 -107 19.5t-66.5 44.5t-22.5 40q0 6 3.5 13t9 11t10.5 4q8 0 17.5 -12.5t27 -29t48 -29.5t80.5 -13v315q-33 11 -64.5 23.5t-57.5 32t-41 50.5t-15 79t16 79t42 49.5t57.5 28t62.5 10.5v31q0 7 6.5 12.5t14.5 5.5t14 -5.5
t6 -12.5v-30q28 -1 54.5 -6t47.5 -13t33 -17.5t12 -19.5q0 -5 -3 -11.5t-8 -12t-12 -5.5t-21.5 8.5t-39.5 17.5t-63 11v-266q31 -11 60.5 -26t53 -37.5t37.5 -57.5t14 -87q0 -90 -46 -137t-119 -55v-40q0 -7 -6 -12.5t-14 -5.5zM278 55q58 8 88 43.5t30 95.5q0 48 -16.5 78
t-43 49t-58.5 31v-297zM240 420v252q-34 -2 -64 -13.5t-49 -35.5t-19 -66q0 -43 18.5 -69.5t48.5 -41t65 -26.5z" />
    <glyph glyph-name="percent" unicode="%" horiz-adv-x="749" 
d="M185 -23q-8 0 -14 5.5t-6 13.5q0 7 2 11l386 751q5 10 17 10q7 0 14.5 -6.5t7.5 -15.5q0 -6 -3 -12l-383 -744q-4 -7 -9.5 -10t-11.5 -3zM162 357q-50 0 -84.5 25t-34.5 85v154q0 60 34.5 85t84.5 25q35 0 61.5 -11t42.5 -35t16 -64v-154q0 -40 -16 -64t-42.5 -35
t-61.5 -11zM163 395q36 0 57 17.5t21 54.5v154q0 37 -21 54.5t-57 17.5q-37 0 -57.5 -17.5t-20.5 -54.5v-154q0 -37 20.5 -54.5t57.5 -17.5zM586 -3q-51 0 -85 25t-34 85v154q0 60 34 85t85 25q34 0 61 -11t42.5 -35t15.5 -64v-154q0 -40 -15.5 -64t-42.5 -35t-61 -11z
M586 35q36 0 57 17.5t21 54.5v154q0 37 -21 54.5t-57 17.5t-56.5 -17.5t-20.5 -54.5v-154q0 -37 20.5 -54.5t56.5 -17.5z" />
    <glyph glyph-name="ampersand" unicode="&#x26;" horiz-adv-x="602" 
d="M262 -10q-71 0 -121 29t-76.5 77t-26.5 105q0 52 20.5 91t52.5 66t66 41q-31 37 -57.5 79.5t-26.5 102.5q0 53 24 90.5t63.5 57t86.5 19.5q53 0 87 -18t51 -39.5t17 -33.5q0 -10 -7 -16.5t-17 -6.5q-8 0 -16 10.5t-21 25t-34.5 25t-56.5 10.5q-57 0 -90 -35t-33 -93
q0 -36 13 -66t34 -57t44 -53l214 -236q22 51 28.5 105t8.5 90q0 13 5 18.5t18 5.5q11 0 16 -7t5 -22q0 -19 -3.5 -56t-13.5 -81.5t-32 -87.5l95 -102q2 -4 3.5 -7.5t1.5 -5.5q0 -9 -7 -15t-15 -6q-4 0 -7.5 1.5t-7.5 5.5l-86 92q-30 -44 -78.5 -73.5t-120.5 -29.5zM269 37
q61 0 99 25t61 64l-223 240q-24 -13 -51 -33t-46.5 -50.5t-19.5 -76.5q0 -44 21 -83t61.5 -62.5t97.5 -23.5z" />
    <glyph glyph-name="quotesingle" unicode="'" horiz-adv-x="137" 
d="M68 578q-9 0 -13 6.5t-4 14.5l-10 150q0 9 9.5 14t17.5 5q10 0 19.5 -5t9.5 -14l-10 -150q0 -8 -4.5 -14.5t-14.5 -6.5z" />
    <glyph glyph-name="parenleft" unicode="(" horiz-adv-x="287" 
d="M244 -20q-39 0 -72 11t-57 32t-37.5 52.5t-13.5 70.5v442q0 36 13.5 68.5t38 57.5t57 39.5t71.5 14.5q12 0 18 -6.5t6 -16.5t-6 -17t-14 -7q-43 0 -73 -19.5t-45.5 -50t-15.5 -63.5v-442q0 -48 21.5 -74.5t52.5 -35.5t60 -9q12 0 16 -8t4 -15q0 -11 -6.5 -17.5
t-17.5 -6.5z" />
    <glyph glyph-name="parenright" unicode=")" horiz-adv-x="287" 
d="M44 -20q-12 0 -18.5 6.5t-6.5 17.5q0 7 4.5 15t16.5 8q30 0 60.5 9t51.5 35.5t21 74.5v442q0 33 -15.5 63.5t-45.5 50t-72 19.5q-9 0 -15 7t-6 17t6.5 16.5t17.5 6.5q39 0 71.5 -14.5t57 -39.5t38 -57.5t13.5 -68.5v-442q0 -39 -13.5 -70.5t-37.5 -52.5t-56.5 -32
t-71.5 -11z" />
    <glyph glyph-name="asterisk" unicode="*" horiz-adv-x="425" 
d="M120 395q-5 0 -11 2.5t-10.5 8t-4.5 11.5q0 7 5 13l82 109l-130 38q-8 3 -11 8.5t-3 11.5q0 10 6 17.5t16 7.5q1 0 3 -0.5t3 -1.5l130 -45l-5 135q0 10 7 15.5t15 5.5q9 0 15.5 -5.5t7.5 -15.5l-5 -136l129 46q3 2 8 2q8 0 14.5 -8.5t6.5 -16.5q0 -7 -4 -12t-11 -8
l-129 -37l83 -111q3 -4 3 -11q0 -10 -7.5 -16.5t-16.5 -6.5q-4 0 -8.5 1.5t-7.5 6.5l-78 114l-78 -115q-3 -4 -6.5 -5.5t-7.5 -1.5z" />
    <glyph glyph-name="plus" unicode="+" horiz-adv-x="430" 
d="M216 104q-10 0 -17 5.5t-7 14.5v138h-137q-9 0 -15 6.5t-6 15.5q0 10 6 16.5t15 6.5h137v137q0 8 7 14.5t17 6.5t16 -6.5t6 -14.5v-137h137q8 0 14.5 -6.5t6.5 -16.5q0 -9 -6.5 -15.5t-14.5 -6.5h-137v-138q0 -9 -6 -14.5t-16 -5.5z" />
    <glyph glyph-name="comma" unicode="," horiz-adv-x="166" 
d="M71 -80q-7 0 -13.5 4t-6.5 12q0 5 1 9l19 51q-13 4 -21 15t-8 24q0 17 11.5 29t28.5 12q15 0 28 -11t13 -31q0 -2 -0.5 -7t-4 -15.5t-10.5 -29.5t-20 -51q-2 -5 -7 -8t-10 -3z" />
    <glyph glyph-name="hyphen" unicode="-" horiz-adv-x="397" 
d="M68 218q-8 0 -14 6.5t-6 15.5q0 10 6 16.5t14 6.5h260q9 0 15.5 -6.5t6.5 -16.5q0 -9 -6.5 -15.5t-15.5 -6.5h-260z" />
    <glyph glyph-name="period" unicode="." horiz-adv-x="165" 
d="M83 -6q-18 0 -29.5 12.5t-11.5 28.5q0 17 11.5 29t29.5 12q16 0 28 -12t12 -29q0 -16 -12 -28.5t-28 -12.5z" />
    <glyph glyph-name="slash" unicode="/" horiz-adv-x="471" 
d="M42 -23q-8 0 -14.5 5.5t-6.5 13.5q0 7 3 11l386 751q5 10 16 10q8 0 15.5 -6.5t7.5 -15.5q0 -6 -3 -12l-384 -744q-3 -7 -8.5 -10t-11.5 -3z" />
    <glyph glyph-name="zero" unicode="0" horiz-adv-x="527" 
d="M263 -6q-57 0 -102.5 21t-72 66.5t-26.5 121.5v319q0 76 26.5 121.5t72 66.5t102.5 21q56 0 102 -21t73 -66.5t27 -121.5v-319q0 -76 -27 -121.5t-73 -66.5t-102 -21zM263 42q71 0 111.5 39.5t40.5 121.5v319q0 82 -40.5 121.5t-111.5 39.5t-111 -39.5t-40 -121.5v-319
q0 -82 40 -121.5t111 -39.5zM264 328q-14 0 -24 10t-10 24t10 23.5t24 9.5t23.5 -9.5t9.5 -23.5t-9.5 -24t-23.5 -10z" />
    <glyph glyph-name="one" unicode="1" horiz-adv-x="221" 
d="M123 0q-9 0 -17 5.5t-8 15.5v608l-41 -72q-4 -7 -9 -10t-10 -3q-9 0 -15 7t-6 15q0 7 4.5 15t7.5 12l73 122q5 7 9.5 11.5t14.5 4.5q9 0 15.5 -5t6.5 -15v-690q0 -10 -7.5 -15.5t-17.5 -5.5z" />
    <glyph glyph-name="two" unicode="2" horiz-adv-x="468" 
d="M60 0q-8 0 -16 6t-8 15v97q0 42 25 77t63.5 66.5t82.5 61.5t82.5 63t63.5 70.5t25 83.5q0 35 -16 67.5t-48 54t-81 21.5q-56 0 -93 -31.5t-37 -94.5q0 -7 -6.5 -14t-19.5 -7t-18 7.5t-5 26.5q0 46 23.5 82.5t64.5 57.5t92 21q58 0 101.5 -26t68 -68.5t24.5 -94.5
q0 -53 -25 -96t-63.5 -78t-82.5 -65.5t-82.5 -59t-63 -59t-24.5 -66.5v-70h329q8 0 14.5 -7t6.5 -17q0 -9 -6.5 -16.5t-14.5 -7.5h-356z" />
    <glyph glyph-name="three" unicode="3" horiz-adv-x="480" 
d="M233 -6q-51 0 -89 15t-63.5 38.5t-37.5 51.5t-12 56q0 19 6 25t17 6q15 0 20.5 -7t5.5 -18q0 -15 6.5 -35.5t23 -39.5t46 -31.5t74.5 -12.5q74 0 114 39t40 121v19q0 72 -41 107t-110 35q-12 0 -17 7t-5 16t5 16t16 7q44 0 74 13t45 43t15 80q0 69 -30.5 104t-99.5 35
q-43 0 -70 -12t-42 -30.5t-20.5 -38t-5.5 -36.5q0 -12 -6 -20t-18 -8q-9 0 -15 3t-8 11t-2 20q0 19 8 46t28 52.5t57.5 42.5t96.5 17q52 0 91.5 -17t62 -55t22.5 -103q0 -71 -24.5 -112t-58.5 -58q44 -19 73 -58t29 -107v-19q0 -75 -27 -121t-72.5 -66.5t-101.5 -20.5z" />
    <glyph glyph-name="four" unicode="4" horiz-adv-x="430" 
d="M313 0q-10 0 -17.5 5.5t-7.5 15.5v154h-258q-10 0 -15.5 6.5t-5.5 15.5q0 5 1 8.5t3 5.5l254 503q5 10 11.5 13.5t13.5 3.5q6 0 11 -2.5t9 -7t4 -11.5q0 -5 -3 -12l-240 -474h215v215q0 11 7.5 15.5t17.5 4.5t17.5 -4.5t7.5 -15.5v-215h57q11 0 16.5 -7.5t5.5 -17.5
q0 -9 -6 -16.5t-16 -7.5h-57v-154q0 -10 -7.5 -15.5t-17.5 -5.5z" />
    <glyph glyph-name="five" unicode="5" horiz-adv-x="466" 
d="M231 -6q-63 0 -108.5 23t-69 60.5t-23.5 83.5q0 15 6.5 20.5t17.5 5.5q12 0 19 -6t7 -17q0 -38 20 -65.5t54.5 -42t75.5 -14.5q72 0 112 39t40 122v19q0 79 -40 117.5t-111 38.5h-136q-19 0 -24.5 6t-5.5 14q0 5 0.5 9.5t1.5 8.5l19 294q1 9 5.5 15t13.5 6h273
q10 0 14 -7.5t4 -16.5t-4 -16.5t-14 -7.5h-246l-18 -259h117q57 0 102.5 -19.5t72 -64t26.5 -118.5v-19q0 -76 -26.5 -122t-72.5 -66.5t-102 -20.5z" />
    <glyph glyph-name="six" unicode="6" horiz-adv-x="511" 
d="M264 -6q-57 0 -102.5 21t-72.5 66.5t-27 121.5v319q0 76 27 121.5t72.5 66.5t102.5 21q48 0 85.5 -13.5t63 -37.5t39 -54t13.5 -63q0 -13 -6.5 -19t-17.5 -6q-10 0 -18 5.5t-8 17.5q0 37 -20.5 64.5t-55 42.5t-76.5 15q-71 0 -111 -39.5t-40 -121.5v-165q26 37 67 54
t89 17q55 0 99.5 -18t71 -61t26.5 -119v-27q0 -76 -27 -121.5t-72.5 -66.5t-101.5 -21zM264 40q71 0 111 39.5t40 122.5v27q0 83 -40 118t-111 35q-69 0 -110.5 -32.5t-41.5 -111.5v-36q0 -83 40.5 -122.5t111.5 -39.5z" />
    <glyph glyph-name="seven" unicode="7" horiz-adv-x="450" 
d="M101 -1q-7 0 -14 2.5t-11 8t-4 12.5q0 6 3 13l308 597v51h-302v-123q0 -9 -8 -15.5t-18 -6.5q-9 0 -16.5 6.5t-7.5 15.5v150q0 8 7 14.5t16 6.5h355q8 0 16 -6.5t8 -14.5v-79q0 -4 -1 -8.5t-4 -9.5l-308 -602q-6 -12 -19 -12z" />
    <glyph glyph-name="eight" unicode="8" horiz-adv-x="496" 
d="M248 -6q-56 0 -102 20.5t-73 66t-27 119.5v12q0 77 30 122t77 64q-39 17 -63 55.5t-24 103.5q0 66 24 104t65.5 54t92.5 16q52 0 93 -16t65 -54t24 -104q0 -65 -24 -103.5t-62 -55.5q48 -19 76.5 -64t28.5 -122v-12q0 -74 -26.5 -119.5t-72 -66t-102.5 -20.5zM249 40
q71 0 110.5 40t39.5 122v13q0 82 -40 120.5t-111 38.5q-70 0 -111 -38.5t-41 -120.5v-13q0 -83 41 -122.5t112 -39.5zM248 421q63 0 98 31t35 102q0 70 -35 100.5t-98 30.5q-62 0 -97.5 -30.5t-35.5 -100.5q0 -71 35.5 -102t97.5 -31z" />
    <glyph glyph-name="nine" unicode="9" horiz-adv-x="511" 
d="M247 -6q-48 0 -85.5 13.5t-63 37.5t-39 54t-13.5 63q0 14 6.5 19.5t17.5 5.5q10 0 18 -5.5t8 -17.5q0 -37 20.5 -64.5t55 -42.5t75.5 -15q72 0 112 39.5t40 121.5v165q-26 -36 -67 -53.5t-89 -17.5q-55 0 -99.5 18t-71 61t-26.5 119v27q0 76 27 121.5t72 66.5t102 21
t102.5 -21t72.5 -66.5t27 -121.5v-319q0 -76 -27 -121.5t-72.5 -66.5t-102.5 -21zM247 343q69 0 110.5 33t41.5 111v36q0 83 -40.5 122.5t-111.5 39.5t-111 -39.5t-40 -122.5v-27q0 -83 40 -118t111 -35z" />
    <glyph glyph-name="colon" unicode=":" horiz-adv-x="197" 
d="M99 340q-18 0 -29.5 12.5t-11.5 28.5q0 17 11.5 29t29.5 12q16 0 28 -12t12 -29q0 -16 -12 -28.5t-28 -12.5zM99 -6q-18 0 -29.5 12.5t-11.5 28.5q0 17 11.5 29t29.5 12q16 0 28 -12t12 -29q0 -16 -12 -28.5t-28 -12.5z" />
    <glyph glyph-name="semicolon" unicode=";" horiz-adv-x="198" 
d="M86 -80q-7 0 -13.5 4t-6.5 12q0 5 1 9l19 51q-12 4 -20 15t-8 24q0 17 11.5 29t28.5 12q15 0 27.5 -11t12.5 -31q0 -2 -0.5 -7t-4 -15.5t-10.5 -29.5t-19 -51q-3 -5 -8 -8t-10 -3zM100 340q-18 0 -29.5 12.5t-11.5 28.5q0 17 11.5 29t29.5 12q16 0 28 -12t12 -29
q0 -16 -12 -28.5t-28 -12.5z" />
    <glyph glyph-name="less" unicode="&#x3c;" horiz-adv-x="399" 
d="M324 71q-5 0 -10 4l-273 180q-5 3 -8.5 9t-3.5 13t4 13.5t8 9.5l273 180q5 4 10 4q9 0 17 -6.5t8 -17.5q0 -12 -10 -18l-249 -165l249 -164q10 -6 10 -18q0 -10 -8 -17t-17 -7z" />
    <glyph glyph-name="equal" unicode="=" horiz-adv-x="433" 
d="M90 365q-8 0 -14 6.5t-6 16.5t6 16.5t14 6.5h252q8 0 14.5 -6.5t6.5 -16.5t-6.5 -16.5t-14.5 -6.5h-252zM90 162q-8 0 -14 6.5t-6 16.5t6 16.5t14 6.5h252q8 0 14.5 -6.5t6.5 -16.5t-6.5 -16.5t-14.5 -6.5h-252z" />
    <glyph glyph-name="greater" unicode="&#x3e;" horiz-adv-x="399" 
d="M75 71q-9 0 -17 7t-8 17q0 12 10 18l249 164l-249 165q-10 6 -10 18q0 11 8 17.5t17 6.5q6 0 10 -4l273 -180q4 -3 8 -9.5t4 -13.5t-3.5 -13t-8.5 -9l-273 -180q-4 -4 -10 -4z" />
    <glyph glyph-name="question" unicode="?" horiz-adv-x="391" 
d="M165 155q-9 0 -15 5t-6 18q0 58 4.5 92t13.5 53t20 33q17 18 38 37t41.5 42.5t34 54.5t13.5 73q0 64 -36 101.5t-107 37.5q-32 0 -52.5 -6.5t-33 -15.5t-21 -16t-15.5 -7q-6 0 -13 6.5t-7 15.5q0 15 20.5 30t53.5 26t72 11q62 0 103 -24t61.5 -64.5t20.5 -91.5
q0 -49 -16 -85t-38.5 -63t-45.5 -47.5t-38 -38.5q-14 -17 -20.5 -38.5t-8 -50t-1.5 -68.5q0 -10 -6 -15t-16 -5zM165 -6q-18 0 -29.5 12.5t-11.5 28.5q0 17 12 29t29 12q16 0 28 -12t12 -29q0 -16 -11.5 -28.5t-28.5 -12.5z" />
    <glyph glyph-name="at" unicode="@" horiz-adv-x="712" 
d="M328 -96q-52 0 -100.5 18.5t-86.5 56.5t-60.5 98t-22.5 141q0 93 31.5 169.5t99.5 122t177 45.5q97 0 164.5 -36.5t102 -108t34.5 -175.5q0 -50 -10.5 -95.5t-34.5 -74t-69 -28.5q-36 0 -62 19t-33 43q-26 -25 -52 -38.5t-70 -13.5q-34 0 -63 10t-46 33.5t-17 63.5
q0 46 23.5 69.5t67.5 32.5t104 9h47v20q0 46 -25 67t-78 21q-33 0 -50 -5.5t-26.5 -11.5t-17.5 -6q-6 0 -10.5 3.5t-6.5 9t-2 9.5q0 13 19 23t47 15.5t56 5.5q44 0 74.5 -15t46.5 -42.5t16 -68.5v-165q3 -22 21.5 -36.5t39.5 -14.5q22 0 35.5 15t21 38.5t10.5 50.5t3 53
q0 131 -64.5 206t-198.5 75q-75 0 -125.5 -23.5t-81 -65.5t-44 -94.5t-13.5 -109.5q0 -53 12 -102t39.5 -88t72 -61.5t109.5 -22.5q46 0 74 8t44.5 15.5t26.5 7.5q7 0 12 -5.5t5 -11.5q0 -9 -14 -18.5t-38.5 -18t-54 -13.5t-59.5 -5zM338 85q37 0 62.5 13t38.5 32t13 36v62
h-44q-43 0 -77.5 -4.5t-55 -20t-20.5 -49.5q0 -37 24 -53t59 -16z" />
    <glyph glyph-name="A" unicode="A" horiz-adv-x="529" 
d="M50 0q-6 0 -12.5 3t-10.5 7.5t-4 11.5q0 3 1 6l213 691q3 10 11 14t17 4t17.5 -4.5t11.5 -13.5l211 -691q1 -3 1 -6q0 -5 -4.5 -10.5t-11 -8.5t-13.5 -3t-12.5 3.5t-7.5 11.5l-49 159h-288l-48 -159q-2 -8 -8 -11.5t-14 -3.5zM134 220h260l-129 427z" />
    <glyph glyph-name="B" unicode="B" horiz-adv-x="532" 
d="M103 0q-10 0 -16.5 6t-6.5 14v690q0 10 7 15.5t16 5.5h157q57 0 103.5 -13t73.5 -49t27 -106q0 -64 -23 -107t-62 -60q31 -13 54 -34t36 -54.5t13 -85.5v-18q0 -75 -26 -120t-70.5 -64.5t-99.5 -19.5h-183zM129 48h153q70 0 110 37.5t40 120.5v17q0 83 -40 116.5
t-110 33.5h-153v-325zM129 419h136q76 0 112.5 30.5t36.5 109.5q0 52 -19.5 78.5t-54 36t-80.5 9.5h-131v-264z" />
    <glyph glyph-name="C" unicode="C" horiz-adv-x="518" 
d="M274 -6q-55 0 -101 21t-73 66.5t-27 121.5v319q0 76 28 121.5t74 66.5t101 21q65 0 109 -23t67 -60t23 -79q0 -20 -6 -26.5t-19 -6.5q-15 0 -20 7t-5 14q-1 17 -7 38.5t-21.5 41.5t-44.5 33t-76 13q-75 0 -114.5 -39.5t-39.5 -121.5v-319q0 -83 40 -122t118 -39
q47 0 75 12.5t42 32t19.5 42t8.5 40.5q1 9 6.5 15t18.5 6t19 -7t6 -27q0 -41 -23 -78.5t-68 -60.5t-110 -23z" />
    <glyph glyph-name="D" unicode="D" horiz-adv-x="555" 
d="M103 0q-10 0 -16.5 6t-6.5 14v691q0 8 6.5 14t16.5 6h177q57 0 103 -21t72.5 -66.5t26.5 -121.5v-313q0 -76 -26.5 -121.5t-72.5 -66.5t-103 -21h-177zM130 48h150q72 0 112 39.5t40 121.5v313q0 82 -40 121.5t-112 39.5h-150v-635z" />
    <glyph glyph-name="E" unicode="E" horiz-adv-x="503" 
d="M103 0q-9 0 -16 5.5t-7 15.5v689q0 10 7 15.5t16 5.5h356q11 0 16 -7.5t5 -15.5q0 -9 -5.5 -17t-15.5 -8h-329v-294h158q10 0 15.5 -7t5.5 -17q0 -8 -5 -15t-16 -7h-158v-295h329q10 0 15.5 -7.5t5.5 -17.5q0 -8 -5 -15.5t-16 -7.5h-356z" />
    <glyph glyph-name="F" unicode="F" horiz-adv-x="492" 
d="M105 0q-10 0 -17.5 5t-7.5 16v689q0 10 7 15.5t16 5.5h355q11 0 16 -7.5t5 -15.5q0 -9 -5.5 -17t-15.5 -8h-328v-294h159q9 0 14.5 -7t5.5 -17q0 -8 -5 -15t-15 -7h-159v-322q0 -11 -8 -16t-17 -5z" />
    <glyph glyph-name="G" unicode="G" horiz-adv-x="536" 
d="M273 -6q-56 0 -101.5 21t-72 66.5t-26.5 121.5v319q0 76 26.5 121.5t72 66.5t101.5 21q63 0 108 -22t69.5 -60.5t24.5 -86.5q0 -14 -7 -20t-18 -6q-10 0 -17 5t-8 16q-5 42 -24 70t-51.5 42t-76.5 14q-71 0 -111 -39.5t-40 -121.5v-319q0 -82 40 -121.5t111 -39.5
t111.5 39.5t40.5 121.5v135h-147q-10 0 -15.5 7t-5.5 16t5.5 16t15.5 7h177q9 0 14.5 -6.5t5.5 -15.5v-159q0 -76 -26.5 -121.5t-72.5 -66.5t-103 -21z" />
    <glyph glyph-name="H" unicode="H" horiz-adv-x="564" 
d="M105 0q-10 0 -17.5 5.5t-7.5 15.5v690q0 10 7.5 15t17.5 5q9 0 17 -5t8 -15v-309h305v309q0 10 7.5 15t17.5 5q9 0 17 -5t8 -15v-690q0 -10 -8 -15.5t-17 -5.5q-10 0 -17.5 5.5t-7.5 15.5v335h-305v-335q0 -10 -8 -15.5t-17 -5.5z" />
    <glyph glyph-name="I" unicode="I" horiz-adv-x="209" 
d="M105 0q-10 0 -17.5 5.5t-7.5 15.5v690q0 10 7.5 15t17.5 5q9 0 17 -5t8 -15v-690q0 -10 -8 -15.5t-17 -5.5z" />
    <glyph glyph-name="J" unicode="J" horiz-adv-x="502" 
d="M226 -6q-62 0 -107.5 22.5t-70 61t-24.5 86.5q0 15 6.5 20.5t17.5 5.5q10 0 17.5 -5t8.5 -16q0 -41 19.5 -70t54 -43t77.5 -14q72 0 111.5 39.5t39.5 121.5v480h-150q-10 0 -15.5 8t-5.5 17q0 8 5 15.5t16 7.5h176q10 0 17 -5.5t7 -15.5v-507q0 -76 -26.5 -121.5
t-72 -66.5t-101.5 -21z" />
    <glyph glyph-name="K" unicode="K" horiz-adv-x="515" 
d="M105 0q-10 0 -17.5 5.5t-7.5 15.5v690q0 10 7.5 15t17.5 5q9 0 17 -5t8 -15v-375l307 387q6 8 17 8q7 0 13 -3.5t10 -9.5t4 -13q0 -3 -1.5 -6.5t-3.5 -5.5l-223 -278l252 -380q3 -5 3 -11t-3.5 -12t-10 -9.5t-13.5 -3.5q-6 0 -11 3t-9 9l-242 362l-89 -112v-240
q0 -10 -8 -15.5t-17 -5.5z" />
    <glyph glyph-name="L" unicode="L" horiz-adv-x="457" 
d="M103 0q-9 0 -16 5.5t-7 15.5v690q0 10 7.5 15t17.5 5q9 0 17 -5t8 -15v-663h295q9 0 13.5 -7.5t4.5 -16.5t-4.5 -16.5t-13.5 -7.5h-322z" />
    <glyph glyph-name="M" unicode="M" horiz-adv-x="660" 
d="M105 0q-10 0 -17.5 5.5t-7.5 15.5v686q0 14 7.5 19t17.5 5q9 0 16.5 -6.5t14 -16t10.5 -18.5l183 -358l185 358q5 9 11 18.5t14 16t16 6.5q11 0 18 -5t7 -19v-686q0 -10 -7.5 -15.5t-17.5 -5.5q-9 0 -17 5.5t-8 15.5v596l-178 -340q-5 -11 -11 -15.5t-12 -4.5
q-5 0 -11 4.5t-11 15.5l-177 342v-598q0 -10 -8 -15.5t-17 -5.5z" />
    <glyph glyph-name="N" unicode="N" horiz-adv-x="564" 
d="M105 0q-10 0 -17.5 5.5t-7.5 15.5v689q0 12 7.5 16.5t17.5 4.5q9 0 16.5 -6.5t13.5 -16t10 -18.5l290 -571v592q0 10 7.5 15t17.5 5q9 0 17 -5t8 -15v-690q0 -10 -8 -15.5t-17 -5.5q-12 0 -21 12.5t-15 24.5l-294 576v-592q0 -10 -8 -15.5t-17 -5.5z" />
    <glyph glyph-name="O" unicode="O" horiz-adv-x="548" 
d="M273 -6q-56 0 -101.5 21t-72 66.5t-26.5 121.5v319q0 76 26.5 121.5t72 66.5t101.5 21q57 0 103 -21t72.5 -66.5t26.5 -121.5v-319q0 -76 -26.5 -121.5t-72.5 -66.5t-103 -21zM273 42q71 0 111.5 39.5t40.5 121.5v319q0 82 -40 121.5t-112 39.5q-71 0 -111 -39.5
t-40 -121.5v-319q0 -82 40 -121.5t111 -39.5z" />
    <glyph glyph-name="P" unicode="P" horiz-adv-x="520" 
d="M105 0q-10 0 -17.5 5.5t-7.5 15.5v690q0 8 6 13.5t16 6.5h181q56 0 101.5 -20.5t72 -66.5t26.5 -122v-11q0 -76 -26.5 -122t-72.5 -67t-102 -21h-152v-280q0 -10 -8 -15.5t-17 -5.5zM130 347h152q71 0 111 40t40 123v12q0 82 -40 121.5t-111 39.5h-152v-336z" />
    <glyph glyph-name="Q" unicode="Q" horiz-adv-x="548" 
d="M274 -109q-8 0 -14.5 5.5t-6.5 15.5v83q-52 4 -93 25.5t-64 66.5t-23 116v319q0 76 26.5 121.5t72 66.5t101.5 21q57 0 103 -21t72.5 -66.5t26.5 -121.5v-319q0 -71 -23 -116t-64 -66.5t-92 -25.5v-83q0 -10 -7 -15.5t-15 -5.5zM253 43v79q0 11 6.5 16t14.5 5t15 -5
t7 -16v-78q60 5 94.5 44t34.5 115v319q0 82 -40.5 121.5t-111.5 39.5t-111 -39.5t-40 -121.5v-319q0 -76 34.5 -115t96.5 -45z" />
    <glyph glyph-name="R" unicode="R" horiz-adv-x="518" 
d="M457 -1q-11 0 -18.5 12.5l-13.5 22.5l-157 307h-138v-320q0 -10 -8 -15.5t-17 -5.5q-10 0 -17.5 5.5t-7.5 15.5v690q0 8 5.5 13.5t15.5 6.5h172q56 0 104 -17.5t77 -60t29 -116.5q0 -63 -21.5 -103t-58 -60.5t-82.5 -27.5l160 -310q2 -3 2.5 -6t0.5 -5q0 -7 -4 -12.5
t-10 -9.5t-13 -4zM130 387h143q71 0 115.5 34.5t44.5 114.5q0 79 -44.5 113t-115.5 34h-143v-296z" />
    <glyph glyph-name="S" unicode="S" horiz-adv-x="487" 
d="M238 -6q-64 0 -108.5 19t-67.5 44.5t-23 40.5q0 6 4 13t9 11t10 4q9 0 18.5 -12.5t26.5 -29.5t47 -29.5t79 -12.5q51 0 86.5 17t54 50.5t18.5 82.5q0 52 -18.5 83.5t-48 51t-65 32t-71 25.5t-65.5 32.5t-48.5 52.5t-18.5 86q0 54 19.5 88.5t50.5 54t66 27t68 7.5
q30 0 58.5 -5t52.5 -12.5t38 -17.5t14 -21q0 -6 -3 -12.5t-8 -11.5t-12 -5q-8 0 -24 9.5t-44 19t-73 9.5q-36 0 -71.5 -11t-58.5 -38t-23 -77q0 -43 18.5 -69t48.5 -42t65 -27.5t71 -26.5t65.5 -38t48 -61t18.5 -98q0 -71 -26.5 -116t-72 -66t-105.5 -21z" />
    <glyph glyph-name="T" unicode="T" horiz-adv-x="465" 
d="M233 0q-10 0 -17.5 5.5t-7.5 15.5v662h-173q-10 0 -16 7.5t-6 16.5t6 16.5t16 7.5h395q11 0 16.5 -7t5.5 -16q0 -10 -5 -17.5t-17 -7.5h-172v-662q0 -10 -7.5 -15.5t-17.5 -5.5z" />
    <glyph glyph-name="U" unicode="U" horiz-adv-x="556" 
d="M277 -6q-56 0 -102 21t-72.5 66.5t-26.5 121.5v508q0 10 7.5 15t17.5 5q9 0 17 -5t8 -15v-508q0 -82 40 -121.5t111 -39.5q72 0 112.5 39.5t40.5 121.5v508q0 10 7.5 15t17.5 5q9 0 17 -5t8 -15v-508q0 -76 -27 -121.5t-73 -66.5t-103 -21z" />
    <glyph glyph-name="V" unicode="V" horiz-adv-x="527" 
d="M264 -6q-9 0 -17 4.5t-11 13.5l-213 691q-1 3 -1 6q0 7 4 11.5t10.5 7.5t12.5 3q8 0 14 -3.5t8 -11.5l193 -632l192 632q2 8 8 11.5t12 3.5q7 0 13.5 -3t11 -8t4.5 -11q0 -2 -0.5 -3t-0.5 -3l-211 -691q-3 -9 -11.5 -13.5t-17.5 -4.5z" />
    <glyph glyph-name="W" unicode="W" horiz-adv-x="760" 
d="M250 -6q-10 0 -18 4.5t-10 13.5l-198 691q-1 3 -1 7q0 7 4 11.5t10.5 7t12.5 2.5q8 0 14.5 -4t8.5 -11l176 -632l103 379q4 12 11.5 16t16.5 4q11 0 17.5 -4t9.5 -16l105 -379l175 632q3 7 9.5 11t13.5 4t13 -2.5t10 -7t4 -11.5q0 -4 -1 -7l-196 -691q-3 -9 -10.5 -13.5
t-18.5 -4.5q-9 0 -17 4.5t-10 13.5l-104 374l-102 -374q-2 -9 -10 -13.5t-18 -4.5z" />
    <glyph glyph-name="X" unicode="X" horiz-adv-x="464" 
d="M54 -1q-7 0 -13.5 3.5t-10.5 9t-4 12.5q0 6 3 13l172 329l-169 326q-6 11 -6 19q0 7 4 11.5t10 7t14 2.5q12 0 19.5 -12t12.5 -23l145 -283l147 283q5 11 13 23t19 12q7 0 13.5 -2.5t10 -7t3.5 -11.5q0 -8 -5 -19l-171 -326l173 -329q4 -7 4 -13q0 -7 -4 -12.5t-10.5 -9
t-13.5 -3.5q-10 0 -17.5 12t-12.5 22l-149 286l-147 -286q-5 -10 -12 -22t-18 -12z" />
    <glyph glyph-name="Y" unicode="Y" horiz-adv-x="518" 
d="M259 0q-10 0 -17.5 5.5t-7.5 15.5v255q0 4 -2 7l-207 407q-2 6 -3.5 11t-1.5 8q0 7 4 11.5t9 7.5t11 3t12 -4.5t11 -13.5l192 -385l193 385q5 9 11 13.5t12 4.5t11 -3t8.5 -7.5t3.5 -11.5q0 -3 -1 -8t-4 -11l-208 -407q-1 -3 -1 -7v-255q0 -10 -8 -15.5t-17 -5.5z" />
    <glyph glyph-name="Z" unicode="Z" horiz-adv-x="472" 
d="M46 0q-9 0 -15 6t-6 14t5 17l342 646h-315q-10 0 -15.5 7.5t-5.5 16.5t5.5 16.5t15.5 7.5h359q11 0 16 -5t5 -13q0 -10 -6 -21l-341 -644h337q11 0 16 -7.5t5 -16.5t-5 -16.5t-16 -7.5h-381z" />
    <glyph glyph-name="bracketleft" unicode="[" horiz-adv-x="293" 
d="M95 -21q-9 0 -16.5 6t-7.5 15v747q0 9 7.5 15t16.5 6h158q9 0 15 -7t6 -16t-6 -16.5t-15 -7.5h-132v-695h132q9 0 15 -7t6 -17q0 -9 -6 -16t-15 -7h-158z" />
    <glyph glyph-name="backslash" unicode="\" horiz-adv-x="345" 
d="M297 0q-6 0 -12 3t-8 11l-249 709q-1 3 -1 8q0 11 7 17t15 6q7 0 12 -2.5t6 -8.5l251 -717q1 -1 1 -2.5v-4.5q0 -8 -6.5 -13.5t-15.5 -5.5z" />
    <glyph glyph-name="bracketright" unicode="]" horiz-adv-x="293" 
d="M40 -21q-9 0 -15 7t-6 16q0 10 6 17t15 7h132v695h-132q-9 0 -15 7.5t-6 16.5t6 16t15 7h158q10 0 17 -6t7 -15v-747q0 -9 -7.5 -15t-16.5 -6h-158z" />
    <glyph glyph-name="asciicircum" unicode="^" horiz-adv-x="264" 
d="M20 596q-8 0 -14 6.5t-6 16.5q0 5 3 9.5t8 7.5l104 56q8 5 17 5t17 -5l104 -55q6 -3 8.5 -8.5t2.5 -11.5q0 -8 -5.5 -14t-13.5 -6q-2 0 -4.5 1t-4.5 2l-104 55l-104 -56l-4 -2t-4 -1z" />
    <glyph glyph-name="underscore" unicode="_" horiz-adv-x="340" 
d="M11 -46q-9 0 -15 6.5t-6 16.5t6 16.5t15 6.5h320q8 0 14.5 -6.5t6.5 -16.5t-6.5 -16.5t-14.5 -6.5h-320z" />
    <glyph glyph-name="grave" unicode="`" horiz-adv-x="143" 
d="M121 596q-2 0 -4.5 1t-5.5 2l-100 56q-11 6 -11 19q0 9 5.5 16t14.5 7q3 0 7 -2l107 -61q9 -4 9 -15q0 -9 -6 -16t-16 -7z" />
    <glyph glyph-name="a" unicode="a" horiz-adv-x="430" 
d="M171 -6q-58 0 -98 32.5t-40 99.5q0 53 29.5 82t82 40.5t121.5 11.5h54v26q0 35 -12.5 69t-40 56t-73.5 22q-32 0 -52.5 -6.5t-33 -14t-19.5 -7.5q-10 0 -16 9.5t-6 17.5q0 12 19.5 22.5t49.5 17t60 6.5q65 0 102.5 -27.5t54 -71t16.5 -93.5v-265q0 -8 -6.5 -14.5
t-17.5 -6.5q-10 0 -17 6.5t-7 14.5v49q-25 -29 -62.5 -52.5t-87.5 -23.5zM178 38q35 0 67.5 17.5t53.5 43t21 47.5v74h-49q-49 0 -92 -5.5t-70 -25t-27 -61.5q0 -47 28 -68.5t68 -21.5z" />
    <glyph glyph-name="b" unicode="b" horiz-adv-x="476" 
d="M251 -6q-47 0 -83.5 22.5t-53.5 53.5v-49q0 -8 -6.5 -14.5t-17.5 -6.5q-10 0 -17 6.5t-7 14.5v724q0 10 7 15.5t17 5.5q11 0 18 -5.5t7 -15.5v-343q17 29 50.5 52.5t82.5 23.5t90 -24.5t65.5 -66t24.5 -92.5v-116q0 -48 -24.5 -90.5t-65 -68.5t-87.5 -26zM246 40
q36 0 66 20t48.5 52t18.5 67v116q0 35 -18.5 66t-48.5 51t-67 20q-32 0 -62 -16.5t-49 -47t-19 -73.5v-150q0 -16 17.5 -41t47 -44.5t66.5 -19.5z" />
    <glyph glyph-name="c" unicode="c" horiz-adv-x="407" 
d="M237 -6q-64 0 -105.5 24t-62 66t-20.5 95v114q0 52 20 94.5t62 66.5t106 24q41 0 71.5 -10.5t47.5 -24.5t17 -26q0 -5 -3.5 -11t-8.5 -9.5t-11 -3.5q-9 0 -20.5 10t-32 19.5t-58.5 9.5q-69 0 -105 -37.5t-36 -101.5v-114q0 -64 36 -101.5t106 -37.5q40 0 61.5 10t33 20
t21.5 10q7 0 11.5 -4t8 -9t3.5 -11q0 -11 -17.5 -26t-49 -25.5t-75.5 -10.5z" />
    <glyph glyph-name="d" unicode="d" horiz-adv-x="476" 
d="M225 -6q-47 0 -88 26t-65.5 68.5t-24.5 90.5v116q0 51 24.5 92.5t65.5 66t90 24.5q50 0 83.5 -23.5t49.5 -52.5v343q0 10 7.5 15.5t17.5 5.5q11 0 17.5 -5.5t6.5 -15.5v-724q0 -8 -6.5 -14.5t-17.5 -6.5q-9 0 -16.5 6.5t-7.5 14.5v49q-15 -31 -52.5 -53.5t-83.5 -22.5z
M229 40q38 0 67.5 19.5t46.5 44.5t17 41v150q0 43 -19 73.5t-48.5 47t-62.5 16.5q-36 0 -66.5 -20t-49 -51t-18.5 -66v-116q0 -35 18.5 -67t48.5 -52t66 -20z" />
    <glyph glyph-name="e" unicode="e" horiz-adv-x="451" 
d="M256 -6q-61 0 -107.5 23t-73.5 64.5t-27 97.5v119q0 49 25.5 90t67 65.5t91.5 24.5q49 0 90 -23.5t66.5 -64t25.5 -93.5q0 -37 -12.5 -53.5t-31.5 -20t-41 -3.5h-232v-42q0 -64 46 -101.5t115 -37.5q41 0 63 10t34 20t22 10q7 0 12 -4t8 -9.5t3 -10.5q0 -10 -17.5 -25
t-49.5 -25.5t-77 -10.5zM97 261h213q34 0 45 7t11 29q0 34 -16.5 65.5t-47 51.5t-70.5 20q-38 0 -68.5 -18t-48.5 -48t-18 -66v-41z" />
    <glyph glyph-name="f" unicode="f" horiz-adv-x="297" 
d="M89 0q-10 0 -16.5 6t-6.5 14v565q0 49 24.5 90t65 66t88.5 25h17q11 0 17 -7t6 -17q0 -9 -6 -15.5t-17 -6.5h-13q-37 0 -67 -19t-47.5 -49t-18.5 -65v-115h149q9 0 14.5 -6t5.5 -15t-5.5 -15.5t-14.5 -6.5h-149v-409q0 -8 -7.5 -14t-18.5 -6z" />
    <glyph glyph-name="g" unicode="g" horiz-adv-x="450" 
d="M228 -235q-58 0 -103 16.5t-70 45.5t-25 69q0 45 27 71.5t61 38.5q-26 9 -42 24t-16 46q0 28 13.5 44t35.5 27q-26 22 -39.5 54.5t-13.5 71.5v41q0 48 20.5 85t58 58t87.5 21q36 0 66 -11.5t52 -33.5q14 28 34.5 45t38.5 17q13 0 19 -7t6 -16t-5 -14t-13 -6
q-12 -1 -28 -10t-30 -35q14 -18 20.5 -42t6.5 -51v-41q0 -47 -21 -85t-59.5 -59.5t-87.5 -21.5q-45 0 -80 19q-13 -7 -24 -16.5t-11 -27.5q0 -24 22.5 -34t58.5 -14t75.5 -8.5t75.5 -16t58.5 -36t22.5 -69.5t-24 -76t-67 -47t-100 -16zM227 -195q69 0 106.5 26.5t37.5 70.5
q0 34 -21 51.5t-53 25t-65 10t-57 5.5q-38 -11 -67.5 -32.5t-29.5 -60.5q0 -43 39.5 -69.5t109.5 -26.5zM223 148q55 0 86.5 35.5t31.5 89.5v41q0 53 -31.5 88t-87.5 35t-87 -35t-31 -88v-40q0 -53 31 -89.5t88 -36.5z" />
    <glyph glyph-name="h" unicode="h" horiz-adv-x="488" 
d="M90 0q-10 0 -17 6.5t-7 14.5v724q0 10 7 15.5t17 5.5q11 0 18 -5.5t7 -15.5v-343q17 29 50.5 52.5t82.5 23.5t89.5 -24.5t65 -66t24.5 -92.5v-274q0 -10 -7.5 -15.5t-17.5 -5.5q-8 0 -16 5.5t-8 15.5v274q0 35 -18.5 66t-48.5 51t-67 20q-32 0 -61.5 -16.5t-48.5 -47
t-19 -73.5v-274q0 -8 -7 -14.5t-18 -6.5z" />
    <glyph glyph-name="i" unicode="i" horiz-adv-x="180" 
d="M90 621q-15 0 -26.5 11t-11.5 26t11.5 25t26.5 10q16 0 26.5 -10t10.5 -25t-10.5 -26t-26.5 -11zM89 0q-10 0 -17 6.5t-7 14.5v431q0 9 7 14.5t17 5.5q11 0 18 -5.5t7 -14.5v-431q0 -8 -7 -14.5t-18 -6.5z" />
    <glyph glyph-name="j" unicode="j" horiz-adv-x="181" 
d="M-11 -235q-12 0 -18.5 7.5t-6.5 16.5q0 10 6.5 16t15.5 6q36 0 53 18.5t22 51t5 73.5v498q0 9 7 14.5t17 5.5q11 0 18 -5.5t7 -14.5v-498q0 -55 -12 -98t-40 -67t-74 -24zM90 621q-15 0 -26.5 11t-11.5 26t11.5 25t26.5 10q16 0 26.5 -10t10.5 -25t-10.5 -26t-26.5 -11z
" />
    <glyph glyph-name="k" unicode="k" horiz-adv-x="445" 
d="M90 0q-10 0 -17 6.5t-7 14.5v724q0 10 7 15.5t17 5.5q11 0 18 -5.5t7 -15.5v-503l258 226q7 5 13 5t11.5 -2.5t9.5 -7.5t4 -13q0 -4 -1 -8.5t-6 -7.5l-154 -135l179 -264q4 -5 4 -11t-3.5 -12t-9.5 -9.5t-13 -3.5q-10 0 -16 10l-177 259l-99 -87v-160q0 -8 -7 -14.5
t-18 -6.5z" />
    <glyph glyph-name="l" unicode="l" horiz-adv-x="198" 
d="M98 0q-10 0 -17 6.5t-7 14.5v724q0 10 7 15.5t17 5.5q11 0 18 -5.5t7 -15.5v-724q0 -8 -7 -14.5t-18 -6.5z" />
    <glyph glyph-name="m" unicode="m" horiz-adv-x="772" 
d="M89 0q-10 0 -17 6.5t-7 14.5v431q0 9 7 14.5t17 5.5q11 0 17.5 -5.5t6.5 -14.5v-50q17 29 50.5 52.5t83.5 23.5q51 0 89.5 -28t56.5 -72q26 51 67.5 75.5t84.5 24.5t80.5 -21t61.5 -62t24 -100v-274q0 -8 -7 -14.5t-18 -6.5q-10 0 -17 6.5t-7 14.5v274q0 45 -18.5 75.5
t-46.5 46t-58 15.5q-32 0 -60.5 -16.5t-47 -46t-18.5 -69.5v-280q0 -10 -8 -15t-17 -5t-16.5 5t-7.5 15v279q0 39 -17 68.5t-44 47t-61 17.5q-31 0 -60.5 -16.5t-48.5 -46.5t-19 -74v-274q0 -8 -7 -14.5t-18 -6.5z" />
    <glyph glyph-name="n" unicode="n" horiz-adv-x="487" 
d="M89 0q-10 0 -17 6.5t-7 14.5v431q0 9 7 14.5t17 5.5q11 0 17.5 -5.5t6.5 -14.5v-50q17 29 50.5 52.5t83.5 23.5q49 0 89.5 -24.5t65 -66t24.5 -92.5v-274q0 -10 -7.5 -15.5t-17.5 -5.5q-8 0 -16 5.5t-8 15.5v274q0 35 -18.5 66t-48.5 51t-67 20q-32 0 -61.5 -16.5
t-48.5 -47t-19 -73.5v-274q0 -8 -7 -14.5t-18 -6.5z" />
    <glyph glyph-name="o" unicode="o" horiz-adv-x="461" 
d="M230 -6q-48 0 -90 26t-67.5 68t-25.5 91v116q0 49 25 91t67 67t91 25q50 0 91.5 -24.5t67 -66t25.5 -92.5v-116q0 -48 -25.5 -90.5t-67 -68.5t-91.5 -26zM230 40q38 0 68 20t48.5 52t18.5 67v116q0 35 -18 66t-48.5 51t-68.5 20t-68 -20t-48 -51t-18 -66v-116
q0 -35 18 -67t48.5 -52t67.5 -20z" />
    <glyph glyph-name="p" unicode="p" horiz-adv-x="476" 
d="M90 -235q-10 0 -17 7t-7 15v665q0 9 7 14.5t17 5.5q11 0 17.5 -5.5t6.5 -14.5v-50q17 29 51 52.5t83 23.5t90 -24.5t65.5 -66t24.5 -92.5v-116q0 -48 -24.5 -90.5t-65 -68.5t-87.5 -26q-46 0 -82.5 22.5t-53.5 53.5v-283q0 -8 -7 -15t-18 -7zM246 40q36 0 66 20t48.5 52
t18.5 67v116q0 35 -18.5 66t-48.5 51t-67 20q-32 0 -62 -16.5t-49 -47t-19 -73.5v-150q0 -16 17 -41t47 -44.5t67 -19.5z" />
    <glyph glyph-name="q" unicode="q" horiz-adv-x="476" 
d="M385 -235q-10 0 -17.5 7t-7.5 15v283q-15 -31 -52 -53.5t-83 -22.5q-47 0 -88 26t-65.5 68.5t-24.5 90.5v116q0 51 24.5 92.5t65.5 66t90 24.5q50 0 84 -23.5t50 -52.5v50q0 9 7.5 14.5t17.5 5.5t16.5 -5.5t6.5 -14.5v-665q0 -8 -6.5 -15t-17.5 -7zM230 40q38 0 67 19.5
t46 44.5t17 41v150q0 43 -19 73.5t-48.5 47t-61.5 16.5q-37 0 -67.5 -20t-49 -51t-18.5 -66v-116q0 -35 18.5 -67t49 -52t66.5 -20z" />
    <glyph glyph-name="r" unicode="r" horiz-adv-x="318" 
d="M89 0q-10 0 -17 6.5t-7 14.5v431q0 9 7 14.5t17 5.5q11 0 17.5 -5.5t6.5 -14.5v-51q12 20 31 37.5t45.5 28.5t60.5 11h36q9 0 15 -6.5t6 -16.5t-6 -16.5t-15 -6.5h-36q-34 0 -65.5 -17.5t-51 -50t-19.5 -78.5v-265q0 -8 -7 -14.5t-18 -6.5z" />
    <glyph glyph-name="s" unicode="s" horiz-adv-x="380" 
d="M187 -6q-46 0 -79.5 11.5t-52.5 27t-19 29.5q0 5 2.5 10t7 9t8.5 4q10 0 23 -11.5t38 -23.5t71 -12q60 0 85 23t25 54q0 36 -17.5 56.5t-46.5 31.5t-60.5 19.5t-60.5 21.5t-47 37t-18 65q0 30 16 61t49.5 51t87.5 20q32 0 61 -6.5t48 -17t19 -21.5q0 -4 -3 -10.5
t-7.5 -11t-11.5 -4.5t-20 7t-34 13.5t-51 6.5q-39 0 -62.5 -14t-34 -34t-10.5 -39q0 -30 18 -47t46.5 -26.5t60.5 -18.5t60.5 -24t46.5 -41.5t18 -72.5q0 -56 -41 -89.5t-115 -33.5z" />
    <glyph glyph-name="t" unicode="t" horiz-adv-x="283" 
d="M215 0q-74 0 -113 34t-39 108v538q0 10 8 15.5t16 5.5q10 0 17.5 -5.5t7.5 -15.5v-208h133q8 0 13.5 -6t5.5 -16q0 -8 -5.5 -14.5t-13.5 -6.5h-133v-287q0 -52 23.5 -74t79.5 -22h25q11 0 17 -6.5t6 -16.5q0 -9 -6 -16t-17 -7h-25z" />
    <glyph glyph-name="u" unicode="u" horiz-adv-x="489" 
d="M245 -6q-50 0 -92 25.5t-67 67.5t-25 90v274q0 8 7.5 14.5t17.5 6.5t17 -6.5t7 -14.5v-274q0 -35 18 -66t48.5 -51t68.5 -20t68 19.5t48 51t18 66.5v275q0 8 7.5 14t17.5 6q11 0 17.5 -6t6.5 -14v-275q0 -49 -25 -91t-66.5 -67t-91.5 -25z" />
    <glyph glyph-name="v" unicode="v" horiz-adv-x="405" 
d="M203 -7q-9 0 -15 3.5t-9 10.5l-158 428q-1 2 -2.5 7t-1.5 8q0 6 4.5 11.5t10.5 8.5t13 3q6 0 12 -3t8 -9l138 -378l136 372q2 7 6 12.5t14 5.5q6 0 12.5 -2.5t11.5 -8t5 -11.5q0 -5 -1.5 -9t-2.5 -7l-158 -428q-3 -6 -9 -10t-14 -4z" />
    <glyph glyph-name="w" unicode="w" horiz-adv-x="660" 
d="M199 -7q-9 0 -13.5 4t-8.5 14l-156 425l-2.5 7.5t-1.5 6.5q0 7 4 12t10.5 8t13.5 3q6 0 12 -3t8 -9l135 -375l109 344q2 8 8 11.5t14 3.5t13.5 -3.5t8.5 -11.5l105 -349l138 380q3 12 19 12q6 0 12.5 -2.5t10.5 -7.5t4 -12q0 -3 -1 -8t-3 -7l-156 -429q-3 -8 -8.5 -11
t-11.5 -3q-8 0 -12.5 3t-7.5 10l-111 352l-110 -347q-3 -9 -8.5 -13.5t-13.5 -4.5z" />
    <glyph glyph-name="x" unicode="x" horiz-adv-x="394" 
d="M54 -6q-7 0 -13 3.5t-10.5 9t-4.5 11.5t4 11l136 210l-135 204l-2.5 5t-1.5 5q0 7 4.5 12.5t11 9t12.5 3.5q5 0 10 -2t7 -6l125 -192l126 191q3 5 7.5 7t9.5 2q6 0 12.5 -3t11 -8.5t4.5 -13.5q0 -4 -4 -10l-136 -205l137 -209q2 -2 3 -5t1 -6q0 -6 -4 -11.5t-10.5 -9
t-13.5 -3.5q-4 0 -9 2t-7 6l-128 196l-126 -196q-3 -4 -7.5 -6t-9.5 -2z" />
    <glyph glyph-name="y" unicode="y" horiz-adv-x="407" 
d="M40 -235q-9 0 -16 6t-7 17q0 9 4 16t14 7q25 0 46.5 17.5t40 48t33 66.5t25.5 73l-162 431q-2 5 -2 8q0 7 4.5 12t11 8.5t13.5 3.5q6 0 12 -3.5t7 -9.5l141 -385l137 385q3 6 8 9.5t11 3.5q7 0 13.5 -3t11 -8.5t4.5 -12.5q0 -5 -2 -8l-158 -431q-13 -39 -30 -82.5
t-39.5 -81.5t-52 -62.5t-68.5 -24.5z" />
    <glyph glyph-name="z" unicode="z" horiz-adv-x="392" 
d="M47 0q-10 0 -16 6t-6 14q0 4 2 9.5t5 8.5l256 389h-232q-9 0 -15 6.5t-6 15.5q0 10 6 16.5t15 6.5h279q10 0 16 -5.5t6 -15.5q0 -9 -6 -17l-257 -389h253q9 0 15 -6.5t6 -16.5q0 -9 -6 -15.5t-15 -6.5h-300z" />
    <glyph glyph-name="braceleft" unicode="{" horiz-adv-x="296" 
d="M252 -20q-50 0 -90.5 19t-65 53t-24.5 79q0 10 2 32t5 50t6 55.5t5 47.5t2 26q0 12 -9 15t-21 4t-21 5.5t-9 17.5q0 14 9 18.5t21 5.5t21 4t9 15q0 8 -3 31.5t-7 53t-7 56t-3 37.5q0 33 14 62t39 52t57.5 36t69.5 13q12 0 18.5 -7t6.5 -16t-6 -16t-14 -7q-38 0 -69 -17
t-48.5 -44.5t-17.5 -60.5q0 -11 3 -36.5t7 -54.5t7 -53t3 -31q0 -17 -12.5 -28t-21.5 -13q9 -3 21.5 -13t12.5 -27q0 -9 -3 -38t-7 -64t-7 -66t-3 -45q0 -31 14.5 -51t36 -32t44.5 -17t40 -5q8 0 12 -4t6 -8.5t2 -9.5q0 -11 -7.5 -17.5t-17.5 -6.5z" />
    <glyph glyph-name="bar" unicode="|" horiz-adv-x="192" 
d="M96 -21q-10 0 -17.5 6t-7.5 15v748q0 8 7.5 14t17.5 6t17.5 -6t7.5 -14v-748q0 -9 -7.5 -15t-17.5 -6z" />
    <glyph glyph-name="braceright" unicode="}" horiz-adv-x="296" 
d="M44 -20q-10 0 -17.5 6.5t-7.5 17.5q0 5 2 9.5t6 8.5t13 4q16 0 39 5t44.5 17t36 32t14.5 51q0 14 -3 45t-7 66t-7 64t-3 38q0 17 12 27t22 13q-10 2 -22 13t-12 28q0 7 3 31t7 53t7 54.5t3 36.5q0 33 -17.5 60.5t-48 44.5t-68.5 17q-9 0 -15 7t-6 16t6.5 16t18.5 7
q37 0 69.5 -13t57.5 -36t39 -52t14 -62q0 -11 -3 -37.5t-7 -56t-7 -53t-3 -31.5q0 -12 9 -15t21 -4t21 -5.5t9 -18.5q0 -13 -9 -17.5t-21 -5.5t-21 -4t-9 -15q0 -6 2 -26t5.5 -47.5t6 -55.5t4.5 -50t2 -32q0 -45 -24.5 -79t-65 -53t-90.5 -19z" />
    <glyph glyph-name="asciitilde" unicode="~" horiz-adv-x="401" 
d="M268 219q-25 0 -44.5 9.5t-39 18t-47.5 8.5q-21 0 -34 -8t-21 -16.5t-16 -8.5q-4 0 -8 3t-6 8t-2 10q0 12 9 21.5t23 17t29 11.5t28 4q25 0 44.5 -8.5t39.5 -18t45 -9.5q23 0 34.5 8t18 15.5t14.5 7.5q6 0 9.5 -3t5.5 -7t2 -9q0 -14 -8.5 -23.5t-22 -16.5t-28 -10.5
t-25.5 -3.5z" />
    <glyph glyph-name="uni00A0" unicode="&#xa0;" horiz-adv-x="200" 
 />
    <glyph glyph-name="exclamdown" unicode="&#xa1;" horiz-adv-x="197" 
d="M98 -6q-13 0 -22 9t-9 25q0 87 3 178t5.5 182t2.5 178q0 9 7 14t13 5q7 0 14 -5t7 -14q0 -87 3 -178t5.5 -182t2.5 -178q0 -16 -9.5 -25t-22.5 -9zM99 664q-18 0 -29.5 12t-11.5 29q0 16 11.5 28.5t29.5 12.5q16 0 28 -12.5t12 -28.5q0 -17 -12 -29t-28 -12z" />
    <glyph glyph-name="cent" unicode="&#xa2;" horiz-adv-x="411" 
d="M208 40q-8 0 -14.5 6t-6.5 14v114q-75 11 -111.5 61.5t-36.5 121.5v19q0 47 15.5 85.5t48.5 64t84 33.5v115q0 9 6.5 14.5t14.5 5.5t14.5 -5.5t6.5 -14.5v-113q37 0 69 -9t51 -22.5t19 -28.5q0 -6 -4 -12t-9 -9t-11 -3q-9 0 -20 9.5t-33 19t-62 10.5v-298q41 0 62.5 10
t32.5 19.5t20 9.5q10 0 17 -7.5t7 -16.5q0 -16 -20 -29.5t-52 -22.5t-67 -9v-112q0 -8 -6.5 -14t-14.5 -6zM187 221v291q-51 -10 -76 -45.5t-25 -90.5v-19q0 -55 25 -90.5t76 -45.5z" />
    <glyph glyph-name="sterling" unicode="&#xa3;" horiz-adv-x="473" 
d="M46 0q-11 0 -16.5 7.5t-5.5 16.5t5.5 16.5t16.5 7.5h61l44 319h-81q-8 0 -13.5 6.5t-5.5 14.5q0 10 5.5 16.5t13.5 6.5h88l25 174q7 50 37.5 91.5t76.5 66.5t96 25h16q12 0 17.5 -7.5t5.5 -16.5q0 -8 -5.5 -15.5t-17.5 -7.5h-21q-39 0 -73 -19.5t-56 -50.5t-27 -66
l-25 -174h156q9 0 14 -7t5 -16q0 -7 -5 -14t-14 -7h-163l-45 -319h258q10 0 14.5 -7.5t4.5 -16.5t-4.5 -16.5t-14.5 -7.5h-367z" />
    <glyph glyph-name="currency" unicode="&#xa4;" horiz-adv-x="483" 
d="M243 290q-33 0 -62 12.5t-53 33.5l-32 -31q-5 -5 -12 -5q-8 0 -13.5 5.5t-5.5 12.5t5 12l33 33q-17 23 -27 50.5t-10 58.5q0 30 10 58t26 50l-26 27q-5 5 -5 13t6 13t14 5q7 0 12 -5l25 -25q23 20 52.5 32t62.5 12q31 0 59 -10.5t51 -29.5l27 27q6 5 14 5q7 0 12.5 -5.5
t5.5 -12.5q0 -8 -5 -13l-28 -28q20 -23 31 -52t11 -61q0 -31 -11.5 -60t-31.5 -53l29 -29q5 -7 5 -12q0 -6 -5.5 -12t-12.5 -6q-8 0 -13 5l-28 27q-23 -19 -51 -30.5t-59 -11.5zM243 333q38 0 68 20t48.5 51.5t18.5 67.5q0 35 -18 66t-48.5 51t-68.5 20t-68 -19.5t-48 -51
t-18 -66.5q0 -36 18 -67.5t48.5 -51.5t67.5 -20z" />
    <glyph glyph-name="yen" unicode="&#xa5;" horiz-adv-x="492" 
d="M243 0q-10 0 -17.5 6t-7.5 15v170h-119q-9 0 -15 6t-6 15q0 10 6 16t15 6h119v76h-119q-9 0 -15 6t-6 15q0 10 6 16t15 6h107l-177 348q-2 2 -2.5 4t-0.5 4q0 6 3.5 11t10 8.5t13.5 3.5q6 0 11 -3.5t9 -9.5l170 -335l178 335q4 6 9 9.5t11 3.5q7 0 12.5 -3t9 -8t3.5 -12
q0 -5 -1 -8l-186 -348h113q9 0 15.5 -6t6.5 -16q0 -9 -6.5 -15t-15.5 -6h-125v-76h125q9 0 15.5 -6t6.5 -16q0 -9 -6.5 -15t-15.5 -6h-125v-170q0 -9 -7 -15t-17 -6z" />
    <glyph glyph-name="brokenbar" unicode="&#xa6;" horiz-adv-x="194" 
d="M97 450q-10 0 -17.5 6t-7.5 14v278q0 8 7.5 14t17.5 6t17.5 -6t7.5 -14v-278q0 -8 -7.5 -14t-17.5 -6zM97 -21q-10 0 -17.5 6t-7.5 15v277q0 8 7.5 14t17.5 6t17.5 -6t7.5 -14v-277q0 -9 -7.5 -15t-17.5 -6z" />
    <glyph glyph-name="section" unicode="&#xa7;" horiz-adv-x="464" 
d="M231 -66q-55 0 -96 22.5t-63 60t-22 82.5q0 14 7.5 19.5t17.5 5.5q12 0 17 -6.5t5 -14.5q0 -15 6 -36.5t19 -41t38 -32.5t65 -13q64 0 99 34.5t35 98.5q0 38 -16 60.5t-42 36.5t-57 24t-62.5 21.5t-57.5 30t-42 49.5t-16 80v129q0 57 16 93.5t41.5 57t54.5 28.5t56 8
q52 0 87 -20.5t52 -56.5t17 -82q0 -16 -7 -21.5t-16 -5.5q-11 0 -17.5 6.5t-6.5 21.5q0 20 -8.5 46.5t-31.5 46t-67 19.5q-28 0 -56.5 -12.5t-46.5 -42.5t-18 -82q0 -38 15.5 -61t42 -37t58 -24t62.5 -22t57.5 -30t42.5 -49.5t16 -79.5v-127q0 -49 -14 -84t-39 -57.5
t-57 -32.5t-68 -10zM362 214v32q0 44 -18.5 70t-48 40.5t-64 25t-65.5 24t-53 38.5v-31q0 -45 18.5 -71t48 -40.5t64 -25t66 -24t52.5 -38.5z" />
    <glyph glyph-name="dieresis" unicode="&#xa8;" horiz-adv-x="182" 
d="M150 597q-14 0 -23.5 9.5t-9.5 23.5t9.5 23t23.5 9t23 -9t9 -23t-9 -23.5t-23 -9.5zM33 597q-14 0 -23.5 9.5t-9.5 23.5t9.5 23t23.5 9t23 -9t9 -23t-9 -23.5t-23 -9.5z" />
    <glyph glyph-name="copyright" unicode="&#xa9;" horiz-adv-x="722" 
d="M358 35q-53 0 -106.5 20t-98.5 60t-72 101t-27 142q0 84 28.5 145.5t74.5 101.5t100.5 60t106.5 20q53 0 106.5 -20t98.5 -60t72 -101t27 -142q0 -84 -28.5 -145.5t-74.5 -101.5t-100.5 -60t-106.5 -20zM358 74q79 0 140 36.5t96 101.5t35 150q0 83 -33 147t-92.5 100.5
t-139.5 36.5q-78 0 -139.5 -36.5t-96.5 -101t-35 -150.5q0 -82 33 -146.5t93 -101t139 -36.5zM361 168q-41 0 -70.5 26.5t-29.5 90.5v163q0 64 30 91t71 27q48 0 75 -27.5t27 -66.5q0 -14 -4.5 -19t-16.5 -5q-9 0 -14.5 4.5t-5.5 11.5q0 11 -4.5 26t-17 26t-38.5 11
q-61 0 -61 -79v-163q0 -79 62 -79q26 0 37.5 11.5t16 26.5t5.5 28q1 8 6 11.5t14 3.5q12 0 16.5 -5t4.5 -19q0 -39 -27.5 -67t-75.5 -28z" />
    <glyph glyph-name="ordfeminine" unicode="&#xaa;" horiz-adv-x="310" 
d="M131 432q-6 0 -13 -0.5t-13 0.5q-28 5 -48 24t-20 57q0 51 41 68.5t106 17.5h31v15q0 30 -16.5 57t-56.5 27q-21 0 -34 -5t-20.5 -9.5t-12.5 -4.5q-8 0 -12.5 7.5t-4.5 15.5q0 9 13 16.5t33 12t39 4.5q43 0 68 -17t36 -45t11 -59v-162q0 -7 -6 -12t-15 -5t-15 5t-6 12v26
q-14 -17 -35.5 -30.5t-49.5 -15.5zM133 466q20 0 39 10.5t31 26t12 29.5v38h-30q-26 0 -50.5 -3.5t-39.5 -14.5t-15 -35q0 -27 15.5 -39t37.5 -12z" />
    <glyph glyph-name="guillemotleft" unicode="&#xab;" horiz-adv-x="382" 
d="M314 74q-12 0 -18 10l-92 171q-4 6 -6 11.5t-2 10.5q0 6 2 11t6 11l92 172q6 10 20 10q8 0 13.5 -4t9 -9t3.5 -11q0 -5 -3 -10l-92 -170l92 -169q3 -5 3 -10q0 -6 -4 -11.5t-10 -9t-14 -3.5zM156 74q-12 0 -18 10l-93 171q-3 6 -5 11.5t-2 10.5q0 6 2 11t5 11l93 172
q6 10 20 10q7 0 13 -4t9.5 -9t3.5 -11q0 -5 -3 -10l-92 -170l92 -169q3 -5 3 -10q0 -6 -4 -11.5t-10 -9t-14 -3.5z" />
    <glyph glyph-name="logicalnot" unicode="&#xac;" horiz-adv-x="482" 
d="M388 163q-10 0 -17 6t-7 15v134h-287q-8 0 -14 6.5t-6 15.5q0 10 6 16.5t14 6.5h314q8 0 15 -6.5t7 -16.5v-156q0 -9 -7 -15t-18 -6z" />
    <glyph glyph-name="uni00AD" unicode="&#xad;" horiz-adv-x="457" 
d="M68 218q-8 0 -14 6.5t-6 15.5q0 10 6 16.5t14 6.5h320q9 0 15.5 -6.5t6.5 -16.5q0 -9 -6.5 -15.5t-15.5 -6.5h-320z" />
    <glyph glyph-name="registered" unicode="&#xae;" horiz-adv-x="722" 
d="M358 35q-53 0 -106.5 20t-98.5 60t-72 101t-27 142q0 84 28.5 145.5t74.5 101.5t100.5 60t106.5 20q53 0 106.5 -20t98.5 -60t72 -101t27 -142q0 -84 -28.5 -145.5t-74.5 -101.5t-100.5 -60t-106.5 -20zM358 74q79 0 140 36.5t96 101.5t35 150q0 83 -33 147t-92.5 100.5
t-139.5 36.5q-78 0 -139.5 -36.5t-96.5 -101t-35 -150.5q0 -82 33 -146.5t93 -101t139 -36.5zM451 170q-7 0 -11 5.5t-7 12.5l-72 158h-51v-160q0 -8 -6 -11.5t-14 -3.5t-14 3.5t-6 11.5v361q0 5 3.5 9.5t10.5 5.5h86q28 0 51.5 -10t37.5 -33t14 -64q0 -49 -19.5 -73
t-49.5 -31l68 -153q2 -5 2 -7q0 -8 -7.5 -14.5t-15.5 -6.5zM310 381h60q28 0 45.5 16.5t17.5 54.5q0 40 -17.5 56t-45.5 16h-60v-143z" />
    <glyph glyph-name="uni0304" unicode="&#xaf;" 
d="M20 642q-8 0 -14 6t-6 14q0 10 6 16t14 6h218q8 0 15 -6t7 -16q0 -8 -7 -14t-15 -6h-218z" />
    <glyph glyph-name="degree" unicode="&#xb0;" horiz-adv-x="424" 
d="M212 406q-47 0 -87.5 25.5t-65 67t-24.5 89.5t24 89t64.5 66t88.5 25t88.5 -24.5t65 -65t24.5 -90.5q0 -47 -24.5 -89t-65 -67.5t-88.5 -25.5zM212 449q37 0 67.5 20t49 51.5t18.5 67.5q0 35 -18 66t-49 51t-68 20q-38 0 -68.5 -20t-48 -51t-17.5 -66q0 -36 17.5 -67.5
t48.5 -51.5t68 -20z" />
    <glyph glyph-name="plusminus" unicode="&#xb1;" horiz-adv-x="477" 
d="M239 169q-10 0 -17 6t-7 15v136h-137q-9 0 -15 6.5t-6 15.5q0 11 6 17.5t15 6.5h137v135q0 9 7 15.5t17 6.5t16 -6.5t6 -15.5v-135h137q8 0 14.5 -6.5t6.5 -17.5q0 -9 -6.5 -15.5t-14.5 -6.5h-137v-136q0 -9 -6 -15t-16 -6zM78 63q-9 0 -15 6.5t-6 15.5q0 10 6 16.5
t15 6.5h320q8 0 14.5 -6.5t6.5 -16.5q0 -9 -6.5 -15.5t-14.5 -6.5h-320z" />
    <glyph glyph-name="uni00B2" unicode="&#xb2;" horiz-adv-x="302" 
d="M54 360q-6 0 -12.5 4t-6.5 11v49q0 25 19 45t47.5 39t57 37.5t47.5 39t19 45.5q0 23 -18 42.5t-56 19.5q-29 0 -47.5 -13.5t-18.5 -42.5q0 -5 -6 -10.5t-16 -5.5q-8 0 -13.5 5.5t-5.5 18.5q0 26 14 45.5t39 30.5t55 11q33 0 58.5 -13t40 -35.5t14.5 -50.5
q0 -33 -18.5 -57.5t-46.5 -44t-56.5 -36.5t-47.5 -33.5t-19 -36.5v-26h178q6 0 10.5 -5.5t4.5 -13.5q0 -7 -4.5 -13t-10.5 -6h-201z" />
    <glyph glyph-name="uni00B3" unicode="&#xb3;" horiz-adv-x="309" 
d="M150 357q-40 0 -66.5 13.5t-39 33t-12.5 39.5q0 12 4.5 15.5t14.5 3.5q13 0 17 -4.5t4 -11.5q0 -10 7.5 -22t24 -20.5t46.5 -8.5q39 0 59 17t20 54v9q0 34 -21 48t-58 14q-8 0 -11.5 5.5t-3.5 11.5q0 7 3.5 12.5t11.5 5.5q33 0 50.5 12.5t17.5 48.5q0 31 -16 46t-50 15
q-28 0 -43 -8t-21 -19.5t-6 -22.5q0 -8 -4.5 -13t-14.5 -5q-13 0 -17 4.5t-4 16.5q0 16 9 35.5t33 34t69 14.5q47 0 76 -20t29 -70q0 -33 -12.5 -55t-33.5 -30q26 -9 42 -28.5t16 -52.5v-9q0 -39 -16 -63.5t-43 -35t-61 -10.5z" />
    <glyph glyph-name="acute" unicode="&#xb4;" horiz-adv-x="143" 
d="M22 596q-8 0 -15 7t-7 16q0 11 9 15l107 61q4 2 8 2q9 0 14 -7t5 -16q0 -13 -11 -19l-100 -56q-2 -1 -5 -2t-5 -1z" />
    <glyph glyph-name="uni03BC" unicode="&#xb5;" horiz-adv-x="483" 
d="M98 -235q-10 0 -17 6.5t-7 14.5v665q0 8 7 14.5t17 6.5q11 0 18 -6.5t7 -14.5v-295q0 -16 11 -36t30.5 -38t43.5 -30t51 -12q34 0 63 20t46.5 51.5t17.5 65.5v274q0 10 8 15.5t16 5.5q11 0 18 -5.5t7 -15.5v-274q0 -50 -23.5 -91.5t-64 -66.5t-90.5 -25q-47 0 -83 21.5
t-53 48.5v-278q0 -8 -6.5 -14.5t-16.5 -6.5z" />
    <glyph glyph-name="paragraph" unicode="&#xb6;" horiz-adv-x="519" 
d="M298 0q-8 0 -14.5 5.5t-6.5 15.5v285h-45q-55 0 -99.5 20.5t-70.5 66t-26 120.5v12q0 75 26 120t70.5 65.5t99.5 20.5h185q9 0 15.5 -5.5t6.5 -15.5v-690q0 -10 -6.5 -15t-15.5 -5q-8 0 -14.5 5t-6.5 15v672h-76v-671q0 -10 -7 -15.5t-15 -5.5z" />
    <glyph glyph-name="periodcentered" unicode="&#xb7;" horiz-adv-x="180" 
d="M91 260q-18 0 -29.5 12t-11.5 28q0 17 11.5 28.5t29.5 11.5q16 0 28 -11.5t12 -28.5q0 -16 -12 -28t-28 -12z" />
    <glyph glyph-name="cedilla" unicode="&#xb8;" horiz-adv-x="161" 
d="M76 -208q-13 0 -31 2.5t-31.5 8t-13.5 13.5q0 4 2 9t5 8.5t7 3.5q5 0 18 -6.5t38 -6.5q30 0 42 12t12 28q0 22 -18 32t-49 12l-33 2l25 99h35l-18 -72q51 -1 73 -22.5t22 -48.5q0 -18 -9.5 -35t-28.5 -28t-47 -11z" />
    <glyph glyph-name="uni00B9" unicode="&#xb9;" horiz-adv-x="163" 
d="M90 360q-8 0 -14.5 3.5t-6.5 11.5v293l-22 -28q-4 -6 -11 -6q-6 0 -11 5.5t-5 11.5q0 5 3.5 10t5.5 7l49 57q6 6 15 6q6 0 11.5 -4t5.5 -11v-341q0 -8 -6 -11.5t-14 -3.5z" />
    <glyph glyph-name="ordmasculine" unicode="&#xba;" horiz-adv-x="323" 
d="M162 430q-33 0 -60 17t-44 44.5t-17 57.5v68q0 32 16.5 58.5t44 43t60.5 16.5q32 0 59.5 -16t44 -42.5t16.5 -59.5v-68q0 -30 -16.5 -57.5t-44 -44.5t-59.5 -17zM162 470q31 0 53.5 25t22.5 55v67q0 30 -22 54t-54 24q-33 0 -55 -24t-22 -54v-67q0 -30 22 -55t55 -25z
" />
    <glyph glyph-name="guillemotright" unicode="&#xbb;" horiz-adv-x="382" 
d="M225 74q-6 0 -12.5 3.5t-10.5 9t-4 11.5q0 5 3 10l92 169l-92 170q-3 5 -3 10q0 6 3.5 11t9.5 9t13 4q15 0 19 -10l93 -172l5.5 -11t2.5 -11q0 -5 -2.5 -10.5t-5.5 -11.5l-93 -171q-5 -10 -18 -10zM67 74q-6 0 -13 3.5t-10.5 9t-3.5 11.5q0 5 3 10l92 169l-92 170
q-3 5 -3 10q0 6 3.5 11t9.5 9t12 4q16 0 20 -10l93 -172l5.5 -11t2.5 -11q0 -5 -2.5 -10.5t-5.5 -11.5l-93 -171q-5 -10 -18 -10z" />
    <glyph glyph-name="onequarter" unicode="&#xbc;" horiz-adv-x="581" 
d="M90 360q-8 0 -14.5 3.5t-6.5 11.5v293l-22 -28q-4 -6 -11 -6q-6 0 -11 5.5t-5 11.5q0 5 3.5 10t5.5 7l49 57q6 6 15 6q6 0 11.5 -4t5.5 -11v-341q0 -8 -6 -11.5t-14 -3.5zM42 -23q-8 0 -14 5.5t-6 13.5q0 7 2 11l386 751q5 10 17 10q7 0 14.5 -6.5t7.5 -15.5q0 -6 -3 -12
l-384 -744q-3 -7 -8.5 -10t-11.5 -3zM495 0q-7 0 -13 3.5t-6 11.5v71h-144q-7 0 -11 4.5t-4 11.5q0 3 2 9l141 247q3 6 8.5 9.5t10.5 3.5q7 0 14 -4.5t7 -12.5q0 -3 -3 -7l-127 -222h106v87q0 7 6 10.5t13 3.5q9 0 15 -3.5t6 -10.5v-87h31q8 0 12 -6t4 -14q0 -7 -5 -13
t-11 -6h-31v-71q0 -8 -6 -11.5t-15 -3.5z" />
    <glyph glyph-name="onehalf" unicode="&#xbd;" horiz-adv-x="603" 
d="M90 360q-8 0 -14.5 3.5t-6.5 11.5v293l-22 -28q-4 -6 -11 -6q-6 0 -11 5.5t-5 11.5q0 5 3.5 10t5.5 7l49 57q6 6 15 6q6 0 11.5 -4t5.5 -11v-341q0 -8 -6 -11.5t-14 -3.5zM42 -23q-8 0 -14 5.5t-6 13.5q0 7 2 11l386 751q5 10 17 10q7 0 14.5 -6.5t7.5 -15.5q0 -6 -3 -12
l-384 -744q-3 -7 -8.5 -10t-11.5 -3zM355 0q-6 0 -12.5 4t-6.5 11v49q0 25 19 45t47.5 39t57 37.5t47.5 39t19 45.5q0 23 -18 42.5t-56 19.5q-29 0 -47.5 -13.5t-18.5 -42.5q0 -5 -6 -10.5t-16 -5.5q-8 0 -13.5 5.5t-5.5 18.5q0 26 14 45.5t39 30.5t55 11q33 0 58.5 -13
t40 -35.5t14.5 -50.5q0 -33 -18.5 -57.5t-46.5 -44t-56.5 -36.5t-47.5 -33.5t-19 -36.5v-26h178q6 0 10.5 -5.5t4.5 -13.5q0 -7 -4.5 -13t-10.5 -6h-201z" />
    <glyph glyph-name="threequarters" unicode="&#xbe;" horiz-adv-x="728" 
d="M150 357q-40 0 -66.5 13.5t-39 33t-12.5 39.5q0 12 4.5 15.5t14.5 3.5q13 0 17 -4.5t4 -11.5q0 -10 7.5 -22t24 -20.5t46.5 -8.5q39 0 59 17t20 54v9q0 34 -21 48t-58 14q-8 0 -11.5 5.5t-3.5 11.5q0 7 3.5 12.5t11.5 5.5q33 0 50.5 12.5t17.5 48.5q0 31 -16 46t-50 15
q-28 0 -43 -8t-21 -19.5t-6 -22.5q0 -8 -4.5 -13t-14.5 -5q-13 0 -17 4.5t-4 16.5q0 16 9 35.5t33 34t69 14.5q47 0 76 -20t29 -70q0 -33 -12.5 -55t-33.5 -30q26 -9 42 -28.5t16 -52.5v-9q0 -39 -16 -63.5t-43 -35t-61 -10.5zM188 -23q-8 0 -14 5.5t-6 13.5q0 7 2 11
l386 751q5 10 17 10q7 0 14.5 -6.5t7.5 -15.5q0 -6 -3 -12l-384 -744q-3 -7 -8.5 -10t-11.5 -3zM641 0q-7 0 -13 3.5t-6 11.5v71h-144q-7 0 -11 4.5t-4 11.5q0 3 2 9l141 247q3 6 8.5 9.5t10.5 3.5q7 0 14 -4.5t7 -12.5q0 -3 -3 -7l-127 -222h106v87q0 7 6 10.5t13 3.5
q9 0 15 -3.5t6 -10.5v-87h31q8 0 12 -6t4 -14q0 -7 -5 -13t-11 -6h-31v-71q0 -8 -6 -11.5t-15 -3.5z" />
    <glyph glyph-name="questiondown" unicode="&#xbf;" horiz-adv-x="391" 
d="M221 -6q-62 0 -103 24t-61.5 65t-20.5 91q0 49 16 85t39 63t45.5 48t37.5 38q15 18 21 39t7.5 50t1.5 68q0 10 6 15t16 5q9 0 15 -5t6 -18q0 -58 -4.5 -92t-13 -53t-20.5 -33q-16 -18 -37.5 -37t-42 -42.5t-34 -54.5t-13.5 -73q0 -64 36 -101.5t107 -37.5q32 0 52.5 6.5
t33 15.5t21 16t15.5 7t13.5 -6t6.5 -16q0 -14 -20 -29.5t-53 -26.5t-73 -11zM226 664q-16 0 -28 12t-12 29q0 16 11.5 28.5t28.5 12.5q18 0 29.5 -12.5t11.5 -28.5q0 -17 -12 -29t-29 -12z" />
    <glyph glyph-name="Agrave" unicode="&#xc0;" horiz-adv-x="529" 
d="M50 0q-6 0 -12.5 3t-10.5 7.5t-4 11.5q0 3 1 6l213 691q3 10 11 14t17 4t17.5 -4.5t11.5 -13.5l211 -691q1 -3 1 -6q0 -5 -4.5 -10.5t-11 -8.5t-13.5 -3t-12.5 3.5t-7.5 11.5l-49 159h-288l-48 -159q-2 -8 -8 -11.5t-14 -3.5zM134 220h260l-129 427zM311 853q-2 0 -4.5 1
t-5.5 2l-100 56q-11 6 -11 19q0 9 5.5 16t14.5 7q3 0 7 -2l107 -61q9 -4 9 -15q0 -9 -6 -16t-16 -7z" />
    <glyph glyph-name="Aacute" unicode="&#xc1;" horiz-adv-x="529" 
d="M50 0q-6 0 -12.5 3t-10.5 7.5t-4 11.5q0 3 1 6l213 691q3 10 11 14t17 4t17.5 -4.5t11.5 -13.5l211 -691q1 -3 1 -6q0 -5 -4.5 -10.5t-11 -8.5t-13.5 -3t-12.5 3.5t-7.5 11.5l-49 159h-288l-48 -159q-2 -8 -8 -11.5t-14 -3.5zM134 220h260l-129 427zM219 853q-8 0 -15 7
t-7 16q0 11 9 15l107 61q4 2 8 2q9 0 14 -7t5 -16q0 -13 -11 -19l-100 -56q-2 -1 -5 -2t-5 -1z" />
    <glyph glyph-name="Acircumflex" unicode="&#xc2;" horiz-adv-x="529" 
d="M50 0q-6 0 -12.5 3t-10.5 7.5t-4 11.5q0 3 1 6l213 691q3 10 11 14t17 4t17.5 -4.5t11.5 -13.5l211 -691q1 -3 1 -6q0 -5 -4.5 -10.5t-11 -8.5t-13.5 -3t-12.5 3.5t-7.5 11.5l-49 159h-288l-48 -159q-2 -8 -8 -11.5t-14 -3.5zM134 220h260l-129 427zM153 853
q-8 0 -14 6.5t-6 16.5q0 5 3 9.5t8 7.5l104 56q8 5 17 5t17 -5l104 -55q6 -3 8.5 -8.5t2.5 -11.5q0 -8 -5.5 -14t-13.5 -6q-2 0 -4.5 1t-4.5 2l-104 55l-104 -56l-4 -2t-4 -1z" />
    <glyph glyph-name="Atilde" unicode="&#xc3;" horiz-adv-x="529" 
d="M50 0q-6 0 -12.5 3t-10.5 7.5t-4 11.5q0 3 1 6l213 691q3 10 11 14t17 4t17.5 -4.5t11.5 -13.5l211 -691q1 -3 1 -6q0 -5 -4.5 -10.5t-11 -8.5t-13.5 -3t-12.5 3.5t-7.5 11.5l-49 159h-288l-48 -159q-2 -8 -8 -11.5t-14 -3.5zM134 220h260l-129 427zM331 871
q-25 0 -44.5 9.5t-39.5 18t-47 8.5q-21 0 -34.5 -8t-21.5 -16.5t-15 -8.5q-4 0 -8 3t-6 8t-2 10q0 12 8.5 21.5t23 17t29.5 11.5t28 4q25 0 44.5 -8.5t39.5 -18t45 -9.5q23 0 34 8t18 15.5t15 7.5q6 0 9.5 -3t5.5 -7t2 -9q0 -14 -8.5 -23.5t-22 -16.5t-28 -10.5t-25.5 -3.5z
" />
    <glyph glyph-name="Adieresis" unicode="&#xc4;" horiz-adv-x="529" 
d="M50 0q-6 0 -12.5 3t-10.5 7.5t-4 11.5q0 3 1 6l213 691q3 10 11 14t17 4t17.5 -4.5t11.5 -13.5l211 -691q1 -3 1 -6q0 -5 -4.5 -10.5t-11 -8.5t-13.5 -3t-12.5 3.5t-7.5 11.5l-49 159h-288l-48 -159q-2 -8 -8 -11.5t-14 -3.5zM134 220h260l-129 427zM324 854
q-14 0 -23.5 9.5t-9.5 23.5t9.5 23t23.5 9t23 -9t9 -23t-9 -23.5t-23 -9.5zM207 854q-14 0 -23.5 9.5t-9.5 23.5t9.5 23t23.5 9t23 -9t9 -23t-9 -23.5t-23 -9.5z" />
    <glyph glyph-name="Aring" unicode="&#xc5;" horiz-adv-x="529" 
d="M50 0q-6 0 -12.5 3t-10.5 7.5t-4 11.5q0 3 1 6l213 691q3 10 11 14t17 4t17.5 -4.5t11.5 -13.5l211 -691q1 -3 1 -6q0 -5 -4.5 -10.5t-11 -8.5t-13.5 -3t-12.5 3.5t-7.5 11.5l-49 159h-288l-48 -159q-2 -8 -8 -11.5t-14 -3.5zM134 220h260l-129 427zM265 838
q-25 0 -46 13t-33 35t-12 46t12 45t33 34t46 13q24 0 45 -12.5t33.5 -34t12.5 -45.5t-12.5 -46t-33.5 -35t-45 -13zM265 865q25 0 43.5 21t18.5 46q0 22 -18.5 42t-43.5 20q-27 0 -45 -20t-18 -42q0 -25 18.5 -46t44.5 -21z" />
    <glyph glyph-name="AE" unicode="&#xc6;" horiz-adv-x="696" 
d="M100 0q-14 0 -19 7.5t-5 18.5v496q0 76 26.5 121.5t72 66.5t101.5 21h373q11 0 16 -7.5t5 -15.5q0 -9 -5.5 -17t-15.5 -8h-236v-294h154q10 0 15.5 -7t5.5 -17q0 -8 -5 -15t-16 -7h-154v-295h236q10 0 15.5 -7.5t5.5 -17.5q0 -8 -5 -15.5t-16 -7.5h-262q-9 0 -16.5 5.5
t-7.5 15.5v322h-238v-317q0 -11 -4.5 -18.5t-20.5 -7.5zM125 389h238v294h-87q-71 0 -111 -39.5t-40 -121.5v-133z" />
    <glyph glyph-name="Ccedilla" unicode="&#xc7;" horiz-adv-x="518" 
d="M274 -6q-55 0 -101 21t-73 66.5t-27 121.5v319q0 76 28 121.5t74 66.5t101 21q65 0 109 -23t67 -60t23 -79q0 -20 -6 -26.5t-19 -6.5q-15 0 -20 7t-5 14q-1 17 -7 38.5t-21.5 41.5t-44.5 33t-76 13q-75 0 -114.5 -39.5t-39.5 -121.5v-319q0 -83 40 -122t118 -39
q47 0 75 12.5t42 32t19.5 42t8.5 40.5q1 9 6.5 15t18.5 6t19 -7t6 -27q0 -41 -23 -78.5t-68 -60.5t-110 -23zM304 -208q-13 0 -31 2.5t-31.5 8t-13.5 13.5q0 4 2 9t5 8.5t7 3.5q5 0 18 -6.5t38 -6.5q30 0 42 12t12 28q0 22 -18 32t-49 12l-33 2l25 99h35l-18 -72
q51 -1 73 -22.5t22 -48.5q0 -18 -9.5 -35t-28.5 -28t-47 -11z" />
    <glyph glyph-name="Egrave" unicode="&#xc8;" horiz-adv-x="503" 
d="M103 0q-9 0 -16 5.5t-7 15.5v689q0 10 7 15.5t16 5.5h356q11 0 16 -7.5t5 -15.5q0 -9 -5.5 -17t-15.5 -8h-329v-294h158q10 0 15.5 -7t5.5 -17q0 -8 -5 -15t-16 -7h-158v-295h329q10 0 15.5 -7.5t5.5 -17.5q0 -8 -5 -15.5t-16 -7.5h-356zM326 853q-2 0 -4.5 1t-5.5 2
l-100 56q-11 6 -11 19q0 9 5.5 16t14.5 7q3 0 7 -2l107 -61q9 -4 9 -15q0 -9 -6 -16t-16 -7z" />
    <glyph glyph-name="Eacute" unicode="&#xc9;" horiz-adv-x="503" 
d="M103 0q-9 0 -16 5.5t-7 15.5v689q0 10 7 15.5t16 5.5h356q11 0 16 -7.5t5 -15.5q0 -9 -5.5 -17t-15.5 -8h-329v-294h158q10 0 15.5 -7t5.5 -17q0 -8 -5 -15t-16 -7h-158v-295h329q10 0 15.5 -7.5t5.5 -17.5q0 -8 -5 -15.5t-16 -7.5h-356zM234 853q-8 0 -15 7t-7 16
q0 11 9 15l107 61q4 2 8 2q9 0 14 -7t5 -16q0 -13 -11 -19l-100 -56q-2 -1 -5 -2t-5 -1z" />
    <glyph glyph-name="Ecircumflex" unicode="&#xca;" horiz-adv-x="503" 
d="M103 0q-9 0 -16 5.5t-7 15.5v689q0 10 7 15.5t16 5.5h356q11 0 16 -7.5t5 -15.5q0 -9 -5.5 -17t-15.5 -8h-329v-294h158q10 0 15.5 -7t5.5 -17q0 -8 -5 -15t-16 -7h-158v-295h329q10 0 15.5 -7.5t5.5 -17.5q0 -8 -5 -15.5t-16 -7.5h-356zM168 853q-8 0 -14 6.5t-6 16.5
q0 5 3 9.5t8 7.5l104 56q8 5 17 5t17 -5l104 -55q6 -3 8.5 -8.5t2.5 -11.5q0 -8 -5.5 -14t-13.5 -6q-2 0 -4.5 1t-4.5 2l-104 55l-104 -56l-4 -2t-4 -1z" />
    <glyph glyph-name="Edieresis" unicode="&#xcb;" horiz-adv-x="503" 
d="M103 0q-9 0 -16 5.5t-7 15.5v689q0 10 7 15.5t16 5.5h356q11 0 16 -7.5t5 -15.5q0 -9 -5.5 -17t-15.5 -8h-329v-294h158q10 0 15.5 -7t5.5 -17q0 -8 -5 -15t-16 -7h-158v-295h329q10 0 15.5 -7.5t5.5 -17.5q0 -8 -5 -15.5t-16 -7.5h-356zM339 854q-14 0 -23.5 9.5
t-9.5 23.5t9.5 23t23.5 9t23 -9t9 -23t-9 -23.5t-23 -9.5zM222 854q-14 0 -23.5 9.5t-9.5 23.5t9.5 23t23.5 9t23 -9t9 -23t-9 -23.5t-23 -9.5z" />
    <glyph glyph-name="Igrave" unicode="&#xcc;" horiz-adv-x="209" 
d="M105 0q-10 0 -17.5 5.5t-7.5 15.5v690q0 10 7.5 15t17.5 5q9 0 17 -5t8 -15v-690q0 -10 -8 -15.5t-17 -5.5zM150 853q-2 0 -4.5 1t-5.5 2l-100 56q-11 6 -11 19q0 9 5.5 16t14.5 7q3 0 7 -2l107 -61q9 -4 9 -15q0 -9 -6 -16t-16 -7z" />
    <glyph glyph-name="Iacute" unicode="&#xcd;" horiz-adv-x="209" 
d="M105 0q-10 0 -17.5 5.5t-7.5 15.5v690q0 10 7.5 15t17.5 5q9 0 17 -5t8 -15v-690q0 -10 -8 -15.5t-17 -5.5zM59 853q-8 0 -15 7t-7 16q0 11 9 15l107 61q4 2 8 2q9 0 14 -7t5 -16q0 -13 -11 -19l-100 -56q-2 -1 -5 -2t-5 -1z" />
    <glyph glyph-name="Icircumflex" unicode="&#xce;" horiz-adv-x="209" 
d="M105 0q-10 0 -17.5 5.5t-7.5 15.5v690q0 10 7.5 15t17.5 5q9 0 17 -5t8 -15v-690q0 -10 -8 -15.5t-17 -5.5zM-7 853q-8 0 -14 6.5t-6 16.5q0 5 3 9.5t8 7.5l104 56q8 5 17 5t17 -5l104 -55q6 -3 8.5 -8.5t2.5 -11.5q0 -8 -5.5 -14t-13.5 -6q-2 0 -4.5 1t-4.5 2l-104 55
l-104 -56l-4 -2t-4 -1z" />
    <glyph glyph-name="Idieresis" unicode="&#xcf;" horiz-adv-x="209" 
d="M105 0q-10 0 -17.5 5.5t-7.5 15.5v690q0 10 7.5 15t17.5 5q9 0 17 -5t8 -15v-690q0 -10 -8 -15.5t-17 -5.5zM163 854q-14 0 -23.5 9.5t-9.5 23.5t9.5 23t23.5 9t23 -9t9 -23t-9 -23.5t-23 -9.5zM46 854q-14 0 -23.5 9.5t-9.5 23.5t9.5 23t23.5 9t23 -9t9 -23t-9 -23.5
t-23 -9.5z" />
    <glyph glyph-name="Eth" unicode="&#xd0;" horiz-adv-x="564" 
d="M113 0q-11 0 -17.5 6t-6.5 14v342h-68q-8 0 -14 6.5t-6 15.5t6 15.5t14 6.5h68v305q0 8 6.5 14t17.5 6h177q57 0 102.5 -21t72.5 -66.5t27 -121.5v-313q0 -76 -27 -121.5t-72.5 -66.5t-102.5 -21h-177zM139 48h151q71 0 111.5 39.5t40.5 121.5v313q0 82 -40.5 121.5
t-111.5 39.5h-151v-277h123q8 0 14 -6.5t6 -15.5t-6 -15.5t-14 -6.5h-123v-314z" />
    <glyph glyph-name="Ntilde" unicode="&#xd1;" horiz-adv-x="564" 
d="M105 0q-10 0 -17.5 5.5t-7.5 15.5v689q0 12 7.5 16.5t17.5 4.5q9 0 16.5 -6.5t13.5 -16t10 -18.5l290 -571v592q0 10 7.5 15t17.5 5q9 0 17 -5t8 -15v-690q0 -10 -8 -15.5t-17 -5.5q-12 0 -21 12.5t-15 24.5l-294 576v-592q0 -10 -8 -15.5t-17 -5.5zM349 871
q-25 0 -44.5 9.5t-39.5 18t-47 8.5q-21 0 -34.5 -8t-21.5 -16.5t-15 -8.5q-4 0 -8 3t-6 8t-2 10q0 12 8.5 21.5t23 17t29.5 11.5t28 4q25 0 44.5 -8.5t39.5 -18t45 -9.5q23 0 34 8t18 15.5t15 7.5q6 0 9.5 -3t5.5 -7t2 -9q0 -14 -8.5 -23.5t-22 -16.5t-28 -10.5t-25.5 -3.5z
" />
    <glyph glyph-name="Ograve" unicode="&#xd2;" horiz-adv-x="548" 
d="M273 -6q-56 0 -101.5 21t-72 66.5t-26.5 121.5v319q0 76 26.5 121.5t72 66.5t101.5 21q57 0 103 -21t72.5 -66.5t26.5 -121.5v-319q0 -76 -26.5 -121.5t-72.5 -66.5t-103 -21zM273 42q71 0 111.5 39.5t40.5 121.5v319q0 82 -40 121.5t-112 39.5q-71 0 -111 -39.5
t-40 -121.5v-319q0 -82 40 -121.5t111 -39.5zM320 853q-2 0 -4.5 1t-5.5 2l-100 56q-11 6 -11 19q0 9 5.5 16t14.5 7q3 0 7 -2l107 -61q9 -4 9 -15q0 -9 -6 -16t-16 -7z" />
    <glyph glyph-name="Oacute" unicode="&#xd3;" horiz-adv-x="548" 
d="M273 -6q-56 0 -101.5 21t-72 66.5t-26.5 121.5v319q0 76 26.5 121.5t72 66.5t101.5 21q57 0 103 -21t72.5 -66.5t26.5 -121.5v-319q0 -76 -26.5 -121.5t-72.5 -66.5t-103 -21zM273 42q71 0 111.5 39.5t40.5 121.5v319q0 82 -40 121.5t-112 39.5q-71 0 -111 -39.5
t-40 -121.5v-319q0 -82 40 -121.5t111 -39.5zM228 853q-8 0 -15 7t-7 16q0 11 9 15l107 61q4 2 8 2q9 0 14 -7t5 -16q0 -13 -11 -19l-100 -56q-2 -1 -5 -2t-5 -1z" />
    <glyph glyph-name="Ocircumflex" unicode="&#xd4;" horiz-adv-x="548" 
d="M273 -6q-56 0 -101.5 21t-72 66.5t-26.5 121.5v319q0 76 26.5 121.5t72 66.5t101.5 21q57 0 103 -21t72.5 -66.5t26.5 -121.5v-319q0 -76 -26.5 -121.5t-72.5 -66.5t-103 -21zM273 42q71 0 111.5 39.5t40.5 121.5v319q0 82 -40 121.5t-112 39.5q-71 0 -111 -39.5
t-40 -121.5v-319q0 -82 40 -121.5t111 -39.5zM162 853q-8 0 -14 6.5t-6 16.5q0 5 3 9.5t8 7.5l104 56q8 5 17 5t17 -5l104 -55q6 -3 8.5 -8.5t2.5 -11.5q0 -8 -5.5 -14t-13.5 -6q-2 0 -4.5 1t-4.5 2l-104 55l-104 -56l-4 -2t-4 -1z" />
    <glyph glyph-name="Otilde" unicode="&#xd5;" horiz-adv-x="548" 
d="M273 -6q-56 0 -101.5 21t-72 66.5t-26.5 121.5v319q0 76 26.5 121.5t72 66.5t101.5 21q57 0 103 -21t72.5 -66.5t26.5 -121.5v-319q0 -76 -26.5 -121.5t-72.5 -66.5t-103 -21zM273 42q71 0 111.5 39.5t40.5 121.5v319q0 82 -40 121.5t-112 39.5q-71 0 -111 -39.5
t-40 -121.5v-319q0 -82 40 -121.5t111 -39.5zM341 871q-25 0 -44.5 9.5t-39.5 18t-47 8.5q-21 0 -34.5 -8t-21.5 -16.5t-15 -8.5q-4 0 -8 3t-6 8t-2 10q0 12 8.5 21.5t23 17t29.5 11.5t28 4q25 0 44.5 -8.5t39.5 -18t45 -9.5q23 0 34 8t18 15.5t15 7.5q6 0 9.5 -3t5.5 -7
t2 -9q0 -14 -8.5 -23.5t-22 -16.5t-28 -10.5t-25.5 -3.5z" />
    <glyph glyph-name="Odieresis" unicode="&#xd6;" horiz-adv-x="548" 
d="M273 -6q-56 0 -101.5 21t-72 66.5t-26.5 121.5v319q0 76 26.5 121.5t72 66.5t101.5 21q57 0 103 -21t72.5 -66.5t26.5 -121.5v-319q0 -76 -26.5 -121.5t-72.5 -66.5t-103 -21zM273 42q71 0 111.5 39.5t40.5 121.5v319q0 82 -40 121.5t-112 39.5q-71 0 -111 -39.5
t-40 -121.5v-319q0 -82 40 -121.5t111 -39.5zM333 854q-14 0 -23.5 9.5t-9.5 23.5t9.5 23t23.5 9t23 -9t9 -23t-9 -23.5t-23 -9.5zM216 854q-14 0 -23.5 9.5t-9.5 23.5t9.5 23t23.5 9t23 -9t9 -23t-9 -23.5t-23 -9.5z" />
    <glyph glyph-name="multiply" unicode="&#xd7;" horiz-adv-x="395" 
d="M86 140q-6 0 -11.5 3.5t-9 9t-3.5 11.5q0 8 6 14l99 97l-99 97q-5 6 -5 15t7 16t16 7t15 -5l96 -98l97 98q6 5 15 5t16 -7t7 -16t-5 -15l-99 -97l99 -97q6 -6 6 -14q0 -6 -3.5 -11.5t-8.5 -9t-12 -3.5q-8 0 -14 6l-98 97l-97 -97q-6 -6 -14 -6z" />
    <glyph glyph-name="Oslash" unicode="&#xd8;" horiz-adv-x="548" 
d="M273 -6q-56 0 -101.5 21t-72 66.5t-26.5 121.5v319q0 76 26.5 121.5t72 66.5t101.5 21q57 0 103 -21t72.5 -66.5t26.5 -121.5v-319q0 -76 -26.5 -121.5t-72.5 -66.5t-103 -21zM273 42q71 0 111.5 39.5t40.5 121.5v319q0 82 -40 121.5t-112 39.5q-71 0 -111 -39.5
t-40 -121.5v-319q0 -82 40 -121.5t111 -39.5zM81 -24q-8 0 -14.5 5.5t-6.5 13.5q0 7 3 11l386 751q5 10 16 10q8 0 15.5 -6.5t7.5 -15.5q0 -6 -3 -12l-384 -744q-3 -7 -8.5 -10t-11.5 -3z" />
    <glyph glyph-name="Ugrave" unicode="&#xd9;" horiz-adv-x="556" 
d="M277 -6q-56 0 -102 21t-72.5 66.5t-26.5 121.5v508q0 10 7.5 15t17.5 5q9 0 17 -5t8 -15v-508q0 -82 40 -121.5t111 -39.5q72 0 112.5 39.5t40.5 121.5v508q0 10 7.5 15t17.5 5q9 0 17 -5t8 -15v-508q0 -76 -27 -121.5t-73 -66.5t-103 -21zM324 853q-2 0 -4.5 1t-5.5 2
l-100 56q-11 6 -11 19q0 9 5.5 16t14.5 7q3 0 7 -2l107 -61q9 -4 9 -15q0 -9 -6 -16t-16 -7z" />
    <glyph glyph-name="Uacute" unicode="&#xda;" horiz-adv-x="556" 
d="M277 -6q-56 0 -102 21t-72.5 66.5t-26.5 121.5v508q0 10 7.5 15t17.5 5q9 0 17 -5t8 -15v-508q0 -82 40 -121.5t111 -39.5q72 0 112.5 39.5t40.5 121.5v508q0 10 7.5 15t17.5 5q9 0 17 -5t8 -15v-508q0 -76 -27 -121.5t-73 -66.5t-103 -21zM232 853q-8 0 -15 7t-7 16
q0 11 9 15l107 61q4 2 8 2q9 0 14 -7t5 -16q0 -13 -11 -19l-100 -56q-2 -1 -5 -2t-5 -1z" />
    <glyph glyph-name="Ucircumflex" unicode="&#xdb;" horiz-adv-x="556" 
d="M277 -6q-56 0 -102 21t-72.5 66.5t-26.5 121.5v508q0 10 7.5 15t17.5 5q9 0 17 -5t8 -15v-508q0 -82 40 -121.5t111 -39.5q72 0 112.5 39.5t40.5 121.5v508q0 10 7.5 15t17.5 5q9 0 17 -5t8 -15v-508q0 -76 -27 -121.5t-73 -66.5t-103 -21zM166 853q-8 0 -14 6.5t-6 16.5
q0 5 3 9.5t8 7.5l104 56q8 5 17 5t17 -5l104 -55q6 -3 8.5 -8.5t2.5 -11.5q0 -8 -5.5 -14t-13.5 -6q-2 0 -4.5 1t-4.5 2l-104 55l-104 -56l-4 -2t-4 -1z" />
    <glyph glyph-name="Udieresis" unicode="&#xdc;" horiz-adv-x="556" 
d="M277 -6q-56 0 -102 21t-72.5 66.5t-26.5 121.5v508q0 10 7.5 15t17.5 5q9 0 17 -5t8 -15v-508q0 -82 40 -121.5t111 -39.5q72 0 112.5 39.5t40.5 121.5v508q0 10 7.5 15t17.5 5q9 0 17 -5t8 -15v-508q0 -76 -27 -121.5t-73 -66.5t-103 -21zM337 854q-14 0 -23.5 9.5
t-9.5 23.5t9.5 23t23.5 9t23 -9t9 -23t-9 -23.5t-23 -9.5zM220 854q-14 0 -23.5 9.5t-9.5 23.5t9.5 23t23.5 9t23 -9t9 -23t-9 -23.5t-23 -9.5z" />
    <glyph glyph-name="Yacute" unicode="&#xdd;" horiz-adv-x="518" 
d="M259 0q-10 0 -17.5 5.5t-7.5 15.5v255q0 4 -2 7l-207 407q-2 6 -3.5 11t-1.5 8q0 7 4 11.5t9 7.5t11 3t12 -4.5t11 -13.5l192 -385l193 385q5 9 11 13.5t12 4.5t11 -3t8.5 -7.5t3.5 -11.5q0 -3 -1 -8t-4 -11l-208 -407q-1 -3 -1 -7v-255q0 -10 -8 -15.5t-17 -5.5z
M214 853q-8 0 -15 7t-7 16q0 11 9 15l107 61q4 2 8 2q9 0 14 -7t5 -16q0 -13 -11 -19l-100 -56q-2 -1 -5 -2t-5 -1z" />
    <glyph glyph-name="Thorn" unicode="&#xde;" horiz-adv-x="488" 
d="M104 0q-10 0 -17 6.5t-7 14.5v692q0 10 6.5 15t16.5 5q11 0 18.5 -5.5t7.5 -15.5v-169q16 30 51.5 53t89.5 23q44 0 83.5 -17.5t63.5 -52t24 -83.5v-178q0 -49 -24.5 -83t-63 -52.5t-78.5 -18.5q-31 0 -61.5 10t-53 27.5t-31.5 40.5v-191q0 -8 -7.5 -14.5t-17.5 -6.5z
M265 180q32 0 61.5 12t47.5 36t18 60v178q0 36 -18 59t-47 35t-62 12q-35 0 -66.5 -13.5t-50.5 -37t-19 -55.5v-179q0 -25 17.5 -49.5t48.5 -41t70 -16.5z" />
    <glyph glyph-name="germandbls" unicode="&#xdf;" horiz-adv-x="538" 
d="M324 -20q-11 0 -28.5 1.5t-36 5.5t-31 12t-12.5 21q0 6 2 11t6 8.5t10 3.5q10 0 27.5 -10t53.5 -10q62 0 99 44t37 129v19q0 36 -15 74t-50.5 66t-95.5 32q-15 2 -23.5 5.5t-8.5 16.5q0 14 9.5 17.5t23.5 5.5q30 2 47.5 16.5t27 36.5t12.5 45.5t3 43.5q0 68 -28.5 107.5
t-88.5 39.5q-41 0 -66 -19t-35 -50t-10 -65v-567q0 -8 -8 -14t-18 -6t-16.5 6t-6.5 14v409h-78q-8 0 -13.5 6.5t-5.5 14.5q0 10 5.5 16t13.5 6h78v115q0 48 16 89.5t51 66.5t92 25q46 0 83.5 -19t59 -59t21.5 -102q0 -35 -8 -71t-24 -63.5t-41 -38.5q34 -6 66.5 -34
t54.5 -70.5t22 -94.5v-18q0 -75 -25 -123t-65 -71.5t-83 -23.5z" />
    <glyph glyph-name="agrave" unicode="&#xe0;" horiz-adv-x="430" 
d="M171 -6q-58 0 -98 32.5t-40 99.5q0 53 29.5 82t82 40.5t121.5 11.5h54v26q0 35 -12.5 69t-40 56t-73.5 22q-32 0 -52.5 -6.5t-33 -14t-19.5 -7.5q-10 0 -16 9.5t-6 17.5q0 12 19.5 22.5t49.5 17t60 6.5q65 0 102.5 -27.5t54 -71t16.5 -93.5v-265q0 -8 -6.5 -14.5
t-17.5 -6.5q-10 0 -17 6.5t-7 14.5v49q-25 -29 -62.5 -52.5t-87.5 -23.5zM178 38q35 0 67.5 17.5t53.5 43t21 47.5v74h-49q-49 0 -92 -5.5t-70 -25t-27 -61.5q0 -47 28 -68.5t68 -21.5zM259 595q-2 0 -4.5 1t-5.5 2l-100 56q-11 6 -11 19q0 9 5.5 16t14.5 7q3 0 7 -2
l107 -61q9 -4 9 -15q0 -9 -6 -16t-16 -7z" />
    <glyph glyph-name="aacute" unicode="&#xe1;" horiz-adv-x="430" 
d="M171 -6q-58 0 -98 32.5t-40 99.5q0 53 29.5 82t82 40.5t121.5 11.5h54v26q0 35 -12.5 69t-40 56t-73.5 22q-32 0 -52.5 -6.5t-33 -14t-19.5 -7.5q-10 0 -16 9.5t-6 17.5q0 12 19.5 22.5t49.5 17t60 6.5q65 0 102.5 -27.5t54 -71t16.5 -93.5v-265q0 -8 -6.5 -14.5
t-17.5 -6.5q-10 0 -17 6.5t-7 14.5v49q-25 -29 -62.5 -52.5t-87.5 -23.5zM178 38q35 0 67.5 17.5t53.5 43t21 47.5v74h-49q-49 0 -92 -5.5t-70 -25t-27 -61.5q0 -47 28 -68.5t68 -21.5zM167 595q-8 0 -15 7t-7 16q0 11 9 15l107 61q4 2 8 2q9 0 14 -7t5 -16q0 -13 -11 -19
l-100 -56q-2 -1 -5 -2t-5 -1z" />
    <glyph glyph-name="acircumflex" unicode="&#xe2;" horiz-adv-x="430" 
d="M171 -6q-58 0 -98 32.5t-40 99.5q0 53 29.5 82t82 40.5t121.5 11.5h54v26q0 35 -12.5 69t-40 56t-73.5 22q-32 0 -52.5 -6.5t-33 -14t-19.5 -7.5q-10 0 -16 9.5t-6 17.5q0 12 19.5 22.5t49.5 17t60 6.5q65 0 102.5 -27.5t54 -71t16.5 -93.5v-265q0 -8 -6.5 -14.5
t-17.5 -6.5q-10 0 -17 6.5t-7 14.5v49q-25 -29 -62.5 -52.5t-87.5 -23.5zM178 38q35 0 67.5 17.5t53.5 43t21 47.5v74h-49q-49 0 -92 -5.5t-70 -25t-27 -61.5q0 -47 28 -68.5t68 -21.5zM101 595q-8 0 -14 6.5t-6 16.5q0 5 3 9.5t8 7.5l104 56q8 5 17 5t17 -5l104 -55
q6 -3 8.5 -8.5t2.5 -11.5q0 -8 -5.5 -14t-13.5 -6q-2 0 -4.5 1t-4.5 2l-104 55l-104 -56l-4 -2t-4 -1z" />
    <glyph glyph-name="atilde" unicode="&#xe3;" horiz-adv-x="430" 
d="M171 -6q-58 0 -98 32.5t-40 99.5q0 53 29.5 82t82 40.5t121.5 11.5h54v26q0 35 -12.5 69t-40 56t-73.5 22q-32 0 -52.5 -6.5t-33 -14t-19.5 -7.5q-10 0 -16 9.5t-6 17.5q0 12 19.5 22.5t49.5 17t60 6.5q65 0 102.5 -27.5t54 -71t16.5 -93.5v-265q0 -8 -6.5 -14.5
t-17.5 -6.5q-10 0 -17 6.5t-7 14.5v49q-25 -29 -62.5 -52.5t-87.5 -23.5zM178 38q35 0 67.5 17.5t53.5 43t21 47.5v74h-49q-49 0 -92 -5.5t-70 -25t-27 -61.5q0 -47 28 -68.5t68 -21.5zM280 613q-25 0 -44.5 9.5t-39.5 18t-47 8.5q-21 0 -34.5 -8t-21.5 -16.5t-15 -8.5
q-4 0 -8 3t-6 8t-2 10q0 12 8.5 21.5t23 17t29.5 11.5t28 4q25 0 44.5 -8.5t39.5 -18t45 -9.5q23 0 34 8t18 15.5t15 7.5q6 0 9.5 -3t5.5 -7t2 -9q0 -14 -8.5 -23.5t-22 -16.5t-28 -10.5t-25.5 -3.5z" />
    <glyph glyph-name="adieresis" unicode="&#xe4;" horiz-adv-x="430" 
d="M171 -6q-58 0 -98 32.5t-40 99.5q0 53 29.5 82t82 40.5t121.5 11.5h54v26q0 35 -12.5 69t-40 56t-73.5 22q-32 0 -52.5 -6.5t-33 -14t-19.5 -7.5q-10 0 -16 9.5t-6 17.5q0 12 19.5 22.5t49.5 17t60 6.5q65 0 102.5 -27.5t54 -71t16.5 -93.5v-265q0 -8 -6.5 -14.5
t-17.5 -6.5q-10 0 -17 6.5t-7 14.5v49q-25 -29 -62.5 -52.5t-87.5 -23.5zM178 38q35 0 67.5 17.5t53.5 43t21 47.5v74h-49q-49 0 -92 -5.5t-70 -25t-27 -61.5q0 -47 28 -68.5t68 -21.5zM272 596q-14 0 -23.5 9.5t-9.5 23.5t9.5 23t23.5 9t23 -9t9 -23t-9 -23.5t-23 -9.5z
M155 596q-14 0 -23.5 9.5t-9.5 23.5t9.5 23t23.5 9t23 -9t9 -23t-9 -23.5t-23 -9.5z" />
    <glyph glyph-name="aring" unicode="&#xe5;" horiz-adv-x="430" 
d="M171 -6q-58 0 -98 32.5t-40 99.5q0 53 29.5 82t82 40.5t121.5 11.5h54v26q0 35 -12.5 69t-40 56t-73.5 22q-32 0 -52.5 -6.5t-33 -14t-19.5 -7.5q-10 0 -16 9.5t-6 17.5q0 12 19.5 22.5t49.5 17t60 6.5q65 0 102.5 -27.5t54 -71t16.5 -93.5v-265q0 -8 -6.5 -14.5
t-17.5 -6.5q-10 0 -17 6.5t-7 14.5v49q-25 -29 -62.5 -52.5t-87.5 -23.5zM178 38q35 0 67.5 17.5t53.5 43t21 47.5v74h-49q-49 0 -92 -5.5t-70 -25t-27 -61.5q0 -47 28 -68.5t68 -21.5zM213 581q-25 0 -46 13t-33 35t-12 46t12 45t33 34t46 13q24 0 45 -12.5t33.5 -34
t12.5 -45.5t-12.5 -46t-33.5 -35t-45 -13zM213 608q25 0 43.5 21t18.5 46q0 22 -18.5 42t-43.5 20q-27 0 -45 -20t-18 -42q0 -25 18.5 -46t44.5 -21z" />
    <glyph glyph-name="ae" unicode="&#xe6;" horiz-adv-x="723" 
d="M171 -6q-36 0 -67.5 14t-51 43.5t-19.5 73.5q0 54 29 83t81 40.5t121 11.5h54v27q0 35 -12.5 69t-40.5 56t-75 22q-30 0 -50.5 -6.5t-33.5 -14t-20 -7.5q-9 0 -15 9.5t-6 17.5q0 12 19.5 22.5t49.5 17t61 6.5q61 0 97.5 -27.5t53.5 -69.5q23 42 64.5 69t92.5 27
q30 0 61.5 -10t59 -33.5t44.5 -60t17 -89.5q0 -27 -7 -41.5t-25.5 -19t-51.5 -4.5h-231v-42q0 -64 45.5 -101.5t112.5 -37.5q40 0 62.5 10t35.5 20t23 10q5 0 10 -3t8.5 -8.5t3.5 -12.5q0 -14 -24 -28.5t-59 -23.5t-71 -9q-55 0 -103 26.5t-72 75.5q-31 -56 -78.5 -79
t-92.5 -23zM177 38q39 0 71 18t51 43.5t19 46.5v74h-49q-50 0 -93 -5.5t-68.5 -25.5t-25.5 -63q0 -44 27.5 -66t67.5 -22zM370 261h212q37 0 46 7.5t9 26.5q0 36 -16.5 67.5t-46.5 51.5t-71 20q-37 0 -67 -17.5t-48 -47.5t-18 -66v-42z" />
    <glyph glyph-name="ccedilla" unicode="&#xe7;" horiz-adv-x="407" 
d="M237 -6q-64 0 -105.5 24t-62 66t-20.5 95v114q0 52 20 94.5t62 66.5t106 24q41 0 71.5 -10.5t47.5 -24.5t17 -26q0 -5 -3.5 -11t-8.5 -9.5t-11 -3.5q-9 0 -20.5 10t-32 19.5t-58.5 9.5q-69 0 -105 -37.5t-36 -101.5v-114q0 -64 36 -101.5t106 -37.5q40 0 61.5 10t33 20
t21.5 10q7 0 11.5 -4t8 -9t3.5 -11q0 -11 -17.5 -26t-49 -25.5t-75.5 -10.5zM244 -208q-13 0 -31 2.5t-31.5 8t-13.5 13.5q0 4 2 9t5 8.5t7 3.5q5 0 18 -6.5t38 -6.5q30 0 42 12t12 28q0 22 -18 32t-49 12l-33 2l25 99h35l-18 -72q51 -1 73 -22.5t22 -48.5q0 -18 -9.5 -35
t-28.5 -28t-47 -11z" />
    <glyph glyph-name="egrave" unicode="&#xe8;" horiz-adv-x="451" 
d="M256 -6q-61 0 -107.5 23t-73.5 64.5t-27 97.5v119q0 49 25.5 90t67 65.5t91.5 24.5q49 0 90 -23.5t66.5 -64t25.5 -93.5q0 -37 -12.5 -53.5t-31.5 -20t-41 -3.5h-232v-42q0 -64 46 -101.5t115 -37.5q41 0 63 10t34 20t22 10q7 0 12 -4t8 -9.5t3 -10.5q0 -10 -17.5 -25
t-49.5 -25.5t-77 -10.5zM97 261h213q34 0 45 7t11 29q0 34 -16.5 65.5t-47 51.5t-70.5 20q-38 0 -68.5 -18t-48.5 -48t-18 -66v-41zM278 596q-2 0 -4.5 1t-5.5 2l-100 56q-11 6 -11 19q0 9 5.5 16t14.5 7q3 0 7 -2l107 -61q9 -4 9 -15q0 -9 -6 -16t-16 -7z" />
    <glyph glyph-name="eacute" unicode="&#xe9;" horiz-adv-x="451" 
d="M256 -6q-61 0 -107.5 23t-73.5 64.5t-27 97.5v119q0 49 25.5 90t67 65.5t91.5 24.5q49 0 90 -23.5t66.5 -64t25.5 -93.5q0 -37 -12.5 -53.5t-31.5 -20t-41 -3.5h-232v-42q0 -64 46 -101.5t115 -37.5q41 0 63 10t34 20t22 10q7 0 12 -4t8 -9.5t3 -10.5q0 -10 -17.5 -25
t-49.5 -25.5t-77 -10.5zM97 261h213q34 0 45 7t11 29q0 34 -16.5 65.5t-47 51.5t-70.5 20q-38 0 -68.5 -18t-48.5 -48t-18 -66v-41zM186 596q-8 0 -15 7t-7 16q0 11 9 15l107 61q4 2 8 2q9 0 14 -7t5 -16q0 -13 -11 -19l-100 -56q-2 -1 -5 -2t-5 -1z" />
    <glyph glyph-name="ecircumflex" unicode="&#xea;" horiz-adv-x="451" 
d="M256 -6q-61 0 -107.5 23t-73.5 64.5t-27 97.5v119q0 49 25.5 90t67 65.5t91.5 24.5q49 0 90 -23.5t66.5 -64t25.5 -93.5q0 -37 -12.5 -53.5t-31.5 -20t-41 -3.5h-232v-42q0 -64 46 -101.5t115 -37.5q41 0 63 10t34 20t22 10q7 0 12 -4t8 -9.5t3 -10.5q0 -10 -17.5 -25
t-49.5 -25.5t-77 -10.5zM97 261h213q34 0 45 7t11 29q0 34 -16.5 65.5t-47 51.5t-70.5 20q-38 0 -68.5 -18t-48.5 -48t-18 -66v-41zM120 596q-8 0 -14 6.5t-6 16.5q0 5 3 9.5t8 7.5l104 56q8 5 17 5t17 -5l104 -55q6 -3 8.5 -8.5t2.5 -11.5q0 -8 -5.5 -14t-13.5 -6
q-2 0 -4.5 1t-4.5 2l-104 55l-104 -56l-4 -2t-4 -1z" />
    <glyph glyph-name="edieresis" unicode="&#xeb;" horiz-adv-x="451" 
d="M256 -6q-61 0 -107.5 23t-73.5 64.5t-27 97.5v119q0 49 25.5 90t67 65.5t91.5 24.5q49 0 90 -23.5t66.5 -64t25.5 -93.5q0 -37 -12.5 -53.5t-31.5 -20t-41 -3.5h-232v-42q0 -64 46 -101.5t115 -37.5q41 0 63 10t34 20t22 10q7 0 12 -4t8 -9.5t3 -10.5q0 -10 -17.5 -25
t-49.5 -25.5t-77 -10.5zM97 261h213q34 0 45 7t11 29q0 34 -16.5 65.5t-47 51.5t-70.5 20q-38 0 -68.5 -18t-48.5 -48t-18 -66v-41zM291 597q-14 0 -23.5 9.5t-9.5 23.5t9.5 23t23.5 9t23 -9t9 -23t-9 -23.5t-23 -9.5zM174 597q-14 0 -23.5 9.5t-9.5 23.5t9.5 23t23.5 9
t23 -9t9 -23t-9 -23.5t-23 -9.5z" />
    <glyph glyph-name="igrave" unicode="&#xec;" horiz-adv-x="180" 
d="M89 0q-10 0 -17 6.5t-7 14.5v431q0 9 7 14.5t17 5.5q11 0 18 -5.5t7 -14.5v-431q0 -8 -7 -14.5t-18 -6.5zM136 596q-2 0 -4.5 1t-5.5 2l-100 56q-11 6 -11 19q0 9 5.5 16t14.5 7q3 0 7 -2l107 -61q9 -4 9 -15q0 -9 -6 -16t-16 -7z" />
    <glyph glyph-name="iacute" unicode="&#xed;" horiz-adv-x="180" 
d="M89 0q-10 0 -17 6.5t-7 14.5v431q0 9 7 14.5t17 5.5q11 0 18 -5.5t7 -14.5v-431q0 -8 -7 -14.5t-18 -6.5zM44 596q-8 0 -15 7t-7 16q0 11 9 15l107 61q4 2 8 2q9 0 14 -7t5 -16q0 -13 -11 -19l-100 -56q-2 -1 -5 -2t-5 -1z" />
    <glyph glyph-name="icircumflex" unicode="&#xee;" horiz-adv-x="180" 
d="M89 0q-10 0 -17 6.5t-7 14.5v431q0 9 7 14.5t17 5.5q11 0 18 -5.5t7 -14.5v-431q0 -8 -7 -14.5t-18 -6.5zM-22 596q-8 0 -14 6.5t-6 16.5q0 5 3 9.5t8 7.5l104 56q8 5 17 5t17 -5l104 -55q6 -3 8.5 -8.5t2.5 -11.5q0 -8 -5.5 -14t-13.5 -6q-2 0 -4.5 1t-4.5 2l-104 55
l-104 -56l-4 -2t-4 -1z" />
    <glyph glyph-name="idieresis" unicode="&#xef;" horiz-adv-x="180" 
d="M89 0q-10 0 -17 6.5t-7 14.5v431q0 9 7 14.5t17 5.5q11 0 18 -5.5t7 -14.5v-431q0 -8 -7 -14.5t-18 -6.5zM149 597q-14 0 -23.5 9.5t-9.5 23.5t9.5 23t23.5 9t23 -9t9 -23t-9 -23.5t-23 -9.5zM32 597q-14 0 -23.5 9.5t-9.5 23.5t9.5 23t23.5 9t23 -9t9 -23t-9 -23.5
t-23 -9.5z" />
    <glyph glyph-name="eth" unicode="&#xf0;" horiz-adv-x="475" 
d="M230 -6q-37 0 -69.5 14.5t-58.5 41t-40.5 59.5t-14.5 70v116q0 49 24 91t64.5 67t88.5 25q30 0 58.5 -10t51.5 -28.5t31 -45.5q-6 77 -27 135t-50 97l-91 -52q-4 -4 -10 -4q-8 0 -14.5 8t-6.5 16q0 11 10 16l85 49q-29 30 -61 44.5t-61 14.5q-7 2 -10.5 7.5t-3.5 13.5
q0 6 2.5 12t9 10.5t18.5 4.5q34 0 74 -20.5t76 -60.5l76 44q4 2 8 2q8 0 15 -7t7 -15q0 -11 -10 -17l-71 -41q37 -52 60.5 -125t23.5 -164v-183q0 -48 -25 -91t-67 -68.5t-92 -25.5zM230 40q38 0 68.5 20t48.5 52t18 67v120q0 35 -18.5 65t-49 49t-67.5 19t-67.5 -20
t-48.5 -51t-18 -66v-116q0 -35 18 -67t49 -52t67 -20z" />
    <glyph glyph-name="ntilde" unicode="&#xf1;" horiz-adv-x="487" 
d="M89 0q-10 0 -17 6.5t-7 14.5v431q0 9 7 14.5t17 5.5q11 0 17.5 -5.5t6.5 -14.5v-50q17 29 50.5 52.5t83.5 23.5q49 0 89.5 -24.5t65 -66t24.5 -92.5v-274q0 -10 -7.5 -15.5t-17.5 -5.5q-8 0 -16 5.5t-8 15.5v274q0 35 -18.5 66t-48.5 51t-67 20q-32 0 -61.5 -16.5
t-48.5 -47t-19 -73.5v-274q0 -8 -7 -14.5t-18 -6.5zM311 612q-25 0 -44.5 9.5t-39.5 18t-47 8.5q-21 0 -34.5 -8t-21.5 -16.5t-15 -8.5q-4 0 -8 3t-6 8t-2 10q0 12 8.5 21.5t23 17t29.5 11.5t28 4q25 0 44.5 -8.5t39.5 -18t45 -9.5q23 0 34 8t18 15.5t15 7.5q6 0 9.5 -3
t5.5 -7t2 -9q0 -14 -8.5 -23.5t-22 -16.5t-28 -10.5t-25.5 -3.5z" />
    <glyph glyph-name="ograve" unicode="&#xf2;" horiz-adv-x="461" 
d="M230 -6q-48 0 -90 26t-67.5 68t-25.5 91v116q0 49 25 91t67 67t91 25q50 0 91.5 -24.5t67 -66t25.5 -92.5v-116q0 -48 -25.5 -90.5t-67 -68.5t-91.5 -26zM230 40q38 0 68 20t48.5 52t18.5 67v116q0 35 -18 66t-48.5 51t-68.5 20t-68 -20t-48 -51t-18 -66v-116
q0 -35 18 -67t48.5 -52t67.5 -20zM277 596q-2 0 -4.5 1t-5.5 2l-100 56q-11 6 -11 19q0 9 5.5 16t14.5 7q3 0 7 -2l107 -61q9 -4 9 -15q0 -9 -6 -16t-16 -7z" />
    <glyph glyph-name="oacute" unicode="&#xf3;" horiz-adv-x="461" 
d="M230 -6q-48 0 -90 26t-67.5 68t-25.5 91v116q0 49 25 91t67 67t91 25q50 0 91.5 -24.5t67 -66t25.5 -92.5v-116q0 -48 -25.5 -90.5t-67 -68.5t-91.5 -26zM230 40q38 0 68 20t48.5 52t18.5 67v116q0 35 -18 66t-48.5 51t-68.5 20t-68 -20t-48 -51t-18 -66v-116
q0 -35 18 -67t48.5 -52t67.5 -20zM185 596q-8 0 -15 7t-7 16q0 11 9 15l107 61q4 2 8 2q9 0 14 -7t5 -16q0 -13 -11 -19l-100 -56q-2 -1 -5 -2t-5 -1z" />
    <glyph glyph-name="ocircumflex" unicode="&#xf4;" horiz-adv-x="461" 
d="M230 -6q-48 0 -90 26t-67.5 68t-25.5 91v116q0 49 25 91t67 67t91 25q50 0 91.5 -24.5t67 -66t25.5 -92.5v-116q0 -48 -25.5 -90.5t-67 -68.5t-91.5 -26zM230 40q38 0 68 20t48.5 52t18.5 67v116q0 35 -18 66t-48.5 51t-68.5 20t-68 -20t-48 -51t-18 -66v-116
q0 -35 18 -67t48.5 -52t67.5 -20zM119 596q-8 0 -14 6.5t-6 16.5q0 5 3 9.5t8 7.5l104 56q8 5 17 5t17 -5l104 -55q6 -3 8.5 -8.5t2.5 -11.5q0 -8 -5.5 -14t-13.5 -6q-2 0 -4.5 1t-4.5 2l-104 55l-104 -56l-4 -2t-4 -1z" />
    <glyph glyph-name="otilde" unicode="&#xf5;" horiz-adv-x="461" 
d="M230 -6q-48 0 -90 26t-67.5 68t-25.5 91v116q0 49 25 91t67 67t91 25q50 0 91.5 -24.5t67 -66t25.5 -92.5v-116q0 -48 -25.5 -90.5t-67 -68.5t-91.5 -26zM230 40q38 0 68 20t48.5 52t18.5 67v116q0 35 -18 66t-48.5 51t-68.5 20t-68 -20t-48 -51t-18 -66v-116
q0 -35 18 -67t48.5 -52t67.5 -20zM298 614q-25 0 -44.5 9.5t-39.5 18t-47 8.5q-21 0 -34.5 -8t-21.5 -16.5t-15 -8.5q-4 0 -8 3t-6 8t-2 10q0 12 8.5 21.5t23 17t29.5 11.5t28 4q25 0 44.5 -8.5t39.5 -18t45 -9.5q23 0 34 8t18 15.5t15 7.5q6 0 9.5 -3t5.5 -7t2 -9
q0 -14 -8.5 -23.5t-22 -16.5t-28 -10.5t-25.5 -3.5z" />
    <glyph glyph-name="odieresis" unicode="&#xf6;" horiz-adv-x="461" 
d="M230 -6q-48 0 -90 26t-67.5 68t-25.5 91v116q0 49 25 91t67 67t91 25q50 0 91.5 -24.5t67 -66t25.5 -92.5v-116q0 -48 -25.5 -90.5t-67 -68.5t-91.5 -26zM230 40q38 0 68 20t48.5 52t18.5 67v116q0 35 -18 66t-48.5 51t-68.5 20t-68 -20t-48 -51t-18 -66v-116
q0 -35 18 -67t48.5 -52t67.5 -20zM290 597q-14 0 -23.5 9.5t-9.5 23.5t9.5 23t23.5 9t23 -9t9 -23t-9 -23.5t-23 -9.5zM173 597q-14 0 -23.5 9.5t-9.5 23.5t9.5 23t23.5 9t23 -9t9 -23t-9 -23.5t-23 -9.5z" />
    <glyph glyph-name="divide" unicode="&#xf7;" horiz-adv-x="460" 
d="M70 263q-9 0 -15 6t-6 15q0 11 6 17t15 6h319q9 0 15.5 -6t6.5 -17q0 -9 -6.5 -15t-15.5 -6h-319zM227 78q-19 0 -33 13.5t-14 31.5t14 31.5t33 13.5q17 0 31 -13.5t14 -31.5t-14 -31.5t-31 -13.5zM227 402q-19 0 -33 13.5t-14 31.5t14 31.5t33 13.5q17 0 31 -13.5
t14 -31.5t-14 -31.5t-31 -13.5z" />
    <glyph glyph-name="oslash" unicode="&#xf8;" horiz-adv-x="461" 
d="M230 -6q-48 0 -90 26t-67.5 68t-25.5 91v116q0 49 25 91t67 67t91 25q50 0 91.5 -24.5t67 -66t25.5 -92.5v-116q0 -48 -25.5 -90.5t-67 -68.5t-91.5 -26zM230 40q38 0 68 20t48.5 52t18.5 67v116q0 35 -18 66t-48.5 51t-68.5 20t-68 -20t-48 -51t-18 -66v-116
q0 -35 18 -67t48.5 -52t67.5 -20zM91 -32q-6 0 -11.5 4.5t-5.5 12.5q0 6 2 10l28 52l219 406l26 48q5 8 14 8q7 0 13.5 -6t6.5 -14q0 -6 -4 -13l-26 -46l-220 -407l-25 -44q-5 -11 -17 -11z" />
    <glyph glyph-name="ugrave" unicode="&#xf9;" horiz-adv-x="489" 
d="M245 -6q-50 0 -92 25.5t-67 67.5t-25 90v274q0 8 7.5 14.5t17.5 6.5t17 -6.5t7 -14.5v-274q0 -35 18 -66t48.5 -51t68.5 -20t68 19.5t48 51t18 66.5v275q0 8 7.5 14t17.5 6q11 0 17.5 -6t6.5 -14v-275q0 -49 -25 -91t-66.5 -67t-91.5 -25zM291 594q-2 0 -4.5 1t-5.5 2
l-100 56q-11 6 -11 19q0 9 5.5 16t14.5 7q3 0 7 -2l107 -61q9 -4 9 -15q0 -9 -6 -16t-16 -7z" />
    <glyph glyph-name="uacute" unicode="&#xfa;" horiz-adv-x="489" 
d="M245 -6q-50 0 -92 25.5t-67 67.5t-25 90v274q0 8 7.5 14.5t17.5 6.5t17 -6.5t7 -14.5v-274q0 -35 18 -66t48.5 -51t68.5 -20t68 19.5t48 51t18 66.5v275q0 8 7.5 14t17.5 6q11 0 17.5 -6t6.5 -14v-275q0 -49 -25 -91t-66.5 -67t-91.5 -25zM199 594q-8 0 -15 7t-7 16
q0 11 9 15l107 61q4 2 8 2q9 0 14 -7t5 -16q0 -13 -11 -19l-100 -56q-2 -1 -5 -2t-5 -1z" />
    <glyph glyph-name="ucircumflex" unicode="&#xfb;" horiz-adv-x="489" 
d="M245 -6q-50 0 -92 25.5t-67 67.5t-25 90v274q0 8 7.5 14.5t17.5 6.5t17 -6.5t7 -14.5v-274q0 -35 18 -66t48.5 -51t68.5 -20t68 19.5t48 51t18 66.5v275q0 8 7.5 14t17.5 6q11 0 17.5 -6t6.5 -14v-275q0 -49 -25 -91t-66.5 -67t-91.5 -25zM133 594q-8 0 -14 6.5t-6 16.5
q0 5 3 9.5t8 7.5l104 56q8 5 17 5t17 -5l104 -55q6 -3 8.5 -8.5t2.5 -11.5q0 -8 -5.5 -14t-13.5 -6q-2 0 -4.5 1t-4.5 2l-104 55l-104 -56l-4 -2t-4 -1z" />
    <glyph glyph-name="udieresis" unicode="&#xfc;" horiz-adv-x="489" 
d="M245 -6q-50 0 -92 25.5t-67 67.5t-25 90v274q0 8 7.5 14.5t17.5 6.5t17 -6.5t7 -14.5v-274q0 -35 18 -66t48.5 -51t68.5 -20t68 19.5t48 51t18 66.5v275q0 8 7.5 14t17.5 6q11 0 17.5 -6t6.5 -14v-275q0 -49 -25 -91t-66.5 -67t-91.5 -25zM304 595q-14 0 -23.5 9.5
t-9.5 23.5t9.5 23t23.5 9t23 -9t9 -23t-9 -23.5t-23 -9.5zM187 595q-14 0 -23.5 9.5t-9.5 23.5t9.5 23t23.5 9t23 -9t9 -23t-9 -23.5t-23 -9.5z" />
    <glyph glyph-name="yacute" unicode="&#xfd;" horiz-adv-x="407" 
d="M40 -235q-9 0 -16 6t-7 17q0 9 4 16t14 7q25 0 46.5 17.5t40 48t33 66.5t25.5 73l-162 431q-2 5 -2 8q0 7 4.5 12t11 8.5t13.5 3.5q6 0 12 -3.5t7 -9.5l141 -385l137 385q3 6 8 9.5t11 3.5q7 0 13.5 -3t11 -8.5t4.5 -12.5q0 -5 -2 -8l-158 -431q-13 -39 -30 -82.5
t-39.5 -81.5t-52 -62.5t-68.5 -24.5zM158 594q-8 0 -15 7t-7 16q0 11 9 15l107 61q4 2 8 2q9 0 14 -7t5 -16q0 -13 -11 -19l-100 -56q-2 -1 -5 -2t-5 -1z" />
    <glyph glyph-name="thorn" unicode="&#xfe;" horiz-adv-x="476" 
d="M90 -235q-10 0 -17 7t-7 15v958q0 10 7 15.5t17 5.5q11 0 18 -5.5t7 -15.5v-343q17 29 50.5 52.5t82.5 23.5t90 -24.5t65.5 -66t24.5 -92.5v-116q0 -48 -24.5 -90.5t-65 -68.5t-87.5 -26q-46 0 -82.5 22.5t-53.5 53.5v-283q0 -8 -7 -15t-18 -7zM246 40q36 0 66 20
t48.5 52t18.5 67v116q0 35 -18.5 66t-48.5 51t-67 20q-32 0 -62 -16.5t-49 -47t-19 -73.5v-150q0 -16 17 -41t47 -44.5t67 -19.5z" />
    <glyph glyph-name="ydieresis" unicode="&#xff;" horiz-adv-x="407" 
d="M40 -235q-9 0 -16 6t-7 17q0 9 4 16t14 7q25 0 46.5 17.5t40 48t33 66.5t25.5 73l-162 431q-2 5 -2 8q0 7 4.5 12t11 8.5t13.5 3.5q6 0 12 -3.5t7 -9.5l141 -385l137 385q3 6 8 9.5t11 3.5q7 0 13.5 -3t11 -8.5t4.5 -12.5q0 -5 -2 -8l-158 -431q-13 -39 -30 -82.5
t-39.5 -81.5t-52 -62.5t-68.5 -24.5zM263 595q-14 0 -23.5 9.5t-9.5 23.5t9.5 23t23.5 9t23 -9t9 -23t-9 -23.5t-23 -9.5zM146 595q-14 0 -23.5 9.5t-9.5 23.5t9.5 23t23.5 9t23 -9t9 -23t-9 -23.5t-23 -9.5z" />
    <glyph glyph-name="Amacron" unicode="&#x100;" horiz-adv-x="529" 
d="M50 0q-6 0 -12.5 3t-10.5 7.5t-4 11.5q0 3 1 6l213 691q3 10 11 14t17 4t17.5 -4.5t11.5 -13.5l211 -691q1 -3 1 -6q0 -5 -4.5 -10.5t-11 -8.5t-13.5 -3t-12.5 3.5t-7.5 11.5l-49 159h-288l-48 -159q-2 -8 -8 -11.5t-14 -3.5zM134 220h260l-129 427zM155 899q-8 0 -14 6
t-6 14q0 10 6 16t14 6h218q8 0 15 -6t7 -16q0 -8 -7 -14t-15 -6h-218z" />
    <glyph glyph-name="amacron" unicode="&#x101;" horiz-adv-x="430" 
d="M171 -6q-58 0 -98 32.5t-40 99.5q0 53 29.5 82t82 40.5t121.5 11.5h54v26q0 35 -12.5 69t-40 56t-73.5 22q-32 0 -52.5 -6.5t-33 -14t-19.5 -7.5q-10 0 -16 9.5t-6 17.5q0 12 19.5 22.5t49.5 17t60 6.5q65 0 102.5 -27.5t54 -71t16.5 -93.5v-265q0 -8 -6.5 -14.5
t-17.5 -6.5q-10 0 -17 6.5t-7 14.5v49q-25 -29 -62.5 -52.5t-87.5 -23.5zM178 38q35 0 67.5 17.5t53.5 43t21 47.5v74h-49q-49 0 -92 -5.5t-70 -25t-27 -61.5q0 -47 28 -68.5t68 -21.5zM103 641q-8 0 -14 6t-6 14q0 10 6 16t14 6h218q8 0 15 -6t7 -16q0 -8 -7 -14t-15 -6
h-218z" />
    <glyph glyph-name="Abreve" unicode="&#x102;" horiz-adv-x="529" 
d="M50 0q-6 0 -12.5 3t-10.5 7.5t-4 11.5q0 3 1 6l213 691q3 10 11 14t17 4t17.5 -4.5t11.5 -13.5l211 -691q1 -3 1 -6q0 -5 -4.5 -10.5t-11 -8.5t-13.5 -3t-12.5 3.5t-7.5 11.5l-49 159h-288l-48 -159q-2 -8 -8 -11.5t-14 -3.5zM134 220h260l-129 427zM265 856
q-40 0 -72 27.5t-40 66.5q-1 9 4 14t13 5h4q7 0 11.5 -4.5t5.5 -11.5q5 -28 26 -47t48 -19q26 0 47 19t25 47q2 7 6 11.5t11 4.5h4q8 0 13.5 -5.5t4.5 -13.5q-8 -39 -40.5 -66.5t-70.5 -27.5z" />
    <glyph glyph-name="abreve" unicode="&#x103;" horiz-adv-x="430" 
d="M171 -6q-58 0 -98 32.5t-40 99.5q0 53 29.5 82t82 40.5t121.5 11.5h54v26q0 35 -12.5 69t-40 56t-73.5 22q-32 0 -52.5 -6.5t-33 -14t-19.5 -7.5q-10 0 -16 9.5t-6 17.5q0 12 19.5 22.5t49.5 17t60 6.5q65 0 102.5 -27.5t54 -71t16.5 -93.5v-265q0 -8 -6.5 -14.5
t-17.5 -6.5q-10 0 -17 6.5t-7 14.5v49q-25 -29 -62.5 -52.5t-87.5 -23.5zM178 38q35 0 67.5 17.5t53.5 43t21 47.5v74h-49q-49 0 -92 -5.5t-70 -25t-27 -61.5q0 -47 28 -68.5t68 -21.5zM214 598q-40 0 -72 27.5t-40 66.5q-1 9 4 14t13 5h4q7 0 11.5 -4.5t5.5 -11.5
q5 -28 26 -47t48 -19q26 0 47 19t25 47q2 7 6 11.5t11 4.5h4q8 0 13.5 -5.5t4.5 -13.5q-8 -39 -40.5 -66.5t-70.5 -27.5z" />
    <glyph glyph-name="Aogonek" unicode="&#x104;" horiz-adv-x="529" 
d="M50 0q-6 0 -12.5 3t-10.5 7.5t-4 11.5q0 3 1 6l213 691q3 10 11 14t17 4t17.5 -4.5t11.5 -13.5l211 -691q1 -3 1 -6q0 -5 -4.5 -10.5t-11 -8.5t-13.5 -3t-12.5 3.5t-7.5 11.5l-49 159h-288l-48 -159q-2 -8 -8 -11.5t-14 -3.5zM134 220h260l-129 427zM476 -197
q-21 0 -41.5 6.5t-35 22t-14.5 42.5q0 43 21.5 79.5t56.5 66.5l29 -16q-31 -28 -52 -58.5t-21 -68.5q0 -24 17 -33.5t46 -9.5q8 0 13 -3.5t5 -12.5q0 -7 -5 -11t-19 -4z" />
    <glyph glyph-name="aogonek" unicode="&#x105;" horiz-adv-x="430" 
d="M171 -6q-58 0 -98 32.5t-40 99.5q0 53 29.5 82t82 40.5t121.5 11.5h54v26q0 35 -12.5 69t-40 56t-73.5 22q-32 0 -52.5 -6.5t-33 -14t-19.5 -7.5q-10 0 -16 9.5t-6 17.5q0 12 19.5 22.5t49.5 17t60 6.5q65 0 102.5 -27.5t54 -71t16.5 -93.5v-265q0 -8 -6.5 -14.5
t-17.5 -6.5q-10 0 -17 6.5t-7 14.5v49q-25 -29 -62.5 -52.5t-87.5 -23.5zM178 38q35 0 67.5 17.5t53.5 43t21 47.5v74h-49q-49 0 -92 -5.5t-70 -25t-27 -61.5q0 -47 28 -68.5t68 -21.5zM343 -195q-21 0 -41.5 6.5t-35 22t-14.5 42.5q0 43 21.5 79.5t56.5 66.5l29 -16
q-31 -28 -52 -58.5t-21 -68.5q0 -24 17 -33.5t46 -9.5q8 0 13 -3.5t5 -12.5q0 -7 -5 -11t-19 -4z" />
    <glyph glyph-name="Cacute" unicode="&#x106;" horiz-adv-x="518" 
d="M274 -6q-55 0 -101 21t-73 66.5t-27 121.5v319q0 76 28 121.5t74 66.5t101 21q65 0 109 -23t67 -60t23 -79q0 -20 -6 -26.5t-19 -6.5q-15 0 -20 7t-5 14q-1 17 -7 38.5t-21.5 41.5t-44.5 33t-76 13q-75 0 -114.5 -39.5t-39.5 -121.5v-319q0 -83 40 -122t118 -39
q47 0 75 12.5t42 32t19.5 42t8.5 40.5q1 9 6.5 15t18.5 6t19 -7t6 -27q0 -41 -23 -78.5t-68 -60.5t-110 -23zM226 853q-8 0 -15 7t-7 16q0 11 9 15l107 61q4 2 8 2q9 0 14 -7t5 -16q0 -13 -11 -19l-100 -56q-2 -1 -5 -2t-5 -1z" />
    <glyph glyph-name="cacute" unicode="&#x107;" horiz-adv-x="407" 
d="M237 -6q-64 0 -105.5 24t-62 66t-20.5 95v114q0 52 20 94.5t62 66.5t106 24q41 0 71.5 -10.5t47.5 -24.5t17 -26q0 -5 -3.5 -11t-8.5 -9.5t-11 -3.5q-9 0 -20.5 10t-32 19.5t-58.5 9.5q-69 0 -105 -37.5t-36 -101.5v-114q0 -64 36 -101.5t106 -37.5q40 0 61.5 10t33 20
t21.5 10q7 0 11.5 -4t8 -9t3.5 -11q0 -11 -17.5 -26t-49 -25.5t-75.5 -10.5zM186 596q-8 0 -15 7t-7 16q0 11 9 15l107 61q4 2 8 2q9 0 14 -7t5 -16q0 -13 -11 -19l-100 -56q-2 -1 -5 -2t-5 -1z" />
    <glyph glyph-name="Ccircumflex" unicode="&#x108;" horiz-adv-x="518" 
d="M274 -6q-55 0 -101 21t-73 66.5t-27 121.5v319q0 76 28 121.5t74 66.5t101 21q65 0 109 -23t67 -60t23 -79q0 -20 -6 -26.5t-19 -6.5q-15 0 -20 7t-5 14q-1 17 -7 38.5t-21.5 41.5t-44.5 33t-76 13q-75 0 -114.5 -39.5t-39.5 -121.5v-319q0 -83 40 -122t118 -39
q47 0 75 12.5t42 32t19.5 42t8.5 40.5q1 9 6.5 15t18.5 6t19 -7t6 -27q0 -41 -23 -78.5t-68 -60.5t-110 -23zM160 853q-8 0 -14 6.5t-6 16.5q0 5 3 9.5t8 7.5l104 56q8 5 17 5t17 -5l104 -55q6 -3 8.5 -8.5t2.5 -11.5q0 -8 -5.5 -14t-13.5 -6q-2 0 -4.5 1t-4.5 2l-104 55
l-104 -56l-4 -2t-4 -1z" />
    <glyph glyph-name="ccircumflex" unicode="&#x109;" horiz-adv-x="407" 
d="M237 -6q-64 0 -105.5 24t-62 66t-20.5 95v114q0 52 20 94.5t62 66.5t106 24q41 0 71.5 -10.5t47.5 -24.5t17 -26q0 -5 -3.5 -11t-8.5 -9.5t-11 -3.5q-9 0 -20.5 10t-32 19.5t-58.5 9.5q-69 0 -105 -37.5t-36 -101.5v-114q0 -64 36 -101.5t106 -37.5q40 0 61.5 10t33 20
t21.5 10q7 0 11.5 -4t8 -9t3.5 -11q0 -11 -17.5 -26t-49 -25.5t-75.5 -10.5zM121 596q-8 0 -14 6.5t-6 16.5q0 5 3 9.5t8 7.5l104 56q8 5 17 5t17 -5l104 -55q6 -3 8.5 -8.5t2.5 -11.5q0 -8 -5.5 -14t-13.5 -6q-2 0 -4.5 1t-4.5 2l-104 55l-104 -56l-4 -2t-4 -1z" />
    <glyph glyph-name="Cdotaccent" unicode="&#x10a;" horiz-adv-x="518" 
d="M274 -6q-55 0 -101 21t-73 66.5t-27 121.5v319q0 76 28 121.5t74 66.5t101 21q65 0 109 -23t67 -60t23 -79q0 -20 -6 -26.5t-19 -6.5q-15 0 -20 7t-5 14q-1 17 -7 38.5t-21.5 41.5t-44.5 33t-76 13q-75 0 -114.5 -39.5t-39.5 -121.5v-319q0 -83 40 -122t118 -39
q47 0 75 12.5t42 32t19.5 42t8.5 40.5q1 9 6.5 15t18.5 6t19 -7t6 -27q0 -41 -23 -78.5t-68 -60.5t-110 -23zM272 855q-15 0 -25.5 10.5t-10.5 25.5t10.5 25.5t25.5 10.5q16 0 26 -10.5t10 -25.5t-10 -25.5t-26 -10.5z" />
    <glyph glyph-name="cdotaccent" unicode="&#x10b;" horiz-adv-x="407" 
d="M237 -6q-64 0 -105.5 24t-62 66t-20.5 95v114q0 52 20 94.5t62 66.5t106 24q41 0 71.5 -10.5t47.5 -24.5t17 -26q0 -5 -3.5 -11t-8.5 -9.5t-11 -3.5q-9 0 -20.5 10t-32 19.5t-58.5 9.5q-69 0 -105 -37.5t-36 -101.5v-114q0 -64 36 -101.5t106 -37.5q40 0 61.5 10t33 20
t21.5 10q7 0 11.5 -4t8 -9t3.5 -11q0 -11 -17.5 -26t-49 -25.5t-75.5 -10.5zM232 598q-15 0 -25.5 10.5t-10.5 25.5t10.5 25.5t25.5 10.5q16 0 26 -10.5t10 -25.5t-10 -25.5t-26 -10.5z" />
    <glyph glyph-name="Ccaron" unicode="&#x10c;" horiz-adv-x="518" 
d="M274 -6q-55 0 -101 21t-73 66.5t-27 121.5v319q0 76 28 121.5t74 66.5t101 21q65 0 109 -23t67 -60t23 -79q0 -20 -6 -26.5t-19 -6.5q-15 0 -20 7t-5 14q-1 17 -7 38.5t-21.5 41.5t-44.5 33t-76 13q-75 0 -114.5 -39.5t-39.5 -121.5v-319q0 -83 40 -122t118 -39
q47 0 75 12.5t42 32t19.5 42t8.5 40.5q1 9 6.5 15t18.5 6t19 -7t6 -27q0 -41 -23 -78.5t-68 -60.5t-110 -23zM272 844q-12 0 -21 10l-100 96q-5 6 -7.5 10t-2.5 10t4.5 12t12.5 6t15 -7l99 -98l98 98q7 7 16 7q8 0 12.5 -6t4.5 -12t-2.5 -10t-7.5 -10l-101 -96
q-11 -10 -20 -10z" />
    <glyph glyph-name="ccaron" unicode="&#x10d;" horiz-adv-x="407" 
d="M237 -6q-64 0 -105.5 24t-62 66t-20.5 95v114q0 52 20 94.5t62 66.5t106 24q41 0 71.5 -10.5t47.5 -24.5t17 -26q0 -5 -3.5 -11t-8.5 -9.5t-11 -3.5q-9 0 -20.5 10t-32 19.5t-58.5 9.5q-69 0 -105 -37.5t-36 -101.5v-114q0 -64 36 -101.5t106 -37.5q40 0 61.5 10t33 20
t21.5 10q7 0 11.5 -4t8 -9t3.5 -11q0 -11 -17.5 -26t-49 -25.5t-75.5 -10.5zM233 587q-12 0 -21 10l-100 96q-5 6 -7.5 10t-2.5 10t4.5 12t12.5 6t15 -7l99 -98l98 98q7 7 16 7q8 0 12.5 -6t4.5 -12t-2.5 -10t-7.5 -10l-101 -96q-11 -10 -20 -10z" />
    <glyph glyph-name="Dcaron" unicode="&#x10e;" horiz-adv-x="555" 
d="M103 0q-10 0 -16.5 6t-6.5 14v691q0 8 6.5 14t16.5 6h177q57 0 103 -21t72.5 -66.5t26.5 -121.5v-313q0 -76 -26.5 -121.5t-72.5 -66.5t-103 -21h-177zM130 48h150q72 0 112 39.5t40 121.5v313q0 82 -40 121.5t-112 39.5h-150v-635zM278 844q-12 0 -21 10l-100 96
q-5 6 -7.5 10t-2.5 10t4.5 12t12.5 6t15 -7l99 -98l98 98q7 7 16 7q8 0 12.5 -6t4.5 -12t-2.5 -10t-7.5 -10l-101 -96q-11 -10 -20 -10z" />
    <glyph glyph-name="dcaron" unicode="&#x10f;" horiz-adv-x="476" 
d="M225 -6q-47 0 -88 26t-65.5 68.5t-24.5 90.5v116q0 51 24.5 92.5t65.5 66t90 24.5q50 0 83.5 -23.5t49.5 -52.5v343q0 10 7.5 15.5t17.5 5.5q11 0 17.5 -5.5t6.5 -15.5v-724q0 -8 -6.5 -14.5t-17.5 -6.5q-9 0 -16.5 6.5t-7.5 14.5v49q-15 -31 -52.5 -53.5t-83.5 -22.5z
M229 40q38 0 67.5 19.5t46.5 44.5t17 41v150q0 43 -19 73.5t-48.5 47t-62.5 16.5q-36 0 -66.5 -20t-49 -51t-18.5 -66v-116q0 -35 18.5 -67t48.5 -52t66 -20zM498 585q-7 0 -13.5 4.5t-6.5 13.5q0 4 2 7l19 51q-13 4 -21 15t-8 24q0 17 11.5 29t29.5 12q16 0 28 -12t12 -29
q0 -5 -3 -16t-7.5 -25t-11.5 -30t-15 -33q-2 -5 -6.5 -8t-9.5 -3z" />
    <glyph glyph-name="Dcroat" unicode="&#x110;" horiz-adv-x="564" 
d="M113 0q-11 0 -17.5 6t-6.5 14v342h-68q-8 0 -14 6.5t-6 15.5t6 15.5t14 6.5h68v305q0 8 6.5 14t17.5 6h177q57 0 102.5 -21t72.5 -66.5t27 -121.5v-313q0 -76 -27 -121.5t-72.5 -66.5t-102.5 -21h-177zM139 48h151q71 0 111.5 39.5t40.5 121.5v313q0 82 -40.5 121.5
t-111.5 39.5h-151v-277h123q8 0 14 -6.5t6 -15.5t-6 -15.5t-14 -6.5h-123v-314z" />
    <glyph glyph-name="dcroat" unicode="&#x111;" horiz-adv-x="476" 
d="M225 -6q-47 0 -88 26t-65.5 68.5t-24.5 90.5v116q0 51 24.5 92.5t65.5 66t90 24.5q50 0 83.5 -23.5t49.5 -52.5v177h-129q-8 0 -13.5 6t-5.5 15t5.5 15.5t13.5 6.5h129v123q0 10 7.5 15.5t17.5 5.5q11 0 17.5 -5.5t6.5 -15.5v-123h53q9 0 15 -6.5t6 -15.5t-6 -15t-15 -6
h-53v-558q0 -8 -6.5 -14.5t-17.5 -6.5q-9 0 -16.5 6.5t-7.5 14.5v49q-15 -31 -52.5 -53.5t-83.5 -22.5zM229 40q38 0 67.5 19.5t46.5 44.5t17 41v150q0 43 -19 73.5t-48.5 47t-62.5 16.5q-36 0 -66.5 -20t-49 -51t-18.5 -66v-116q0 -35 18.5 -67t48.5 -52t66 -20z" />
    <glyph glyph-name="Emacron" unicode="&#x112;" horiz-adv-x="503" 
d="M103 0q-9 0 -16 5.5t-7 15.5v689q0 10 7 15.5t16 5.5h356q11 0 16 -7.5t5 -15.5q0 -9 -5.5 -17t-15.5 -8h-329v-294h158q10 0 15.5 -7t5.5 -17q0 -8 -5 -15t-16 -7h-158v-295h329q10 0 15.5 -7.5t5.5 -17.5q0 -8 -5 -15.5t-16 -7.5h-356zM170 899q-8 0 -14 6t-6 14
q0 10 6 16t14 6h218q8 0 15 -6t7 -16q0 -8 -7 -14t-15 -6h-218z" />
    <glyph glyph-name="emacron" unicode="&#x113;" horiz-adv-x="451" 
d="M256 -6q-61 0 -107.5 23t-73.5 64.5t-27 97.5v119q0 49 25.5 90t67 65.5t91.5 24.5q49 0 90 -23.5t66.5 -64t25.5 -93.5q0 -37 -12.5 -53.5t-31.5 -20t-41 -3.5h-232v-42q0 -64 46 -101.5t115 -37.5q41 0 63 10t34 20t22 10q7 0 12 -4t8 -9.5t3 -10.5q0 -10 -17.5 -25
t-49.5 -25.5t-77 -10.5zM97 261h213q34 0 45 7t11 29q0 34 -16.5 65.5t-47 51.5t-70.5 20q-38 0 -68.5 -18t-48.5 -48t-18 -66v-41zM122 642q-8 0 -14 6t-6 14q0 10 6 16t14 6h218q8 0 15 -6t7 -16q0 -8 -7 -14t-15 -6h-218z" />
    <glyph glyph-name="Ebreve" unicode="&#x114;" horiz-adv-x="503" 
d="M103 0q-9 0 -16 5.5t-7 15.5v689q0 10 7 15.5t16 5.5h356q11 0 16 -7.5t5 -15.5q0 -9 -5.5 -17t-15.5 -8h-329v-294h158q10 0 15.5 -7t5.5 -17q0 -8 -5 -15t-16 -7h-158v-295h329q10 0 15.5 -7.5t5.5 -17.5q0 -8 -5 -15.5t-16 -7.5h-356zM281 856q-40 0 -72 27.5
t-40 66.5q-1 9 4 14t13 5h4q7 0 11.5 -4.5t5.5 -11.5q5 -28 26 -47t48 -19q26 0 47 19t25 47q2 7 6 11.5t11 4.5h4q8 0 13.5 -5.5t4.5 -13.5q-8 -39 -40.5 -66.5t-70.5 -27.5z" />
    <glyph glyph-name="ebreve" unicode="&#x115;" horiz-adv-x="451" 
d="M256 -6q-61 0 -107.5 23t-73.5 64.5t-27 97.5v119q0 49 25.5 90t67 65.5t91.5 24.5q49 0 90 -23.5t66.5 -64t25.5 -93.5q0 -37 -12.5 -53.5t-31.5 -20t-41 -3.5h-232v-42q0 -64 46 -101.5t115 -37.5q41 0 63 10t34 20t22 10q7 0 12 -4t8 -9.5t3 -10.5q0 -10 -17.5 -25
t-49.5 -25.5t-77 -10.5zM97 261h213q34 0 45 7t11 29q0 34 -16.5 65.5t-47 51.5t-70.5 20q-38 0 -68.5 -18t-48.5 -48t-18 -66v-41zM233 599q-40 0 -72 27.5t-40 66.5q-1 9 4 14t13 5h4q7 0 11.5 -4.5t5.5 -11.5q5 -28 26 -47t48 -19q26 0 47 19t25 47q2 7 6 11.5t11 4.5h4
q8 0 13.5 -5.5t4.5 -13.5q-8 -39 -40.5 -66.5t-70.5 -27.5z" />
    <glyph glyph-name="Edotaccent" unicode="&#x116;" horiz-adv-x="503" 
d="M103 0q-9 0 -16 5.5t-7 15.5v689q0 10 7 15.5t16 5.5h356q11 0 16 -7.5t5 -15.5q0 -9 -5.5 -17t-15.5 -8h-329v-294h158q10 0 15.5 -7t5.5 -17q0 -8 -5 -15t-16 -7h-158v-295h329q10 0 15.5 -7.5t5.5 -17.5q0 -8 -5 -15.5t-16 -7.5h-356zM280 855q-15 0 -25.5 10.5
t-10.5 25.5t10.5 25.5t25.5 10.5q16 0 26 -10.5t10 -25.5t-10 -25.5t-26 -10.5z" />
    <glyph glyph-name="edotaccent" unicode="&#x117;" horiz-adv-x="451" 
d="M256 -6q-61 0 -107.5 23t-73.5 64.5t-27 97.5v119q0 49 25.5 90t67 65.5t91.5 24.5q49 0 90 -23.5t66.5 -64t25.5 -93.5q0 -37 -12.5 -53.5t-31.5 -20t-41 -3.5h-232v-42q0 -64 46 -101.5t115 -37.5q41 0 63 10t34 20t22 10q7 0 12 -4t8 -9.5t3 -10.5q0 -10 -17.5 -25
t-49.5 -25.5t-77 -10.5zM97 261h213q34 0 45 7t11 29q0 34 -16.5 65.5t-47 51.5t-70.5 20q-38 0 -68.5 -18t-48.5 -48t-18 -66v-41zM232 598q-15 0 -25.5 10.5t-10.5 25.5t10.5 25.5t25.5 10.5q16 0 26 -10.5t10 -25.5t-10 -25.5t-26 -10.5z" />
    <glyph glyph-name="Eogonek" unicode="&#x118;" horiz-adv-x="503" 
d="M103 0q-9 0 -16 5.5t-7 15.5v689q0 10 7 15.5t16 5.5h356q11 0 16 -7.5t5 -15.5q0 -9 -5.5 -17t-15.5 -8h-329v-294h158q10 0 15.5 -7t5.5 -17q0 -8 -5 -15t-16 -7h-158v-295h329q10 0 15.5 -7.5t5.5 -17.5q0 -8 -5 -15.5t-16 -7.5h-356zM453 -198q-21 0 -41.5 6.5
t-35 22t-14.5 42.5q0 43 21.5 79.5t56.5 66.5l29 -16q-31 -28 -52 -58.5t-21 -68.5q0 -24 17 -33.5t46 -9.5q8 0 13 -3.5t5 -12.5q0 -7 -5 -11t-19 -4z" />
    <glyph glyph-name="eogonek" unicode="&#x119;" horiz-adv-x="451" 
d="M256 -6q-61 0 -107.5 23t-73.5 64.5t-27 97.5v119q0 49 25.5 90t67 65.5t91.5 24.5q49 0 90 -23.5t66.5 -64t25.5 -93.5q0 -37 -12.5 -53.5t-31.5 -20t-41 -3.5h-232v-42q0 -64 46 -101.5t115 -37.5q41 0 63 10t34 20t22 10q7 0 12 -4t8 -9.5t3 -10.5q0 -10 -17.5 -25
t-49.5 -25.5t-77 -10.5zM97 261h213q34 0 45 7t11 29q0 34 -16.5 65.5t-47 51.5t-70.5 20q-38 0 -68.5 -18t-48.5 -48t-18 -66v-41zM355 -174q-21 0 -41.5 6.5t-35 22t-14.5 42.5q0 43 21.5 79.5t56.5 66.5l29 -16q-31 -28 -52 -58.5t-21 -68.5q0 -24 17 -33.5t46 -9.5
q8 0 13 -3.5t5 -12.5q0 -7 -5 -11t-19 -4z" />
    <glyph glyph-name="Ecaron" unicode="&#x11a;" horiz-adv-x="503" 
d="M103 0q-9 0 -16 5.5t-7 15.5v689q0 10 7 15.5t16 5.5h356q11 0 16 -7.5t5 -15.5q0 -9 -5.5 -17t-15.5 -8h-329v-294h158q10 0 15.5 -7t5.5 -17q0 -8 -5 -15t-16 -7h-158v-295h329q10 0 15.5 -7.5t5.5 -17.5q0 -8 -5 -15.5t-16 -7.5h-356zM281 844q-12 0 -21 10l-100 96
q-5 6 -7.5 10t-2.5 10t4.5 12t12.5 6t15 -7l99 -98l98 98q7 7 16 7q8 0 12.5 -6t4.5 -12t-2.5 -10t-7.5 -10l-101 -96q-11 -10 -20 -10z" />
    <glyph glyph-name="ecaron" unicode="&#x11b;" horiz-adv-x="451" 
d="M256 -6q-61 0 -107.5 23t-73.5 64.5t-27 97.5v119q0 49 25.5 90t67 65.5t91.5 24.5q49 0 90 -23.5t66.5 -64t25.5 -93.5q0 -37 -12.5 -53.5t-31.5 -20t-41 -3.5h-232v-42q0 -64 46 -101.5t115 -37.5q41 0 63 10t34 20t22 10q7 0 12 -4t8 -9.5t3 -10.5q0 -10 -17.5 -25
t-49.5 -25.5t-77 -10.5zM97 261h213q34 0 45 7t11 29q0 34 -16.5 65.5t-47 51.5t-70.5 20q-38 0 -68.5 -18t-48.5 -48t-18 -66v-41zM233 587q-12 0 -21 10l-100 96q-5 6 -7.5 10t-2.5 10t4.5 12t12.5 6t15 -7l99 -98l98 98q7 7 16 7q8 0 12.5 -6t4.5 -12t-2.5 -10t-7.5 -10
l-101 -96q-11 -10 -20 -10z" />
    <glyph glyph-name="Gcircumflex" unicode="&#x11c;" horiz-adv-x="536" 
d="M273 -6q-56 0 -101.5 21t-72 66.5t-26.5 121.5v319q0 76 26.5 121.5t72 66.5t101.5 21q63 0 108 -22t69.5 -60.5t24.5 -86.5q0 -14 -7 -20t-18 -6q-10 0 -17 5t-8 16q-5 42 -24 70t-51.5 42t-76.5 14q-71 0 -111 -39.5t-40 -121.5v-319q0 -82 40 -121.5t111 -39.5
t111.5 39.5t40.5 121.5v135h-147q-10 0 -15.5 7t-5.5 16t5.5 16t15.5 7h177q9 0 14.5 -6.5t5.5 -15.5v-159q0 -76 -26.5 -121.5t-72.5 -66.5t-103 -21zM164 853q-8 0 -14 6.5t-6 16.5q0 5 3 9.5t8 7.5l104 56q8 5 17 5t17 -5l104 -55q6 -3 8.5 -8.5t2.5 -11.5q0 -8 -5.5 -14
t-13.5 -6q-2 0 -4.5 1t-4.5 2l-104 55l-104 -56l-4 -2t-4 -1z" />
    <glyph glyph-name="gcircumflex" unicode="&#x11d;" horiz-adv-x="450" 
d="M228 -235q-58 0 -103 16.5t-70 45.5t-25 69q0 45 27 71.5t61 38.5q-26 9 -42 24t-16 46q0 28 13.5 44t35.5 27q-26 22 -39.5 54.5t-13.5 71.5v41q0 48 20.5 85t58 58t87.5 21q36 0 66 -11.5t52 -33.5q14 28 34.5 45t38.5 17q13 0 19 -7t6 -16t-5 -14t-13 -6
q-12 -1 -28 -10t-30 -35q14 -18 20.5 -42t6.5 -51v-41q0 -47 -21 -85t-59.5 -59.5t-87.5 -21.5q-45 0 -80 19q-13 -7 -24 -16.5t-11 -27.5q0 -24 22.5 -34t58.5 -14t75.5 -8.5t75.5 -16t58.5 -36t22.5 -69.5t-24 -76t-67 -47t-100 -16zM227 -195q69 0 106.5 26.5t37.5 70.5
q0 34 -21 51.5t-53 25t-65 10t-57 5.5q-38 -11 -67.5 -32.5t-29.5 -60.5q0 -43 39.5 -69.5t109.5 -26.5zM223 148q55 0 86.5 35.5t31.5 89.5v41q0 53 -31.5 88t-87.5 35t-87 -35t-31 -88v-40q0 -53 31 -89.5t88 -36.5zM110 596q-8 0 -14 6.5t-6 16.5q0 5 3 9.5t8 7.5l104 56
q8 5 17 5t17 -5l104 -55q6 -3 8.5 -8.5t2.5 -11.5q0 -8 -5.5 -14t-13.5 -6q-2 0 -4.5 1t-4.5 2l-104 55l-104 -56l-4 -2t-4 -1z" />
    <glyph glyph-name="Gbreve" unicode="&#x11e;" horiz-adv-x="536" 
d="M273 -6q-56 0 -101.5 21t-72 66.5t-26.5 121.5v319q0 76 26.5 121.5t72 66.5t101.5 21q63 0 108 -22t69.5 -60.5t24.5 -86.5q0 -14 -7 -20t-18 -6q-10 0 -17 5t-8 16q-5 42 -24 70t-51.5 42t-76.5 14q-71 0 -111 -39.5t-40 -121.5v-319q0 -82 40 -121.5t111 -39.5
t111.5 39.5t40.5 121.5v135h-147q-10 0 -15.5 7t-5.5 16t5.5 16t15.5 7h177q9 0 14.5 -6.5t5.5 -15.5v-159q0 -76 -26.5 -121.5t-72.5 -66.5t-103 -21zM276 856q-40 0 -72 27.5t-40 66.5q-1 9 4 14t13 5h4q7 0 11.5 -4.5t5.5 -11.5q5 -28 26 -47t48 -19q26 0 47 19t25 47
q2 7 6 11.5t11 4.5h4q8 0 13.5 -5.5t4.5 -13.5q-8 -39 -40.5 -66.5t-70.5 -27.5z" />
    <glyph glyph-name="gbreve" unicode="&#x11f;" horiz-adv-x="450" 
d="M228 -235q-58 0 -103 16.5t-70 45.5t-25 69q0 45 27 71.5t61 38.5q-26 9 -42 24t-16 46q0 28 13.5 44t35.5 27q-26 22 -39.5 54.5t-13.5 71.5v41q0 48 20.5 85t58 58t87.5 21q36 0 66 -11.5t52 -33.5q14 28 34.5 45t38.5 17q13 0 19 -7t6 -16t-5 -14t-13 -6
q-12 -1 -28 -10t-30 -35q14 -18 20.5 -42t6.5 -51v-41q0 -47 -21 -85t-59.5 -59.5t-87.5 -21.5q-45 0 -80 19q-13 -7 -24 -16.5t-11 -27.5q0 -24 22.5 -34t58.5 -14t75.5 -8.5t75.5 -16t58.5 -36t22.5 -69.5t-24 -76t-67 -47t-100 -16zM227 -195q69 0 106.5 26.5t37.5 70.5
q0 34 -21 51.5t-53 25t-65 10t-57 5.5q-38 -11 -67.5 -32.5t-29.5 -60.5q0 -43 39.5 -69.5t109.5 -26.5zM223 148q55 0 86.5 35.5t31.5 89.5v41q0 53 -31.5 88t-87.5 35t-87 -35t-31 -88v-40q0 -53 31 -89.5t88 -36.5zM222 599q-40 0 -72 27.5t-40 66.5q-1 9 4 14t13 5h4
q7 0 11.5 -4.5t5.5 -11.5q5 -28 26 -47t48 -19q26 0 47 19t25 47q2 7 6 11.5t11 4.5h4q8 0 13.5 -5.5t4.5 -13.5q-8 -39 -40.5 -66.5t-70.5 -27.5z" />
    <glyph glyph-name="Gdotaccent" unicode="&#x120;" horiz-adv-x="536" 
d="M273 -6q-56 0 -101.5 21t-72 66.5t-26.5 121.5v319q0 76 26.5 121.5t72 66.5t101.5 21q63 0 108 -22t69.5 -60.5t24.5 -86.5q0 -14 -7 -20t-18 -6q-10 0 -17 5t-8 16q-5 42 -24 70t-51.5 42t-76.5 14q-71 0 -111 -39.5t-40 -121.5v-319q0 -82 40 -121.5t111 -39.5
t111.5 39.5t40.5 121.5v135h-147q-10 0 -15.5 7t-5.5 16t5.5 16t15.5 7h177q9 0 14.5 -6.5t5.5 -15.5v-159q0 -76 -26.5 -121.5t-72.5 -66.5t-103 -21zM275 855q-15 0 -25.5 10.5t-10.5 25.5t10.5 25.5t25.5 10.5q16 0 26 -10.5t10 -25.5t-10 -25.5t-26 -10.5z" />
    <glyph glyph-name="gdotaccent" unicode="&#x121;" horiz-adv-x="450" 
d="M228 -235q-58 0 -103 16.5t-70 45.5t-25 69q0 45 27 71.5t61 38.5q-26 9 -42 24t-16 46q0 28 13.5 44t35.5 27q-26 22 -39.5 54.5t-13.5 71.5v41q0 48 20.5 85t58 58t87.5 21q36 0 66 -11.5t52 -33.5q14 28 34.5 45t38.5 17q13 0 19 -7t6 -16t-5 -14t-13 -6
q-12 -1 -28 -10t-30 -35q14 -18 20.5 -42t6.5 -51v-41q0 -47 -21 -85t-59.5 -59.5t-87.5 -21.5q-45 0 -80 19q-13 -7 -24 -16.5t-11 -27.5q0 -24 22.5 -34t58.5 -14t75.5 -8.5t75.5 -16t58.5 -36t22.5 -69.5t-24 -76t-67 -47t-100 -16zM227 -195q69 0 106.5 26.5t37.5 70.5
q0 34 -21 51.5t-53 25t-65 10t-57 5.5q-38 -11 -67.5 -32.5t-29.5 -60.5q0 -43 39.5 -69.5t109.5 -26.5zM223 148q55 0 86.5 35.5t31.5 89.5v41q0 53 -31.5 88t-87.5 35t-87 -35t-31 -88v-40q0 -53 31 -89.5t88 -36.5zM222 598q-15 0 -25.5 10.5t-10.5 25.5t10.5 25.5
t25.5 10.5q16 0 26 -10.5t10 -25.5t-10 -25.5t-26 -10.5z" />
    <glyph glyph-name="uni0122" unicode="&#x122;" horiz-adv-x="536" 
d="M273 -6q-56 0 -101.5 21t-72 66.5t-26.5 121.5v319q0 76 26.5 121.5t72 66.5t101.5 21q63 0 108 -22t69.5 -60.5t24.5 -86.5q0 -14 -7 -20t-18 -6q-10 0 -17 5t-8 16q-5 42 -24 70t-51.5 42t-76.5 14q-71 0 -111 -39.5t-40 -121.5v-319q0 -82 40 -121.5t111 -39.5
t111.5 39.5t40.5 121.5v135h-147q-10 0 -15.5 7t-5.5 16t5.5 16t15.5 7h177q9 0 14.5 -6.5t5.5 -15.5v-159q0 -76 -26.5 -121.5t-72.5 -66.5t-103 -21zM219 -149q-9 0 -16 7t-7 16q0 11 10 15l106 61q5 2 8 2q9 0 14.5 -7t5.5 -16q0 -13 -12 -20l-100 -55q-2 -1 -4.5 -2
t-4.5 -1z" />
    <glyph glyph-name="uni0123" unicode="&#x123;" horiz-adv-x="450" 
d="M228 -235q-58 0 -103 16.5t-70 45.5t-25 69q0 45 27 71.5t61 38.5q-26 9 -42 24t-16 46q0 28 13.5 44t35.5 27q-26 22 -39.5 54.5t-13.5 71.5v41q0 48 20.5 85t58 58t87.5 21q36 0 66 -11.5t52 -33.5q14 28 34.5 45t38.5 17q13 0 19 -7t6 -16t-5 -14t-13 -6
q-12 -1 -28 -10t-30 -35q14 -18 20.5 -42t6.5 -51v-41q0 -47 -21 -85t-59.5 -59.5t-87.5 -21.5q-45 0 -80 19q-13 -7 -24 -16.5t-11 -27.5q0 -24 22.5 -34t58.5 -14t75.5 -8.5t75.5 -16t58.5 -36t22.5 -69.5t-24 -76t-67 -47t-100 -16zM227 -195q69 0 106.5 26.5t37.5 70.5
q0 34 -21 51.5t-53 25t-65 10t-57 5.5q-38 -11 -67.5 -32.5t-29.5 -60.5q0 -43 39.5 -69.5t109.5 -26.5zM223 148q55 0 86.5 35.5t31.5 89.5v41q0 53 -31.5 88t-87.5 35t-87 -35t-31 -88v-40q0 -53 31 -89.5t88 -36.5zM178 596q-8 0 -15 7t-7 16q0 11 9 15l107 61q4 2 7 2
q10 0 15 -7t5 -16q0 -13 -11 -19l-100 -56q-3 -1 -5.5 -2t-4.5 -1z" />
    <glyph glyph-name="Hcircumflex" unicode="&#x124;" horiz-adv-x="564" 
d="M105 0q-10 0 -17.5 5.5t-7.5 15.5v690q0 10 7.5 15t17.5 5q9 0 17 -5t8 -15v-309h305v309q0 10 7.5 15t17.5 5q9 0 17 -5t8 -15v-690q0 -10 -8 -15.5t-17 -5.5q-10 0 -17.5 5.5t-7.5 15.5v335h-305v-335q0 -10 -8 -15.5t-17 -5.5zM171 853q-8 0 -14 6.5t-6 16.5
q0 5 3 9.5t8 7.5l104 56q8 5 17 5t17 -5l104 -55q6 -3 8.5 -8.5t2.5 -11.5q0 -8 -5.5 -14t-13.5 -6q-2 0 -4.5 1t-4.5 2l-104 55l-104 -56l-4 -2t-4 -1z" />
    <glyph glyph-name="hcircumflex" unicode="&#x125;" horiz-adv-x="488" 
d="M90 0q-10 0 -17 6.5t-7 14.5v724q0 10 7 15.5t17 5.5q11 0 18 -5.5t7 -15.5v-343q17 29 50.5 52.5t82.5 23.5t89.5 -24.5t65 -66t24.5 -92.5v-274q0 -10 -7.5 -15.5t-17.5 -5.5q-8 0 -16 5.5t-8 15.5v274q0 35 -18.5 66t-48.5 51t-67 20q-32 0 -61.5 -16.5t-48.5 -47
t-19 -73.5v-274q0 -8 -7 -14.5t-18 -6.5zM-23 878q-8 0 -14 6.5t-6 16.5q0 5 3 9.5t8 7.5l104 56q8 5 17 5t17 -5l104 -55q6 -3 8.5 -8.5t2.5 -11.5q0 -8 -5.5 -14t-13.5 -6q-2 0 -4.5 1t-4.5 2l-104 55l-104 -56l-4 -2t-4 -1z" />
    <glyph glyph-name="Hbar" unicode="&#x126;" horiz-adv-x="565" 
d="M105 0q-10 0 -17.5 5.5t-7.5 15.5v521h-40q-9 0 -14.5 6t-5.5 14q0 10 5.5 16t14.5 6h40v127q0 10 7.5 15t17.5 5q9 0 17 -5t8 -15v-127h305v127q0 10 7.5 15t17.5 5q9 0 17 -5t8 -15v-127h39q9 0 14.5 -6t5.5 -16q0 -8 -5.5 -14t-14.5 -6h-39v-521q0 -10 -8 -15.5
t-17 -5.5q-10 0 -17.5 5.5t-7.5 15.5v335h-305v-335q0 -10 -8 -15.5t-17 -5.5zM130 402h305v140h-305v-140z" />
    <glyph glyph-name="hbar" unicode="&#x127;" horiz-adv-x="488" 
d="M90 0q-10 0 -17 6.5t-7 14.5v566h-31q-8 0 -14 6t-6 14q0 10 6 16t14 6h31v116q0 10 7 15.5t17 5.5q11 0 18 -5.5t7 -15.5v-116h138q8 0 15 -6t7 -16q0 -8 -7 -14t-15 -6h-138v-185q17 29 50.5 52.5t82.5 23.5t89.5 -24.5t65 -66t24.5 -92.5v-274q0 -10 -7.5 -15.5
t-17.5 -5.5q-8 0 -16 5.5t-8 15.5v274q0 35 -18.5 66t-48.5 51t-67 20q-32 0 -61.5 -16.5t-48.5 -47t-19 -73.5v-274q0 -8 -7 -14.5t-18 -6.5z" />
    <glyph glyph-name="Itilde" unicode="&#x128;" horiz-adv-x="209" 
d="M105 0q-10 0 -17.5 5.5t-7.5 15.5v690q0 10 7.5 15t17.5 5q9 0 17 -5t8 -15v-690q0 -10 -8 -15.5t-17 -5.5zM171 871q-25 0 -44.5 9.5t-39.5 18t-47 8.5q-21 0 -34.5 -8t-21.5 -16.5t-15 -8.5q-4 0 -8 3t-6 8t-2 10q0 12 8.5 21.5t23 17t29.5 11.5t28 4q25 0 44.5 -8.5
t39.5 -18t45 -9.5q23 0 34 8t18 15.5t15 7.5q6 0 9.5 -3t5.5 -7t2 -9q0 -14 -8.5 -23.5t-22 -16.5t-28 -10.5t-25.5 -3.5z" />
    <glyph glyph-name="itilde" unicode="&#x129;" horiz-adv-x="180" 
d="M89 0q-10 0 -17 6.5t-7 14.5v431q0 9 7 14.5t17 5.5q11 0 18 -5.5t7 -14.5v-431q0 -8 -7 -14.5t-18 -6.5zM157 614q-25 0 -44.5 9.5t-39.5 18t-47 8.5q-21 0 -34.5 -8t-21.5 -16.5t-15 -8.5q-4 0 -8 3t-6 8t-2 10q0 12 8.5 21.5t23 17t29.5 11.5t28 4q25 0 44.5 -8.5
t39.5 -18t45 -9.5q23 0 34 8t18 15.5t15 7.5q6 0 9.5 -3t5.5 -7t2 -9q0 -14 -8.5 -23.5t-22 -16.5t-28 -10.5t-25.5 -3.5z" />
    <glyph glyph-name="Imacron" unicode="&#x12a;" horiz-adv-x="209" 
d="M105 0q-10 0 -17.5 5.5t-7.5 15.5v690q0 10 7.5 15t17.5 5q9 0 17 -5t8 -15v-690q0 -10 -8 -15.5t-17 -5.5zM-6 899q-8 0 -14 6t-6 14q0 10 6 16t14 6h218q8 0 15 -6t7 -16q0 -8 -7 -14t-15 -6h-218z" />
    <glyph glyph-name="imacron" unicode="&#x12b;" horiz-adv-x="180" 
d="M89 0q-10 0 -17 6.5t-7 14.5v431q0 9 7 14.5t17 5.5q11 0 18 -5.5t7 -14.5v-431q0 -8 -7 -14.5t-18 -6.5zM-20 642q-8 0 -14 6t-6 14q0 10 6 16t14 6h218q8 0 15 -6t7 -16q0 -8 -7 -14t-15 -6h-218z" />
    <glyph glyph-name="Ibreve" unicode="&#x12c;" horiz-adv-x="209" 
d="M105 0q-10 0 -17.5 5.5t-7.5 15.5v690q0 10 7.5 15t17.5 5q9 0 17 -5t8 -15v-690q0 -10 -8 -15.5t-17 -5.5zM105 856q-40 0 -72 27.5t-40 66.5q-1 9 4 14t13 5h4q7 0 11.5 -4.5t5.5 -11.5q5 -28 26 -47t48 -19q26 0 47 19t25 47q2 7 6 11.5t11 4.5h4q8 0 13.5 -5.5
t4.5 -13.5q-8 -39 -40.5 -66.5t-70.5 -27.5z" />
    <glyph glyph-name="ibreve" unicode="&#x12d;" horiz-adv-x="180" 
d="M89 0q-10 0 -17 6.5t-7 14.5v431q0 9 7 14.5t17 5.5q11 0 18 -5.5t7 -14.5v-431q0 -8 -7 -14.5t-18 -6.5zM91 599q-40 0 -72 27.5t-40 66.5q-1 9 4 14t13 5h4q7 0 11.5 -4.5t5.5 -11.5q5 -28 26 -47t48 -19q26 0 47 19t25 47q2 7 6 11.5t11 4.5h4q8 0 13.5 -5.5
t4.5 -13.5q-8 -39 -40.5 -66.5t-70.5 -27.5z" />
    <glyph glyph-name="Iogonek" unicode="&#x12e;" horiz-adv-x="209" 
d="M105 0q-10 0 -17.5 5.5t-7.5 15.5v690q0 10 7.5 15t17.5 5q9 0 17 -5t8 -15v-690q0 -10 -8 -15.5t-17 -5.5zM106 -194q-21 0 -41.5 6.5t-35 22t-14.5 42.5q0 43 21.5 79.5t56.5 66.5l29 -16q-31 -28 -52 -58.5t-21 -68.5q0 -24 17 -33.5t46 -9.5q8 0 13 -3.5t5 -12.5
q0 -7 -5 -11t-19 -4z" />
    <glyph glyph-name="iogonek" unicode="&#x12f;" horiz-adv-x="180" 
d="M89 0q-10 0 -17 6.5t-7 14.5v431q0 9 7 14.5t17 5.5q11 0 18 -5.5t7 -14.5v-431q0 -8 -7 -14.5t-18 -6.5zM90 598q-15 0 -25.5 10.5t-10.5 25.5t10.5 25.5t25.5 10.5q16 0 26 -10.5t10 -25.5t-10 -25.5t-26 -10.5zM91 -193q-21 0 -41.5 6.5t-35 22t-14.5 42.5
q0 43 21.5 79.5t56.5 66.5l29 -16q-31 -28 -52 -58.5t-21 -68.5q0 -24 17 -33.5t46 -9.5q8 0 13 -3.5t5 -12.5q0 -7 -5 -11t-19 -4z" />
    <glyph glyph-name="Idotaccent" unicode="&#x130;" horiz-adv-x="209" 
d="M105 0q-10 0 -17.5 5.5t-7.5 15.5v690q0 10 7.5 15t17.5 5q9 0 17 -5t8 -15v-690q0 -10 -8 -15.5t-17 -5.5zM104 855q-15 0 -25.5 10.5t-10.5 25.5t10.5 25.5t25.5 10.5q16 0 26 -10.5t10 -25.5t-10 -25.5t-26 -10.5z" />
    <glyph glyph-name="dotlessi" unicode="&#x131;" horiz-adv-x="180" 
d="M89 0q-10 0 -17 6.5t-7 14.5v431q0 9 7 14.5t17 5.5q11 0 18 -5.5t7 -14.5v-431q0 -8 -7 -14.5t-18 -6.5z" />
    <glyph glyph-name="IJ" unicode="&#x132;" horiz-adv-x="711" 
d="M105 0q-10 0 -17.5 5.5t-7.5 15.5v690q0 10 7.5 15t17.5 5q9 0 17 -5t8 -15v-690q0 -10 -8 -15.5t-17 -5.5zM435 -6q-62 0 -107.5 22.5t-70 61t-24.5 86.5q0 15 6.5 20.5t17.5 5.5q10 0 17.5 -5t8.5 -16q0 -41 19.5 -70t54 -43t77.5 -14q72 0 111.5 39.5t39.5 121.5v480
h-150q-10 0 -15.5 8t-5.5 17q0 8 5 15.5t16 7.5h176q10 0 17 -5.5t7 -15.5v-507q0 -76 -26.5 -121.5t-72 -66.5t-101.5 -21z" />
    <glyph glyph-name="ij" unicode="&#x133;" horiz-adv-x="358" 
d="M90 621q-15 0 -26.5 11t-11.5 26t11.5 25t26.5 10q16 0 26.5 -10t10.5 -25t-10.5 -26t-26.5 -11zM89 0q-10 0 -17 6.5t-7 14.5v431q0 9 7 14.5t17 5.5q11 0 18 -5.5t7 -14.5v-431q0 -8 -7 -14.5t-18 -6.5zM165 -235q-12 0 -18.5 7.5t-6.5 16.5q0 10 6.5 16t15.5 6
q36 0 53 18.5t22 51t5 73.5v498q0 9 7 14.5t17 5.5q11 0 18 -5.5t7 -14.5v-498q0 -55 -12 -98t-40 -67t-74 -24zM266 621q-15 0 -26.5 11t-11.5 26t11.5 25t26.5 10q16 0 26.5 -10t10.5 -25t-10.5 -26t-26.5 -11z" />
    <glyph glyph-name="Jcircumflex" unicode="&#x134;" horiz-adv-x="502" 
d="M226 -6q-62 0 -107.5 22.5t-70 61t-24.5 86.5q0 15 6.5 20.5t17.5 5.5q10 0 17.5 -5t8.5 -16q0 -41 19.5 -70t54 -43t77.5 -14q72 0 111.5 39.5t39.5 121.5v480h-150q-10 0 -15.5 8t-5.5 17q0 8 5 15.5t16 7.5h176q10 0 17 -5.5t7 -15.5v-507q0 -76 -26.5 -121.5
t-72 -66.5t-101.5 -21zM139 853q-8 0 -14 6.5t-6 16.5q0 5 3 9.5t8 7.5l104 56q8 5 17 5t17 -5l104 -55q6 -3 8.5 -8.5t2.5 -11.5q0 -8 -5.5 -14t-13.5 -6q-2 0 -4.5 1t-4.5 2l-104 55l-104 -56l-4 -2t-4 -1z" />
    <glyph glyph-name="jcircumflex" unicode="&#x135;" horiz-adv-x="181" 
d="M-11 -235q-12 0 -18.5 7.5t-6.5 16.5q0 10 6.5 16t15.5 6q36 0 53 18.5t22 51t5 73.5v498q0 9 7 14.5t17 5.5q11 0 18 -5.5t7 -14.5v-498q0 -55 -12 -98t-40 -67t-74 -24zM-22 596q-8 0 -14 6.5t-6 16.5q0 5 3 9.5t8 7.5l104 56q8 5 17 5t17 -5l104 -55q6 -3 8.5 -8.5
t2.5 -11.5q0 -8 -5.5 -14t-13.5 -6q-2 0 -4.5 1t-4.5 2l-104 55l-104 -56l-4 -2t-4 -1z" />
    <glyph glyph-name="uni0136" unicode="&#x136;" horiz-adv-x="515" 
d="M105 0q-10 0 -17.5 5.5t-7.5 15.5v690q0 10 7.5 15t17.5 5q9 0 17 -5t8 -15v-375l307 387q6 8 17 8q7 0 13 -3.5t10 -9.5t4 -13q0 -3 -1.5 -6.5t-3.5 -5.5l-223 -278l252 -380q3 -5 3 -11t-3.5 -12t-10 -9.5t-13.5 -3.5q-6 0 -11 3t-9 9l-242 362l-89 -112v-240
q0 -10 -8 -15.5t-17 -5.5zM208 -149q-9 0 -16 7t-7 16q0 11 10 15l106 61q5 2 8 2q9 0 14.5 -7t5.5 -16q0 -13 -12 -20l-100 -55q-2 -1 -4.5 -2t-4.5 -1z" />
    <glyph glyph-name="uni0137" unicode="&#x137;" horiz-adv-x="445" 
d="M90 0q-10 0 -17 6.5t-7 14.5v724q0 10 7 15.5t17 5.5q11 0 18 -5.5t7 -15.5v-503l258 226q7 5 13 5t11.5 -2.5t9.5 -7.5t4 -13q0 -4 -1 -8.5t-6 -7.5l-154 -135l179 -264q4 -5 4 -11t-3.5 -12t-9.5 -9.5t-13 -3.5q-10 0 -16 10l-177 259l-99 -87v-160q0 -8 -7 -14.5
t-18 -6.5zM174 -149q-9 0 -16 7t-7 16q0 11 10 15l106 61q5 2 8 2q9 0 14.5 -7t5.5 -16q0 -13 -12 -20l-100 -55q-2 -1 -4.5 -2t-4.5 -1z" />
    <glyph glyph-name="kgreenlandic" unicode="&#x138;" horiz-adv-x="444" 
d="M89 0q-10 0 -17 6.5t-7 14.5v431q0 9 7 14.5t17 5.5q11 0 18 -5.5t7 -14.5v-210l258 226q7 5 13 5t11.5 -2.5t9.5 -7.5t4 -13q0 -4 -1 -8.5t-6 -7.5l-154 -135l179 -264q4 -5 4 -11t-3.5 -12t-9.5 -9.5t-13 -3.5q-10 0 -16 10l-177 259l-99 -87v-160q0 -8 -7 -14.5
t-18 -6.5z" />
    <glyph glyph-name="Lacute" unicode="&#x139;" horiz-adv-x="457" 
d="M103 0q-9 0 -16 5.5t-7 15.5v690q0 10 7.5 15t17.5 5q9 0 17 -5t8 -15v-663h295q9 0 13.5 -7.5t4.5 -16.5t-4.5 -16.5t-13.5 -7.5h-322zM211 853q-8 0 -15 7t-7 16q0 11 9 15l107 61q4 2 8 2q9 0 14 -7t5 -16q0 -13 -11 -19l-100 -56q-2 -1 -5 -2t-5 -1z" />
    <glyph glyph-name="lacute" unicode="&#x13a;" horiz-adv-x="198" 
d="M98 0q-10 0 -17 6.5t-7 14.5v724q0 10 7 15.5t17 5.5q11 0 18 -5.5t7 -15.5v-724q0 -8 -7 -14.5t-18 -6.5zM53 807q-8 0 -15 7t-7 16q0 11 9 15l107 61q4 2 8 2q9 0 14 -7t5 -16q0 -13 -11 -19l-100 -56q-2 -1 -5 -2t-5 -1z" />
    <glyph glyph-name="uni013B" unicode="&#x13b;" horiz-adv-x="457" 
d="M103 0q-9 0 -16 5.5t-7 15.5v690q0 10 7.5 15t17.5 5q9 0 17 -5t8 -15v-663h295q9 0 13.5 -7.5t4.5 -16.5t-4.5 -16.5t-13.5 -7.5h-322zM203 -149q-9 0 -16 7t-7 16q0 11 10 15l106 61q5 2 8 2q9 0 14.5 -7t5.5 -16q0 -13 -12 -20l-100 -55q-2 -1 -4.5 -2t-4.5 -1z" />
    <glyph glyph-name="uni013C" unicode="&#x13c;" horiz-adv-x="198" 
d="M98 0q-10 0 -17 6.5t-7 14.5v724q0 10 7 15.5t17 5.5q11 0 18 -5.5t7 -15.5v-724q0 -8 -7 -14.5t-18 -6.5zM50 -149q-9 0 -16 7t-7 16q0 11 10 15l106 61q5 2 8 2q9 0 14.5 -7t5.5 -16q0 -13 -12 -20l-100 -55q-2 -1 -4.5 -2t-4.5 -1z" />
    <glyph glyph-name="Lcaron" unicode="&#x13d;" horiz-adv-x="458" 
d="M103 0q-9 0 -16 5.5t-7 15.5v690q0 10 7.5 15t17.5 5q9 0 17 -5t8 -15v-663h295q9 0 13.5 -7.5t4.5 -16.5t-4.5 -16.5t-13.5 -7.5h-322zM319 585q-7 0 -13.5 4.5t-6.5 13.5q0 4 2 7l19 51q-13 4 -21 15t-8 24q0 17 11.5 29t29.5 12q16 0 28 -12t12 -29q0 -5 -3 -16
t-7.5 -25t-11.5 -30t-15 -33q-2 -5 -6.5 -8t-9.5 -3z" />
    <glyph glyph-name="lcaron" unicode="&#x13e;" horiz-adv-x="198" 
d="M98 0q-10 0 -17 6.5t-7 14.5v724q0 10 7 15.5t17 5.5q11 0 18 -5.5t7 -15.5v-724q0 -8 -7 -14.5t-18 -6.5zM218 585q-7 0 -13.5 4.5t-6.5 13.5q0 4 2 7l19 51q-13 4 -21 15t-8 24q0 17 11.5 29t29.5 12q16 0 28 -12t12 -29q0 -5 -3 -16t-7.5 -25t-11.5 -30t-15 -33
q-2 -5 -6.5 -8t-9.5 -3z" />
    <glyph glyph-name="Ldot" unicode="&#x13f;" horiz-adv-x="458" 
d="M103 0q-9 0 -16 5.5t-7 15.5v690q0 10 7.5 15t17.5 5q9 0 17 -5t8 -15v-663h295q9 0 13.5 -7.5t4.5 -16.5t-4.5 -16.5t-13.5 -7.5h-322zM329 381q-18 0 -29.5 12t-11.5 28q0 17 11.5 28.5t29.5 11.5q16 0 28 -11.5t12 -28.5q0 -16 -12 -28t-28 -12z" />
    <glyph glyph-name="ldot" unicode="&#x140;" horiz-adv-x="298" 
d="M98 0q-10 0 -17 6.5t-7 14.5v724q0 10 7 15.5t17 5.5q11 0 18 -5.5t7 -15.5v-724q0 -8 -7 -14.5t-18 -6.5zM247 260q-18 0 -29.5 12t-11.5 28q0 17 11.5 28.5t29.5 11.5q17 0 29 -11.5t12 -28.5q0 -16 -12 -28t-29 -12z" />
    <glyph glyph-name="Lslash" unicode="&#x141;" horiz-adv-x="463" 
d="M109 0q-9 0 -16 5.5t-7 15.5v276l-51 -29q-5 -3 -10 -3q-8 0 -14.5 8t-6.5 17q0 4 2.5 9t7.5 7l72 41v364q0 10 7.5 15t17.5 5q9 0 17 -5t8 -15v-338l106 62q4 2 10 2t10.5 -3t7.5 -8t3 -12q0 -12 -10 -18l-127 -72v-276h295q9 0 13.5 -7.5t4.5 -16.5t-4.5 -16.5
t-13.5 -7.5h-322z" />
    <glyph glyph-name="lslash" unicode="&#x142;" horiz-adv-x="302" 
d="M145 0q-10 0 -17 6.5t-7 14.5v287l-71 -40q-5 -3 -10 -3q-7 0 -14 8t-7 17q0 4 3 9t7 7l92 52v387q0 10 7 15.5t17 5.5q11 0 18 -5.5t7 -15.5v-361l84 49q4 2 10 2t10.5 -3t7.5 -8t3 -11q0 -13 -10 -18l-105 -60v-314q0 -8 -7 -14.5t-18 -6.5z" />
    <glyph glyph-name="Nacute" unicode="&#x143;" horiz-adv-x="564" 
d="M105 0q-10 0 -17.5 5.5t-7.5 15.5v689q0 12 7.5 16.5t17.5 4.5q9 0 16.5 -6.5t13.5 -16t10 -18.5l290 -571v592q0 10 7.5 15t17.5 5q9 0 17 -5t8 -15v-690q0 -10 -8 -15.5t-17 -5.5q-12 0 -21 12.5t-15 24.5l-294 576v-592q0 -10 -8 -15.5t-17 -5.5zM237 853q-8 0 -15 7
t-7 16q0 11 9 15l107 61q4 2 8 2q9 0 14 -7t5 -16q0 -13 -11 -19l-100 -56q-2 -1 -5 -2t-5 -1z" />
    <glyph glyph-name="nacute" unicode="&#x144;" horiz-adv-x="487" 
d="M89 0q-10 0 -17 6.5t-7 14.5v431q0 9 7 14.5t17 5.5q11 0 17.5 -5.5t6.5 -14.5v-50q17 29 50.5 52.5t83.5 23.5q49 0 89.5 -24.5t65 -66t24.5 -92.5v-274q0 -10 -7.5 -15.5t-17.5 -5.5q-8 0 -16 5.5t-8 15.5v274q0 35 -18.5 66t-48.5 51t-67 20q-32 0 -61.5 -16.5
t-48.5 -47t-19 -73.5v-274q0 -8 -7 -14.5t-18 -6.5zM198 594q-8 0 -15 7t-7 16q0 11 9 15l107 61q4 2 8 2q9 0 14 -7t5 -16q0 -13 -11 -19l-100 -56q-2 -1 -5 -2t-5 -1z" />
    <glyph glyph-name="uni0145" unicode="&#x145;" horiz-adv-x="564" 
d="M105 0q-10 0 -17.5 5.5t-7.5 15.5v689q0 12 7.5 16.5t17.5 4.5q9 0 16.5 -6.5t13.5 -16t10 -18.5l290 -571v592q0 10 7.5 15t17.5 5q9 0 17 -5t8 -15v-690q0 -10 -8 -15.5t-17 -5.5q-12 0 -21 12.5t-15 24.5l-294 576v-592q0 -10 -8 -15.5t-17 -5.5zM233 -149q-9 0 -16 7
t-7 16q0 11 10 15l106 61q5 2 8 2q9 0 14.5 -7t5.5 -16q0 -13 -12 -20l-100 -55q-2 -1 -4.5 -2t-4.5 -1z" />
    <glyph glyph-name="uni0146" unicode="&#x146;" horiz-adv-x="487" 
d="M89 0q-10 0 -17 6.5t-7 14.5v431q0 9 7 14.5t17 5.5q11 0 17.5 -5.5t6.5 -14.5v-50q17 29 50.5 52.5t83.5 23.5q49 0 89.5 -24.5t65 -66t24.5 -92.5v-274q0 -10 -7.5 -15.5t-17.5 -5.5q-8 0 -16 5.5t-8 15.5v274q0 35 -18.5 66t-48.5 51t-67 20q-32 0 -61.5 -16.5
t-48.5 -47t-19 -73.5v-274q0 -8 -7 -14.5t-18 -6.5zM195 -149q-9 0 -16 7t-7 16q0 11 10 15l106 61q5 2 8 2q9 0 14.5 -7t5.5 -16q0 -13 -12 -20l-100 -55q-2 -1 -4.5 -2t-4.5 -1z" />
    <glyph glyph-name="Ncaron" unicode="&#x147;" horiz-adv-x="564" 
d="M105 0q-10 0 -17.5 5.5t-7.5 15.5v689q0 12 7.5 16.5t17.5 4.5q9 0 16.5 -6.5t13.5 -16t10 -18.5l290 -571v592q0 10 7.5 15t17.5 5q9 0 17 -5t8 -15v-690q0 -10 -8 -15.5t-17 -5.5q-12 0 -21 12.5t-15 24.5l-294 576v-592q0 -10 -8 -15.5t-17 -5.5zM283 844
q-12 0 -21 10l-100 96q-5 6 -7.5 10t-2.5 10t4.5 12t12.5 6t15 -7l99 -98l98 98q7 7 16 7q8 0 12.5 -6t4.5 -12t-2.5 -10t-7.5 -10l-101 -96q-11 -10 -20 -10z" />
    <glyph glyph-name="ncaron" unicode="&#x148;" horiz-adv-x="487" 
d="M89 0q-10 0 -17 6.5t-7 14.5v431q0 9 7 14.5t17 5.5q11 0 17.5 -5.5t6.5 -14.5v-50q17 29 50.5 52.5t83.5 23.5q49 0 89.5 -24.5t65 -66t24.5 -92.5v-274q0 -10 -7.5 -15.5t-17.5 -5.5q-8 0 -16 5.5t-8 15.5v274q0 35 -18.5 66t-48.5 51t-67 20q-32 0 -61.5 -16.5
t-48.5 -47t-19 -73.5v-274q0 -8 -7 -14.5t-18 -6.5zM244 585q-12 0 -21 10l-100 96q-5 6 -7.5 10t-2.5 10t4.5 12t12.5 6t15 -7l99 -98l98 98q7 7 16 7q8 0 12.5 -6t4.5 -12t-2.5 -10t-7.5 -10l-101 -96q-11 -10 -20 -10z" />
    <glyph glyph-name="Eng" unicode="&#x14a;" horiz-adv-x="564" 
d="M358 -235q-12 0 -18.5 7.5t-6.5 16.5q0 10 7 16t16 6q35 0 52 18.5t22.5 51t5.5 73.5v47q0 6 -2.5 14.5t-9.5 21.5l-294 576v-592q0 -10 -8 -15.5t-17 -5.5q-10 0 -17.5 5.5t-7.5 15.5v689q0 12 7.5 16.5t17.5 4.5q9 0 16.5 -6.5t13.5 -16t10 -18.5l290 -571v592
q0 10 7.5 15t17.5 5q9 0 17 -5t8 -15v-757q0 -55 -12.5 -98t-40 -67t-74.5 -24z" />
    <glyph glyph-name="eng" unicode="&#x14b;" horiz-adv-x="487" 
d="M300 -235q-12 0 -19 7.5t-7 16.5q0 10 7 16t16 6q36 0 53 18.5t22 51t5 73.5v341q0 35 -18.5 66t-48.5 51t-67 20q-32 0 -61.5 -16.5t-48.5 -47t-19 -73.5v-274q0 -8 -7 -14.5t-18 -6.5q-10 0 -17 6.5t-7 14.5v431q0 9 7 14.5t17 5.5q11 0 17.5 -5.5t6.5 -14.5v-50
q17 29 50.5 52.5t83.5 23.5q49 0 89.5 -24.5t65 -66t24.5 -92.5v-341q0 -55 -12.5 -98t-40 -67t-73.5 -24z" />
    <glyph glyph-name="Omacron" unicode="&#x14c;" horiz-adv-x="548" 
d="M273 -6q-56 0 -101.5 21t-72 66.5t-26.5 121.5v319q0 76 26.5 121.5t72 66.5t101.5 21q57 0 103 -21t72.5 -66.5t26.5 -121.5v-319q0 -76 -26.5 -121.5t-72.5 -66.5t-103 -21zM273 42q71 0 111.5 39.5t40.5 121.5v319q0 82 -40 121.5t-112 39.5q-71 0 -111 -39.5
t-40 -121.5v-319q0 -82 40 -121.5t111 -39.5zM164 899q-8 0 -14 6t-6 14q0 10 6 16t14 6h218q8 0 15 -6t7 -16q0 -8 -7 -14t-15 -6h-218z" />
    <glyph glyph-name="omacron" unicode="&#x14d;" horiz-adv-x="461" 
d="M230 -6q-48 0 -90 26t-67.5 68t-25.5 91v116q0 49 25 91t67 67t91 25q50 0 91.5 -24.5t67 -66t25.5 -92.5v-116q0 -48 -25.5 -90.5t-67 -68.5t-91.5 -26zM230 40q38 0 68 20t48.5 52t18.5 67v116q0 35 -18 66t-48.5 51t-68.5 20t-68 -20t-48 -51t-18 -66v-116
q0 -35 18 -67t48.5 -52t67.5 -20zM121 642q-8 0 -14 6t-6 14q0 10 6 16t14 6h218q8 0 15 -6t7 -16q0 -8 -7 -14t-15 -6h-218z" />
    <glyph glyph-name="Obreve" unicode="&#x14e;" horiz-adv-x="548" 
d="M273 -6q-56 0 -101.5 21t-72 66.5t-26.5 121.5v319q0 76 26.5 121.5t72 66.5t101.5 21q57 0 103 -21t72.5 -66.5t26.5 -121.5v-319q0 -76 -26.5 -121.5t-72.5 -66.5t-103 -21zM273 42q71 0 111.5 39.5t40.5 121.5v319q0 82 -40 121.5t-112 39.5q-71 0 -111 -39.5
t-40 -121.5v-319q0 -82 40 -121.5t111 -39.5zM275 856q-40 0 -72 27.5t-40 66.5q-1 9 4 14t13 5h4q7 0 11.5 -4.5t5.5 -11.5q5 -28 26 -47t48 -19q26 0 47 19t25 47q2 7 6 11.5t11 4.5h4q8 0 13.5 -5.5t4.5 -13.5q-8 -39 -40.5 -66.5t-70.5 -27.5z" />
    <glyph glyph-name="obreve" unicode="&#x14f;" horiz-adv-x="461" 
d="M230 -6q-48 0 -90 26t-67.5 68t-25.5 91v116q0 49 25 91t67 67t91 25q50 0 91.5 -24.5t67 -66t25.5 -92.5v-116q0 -48 -25.5 -90.5t-67 -68.5t-91.5 -26zM230 40q38 0 68 20t48.5 52t18.5 67v116q0 35 -18 66t-48.5 51t-68.5 20t-68 -20t-48 -51t-18 -66v-116
q0 -35 18 -67t48.5 -52t67.5 -20zM231 599q-40 0 -72 27.5t-40 66.5q-1 9 4 14t13 5h4q7 0 11.5 -4.5t5.5 -11.5q5 -28 26 -47t48 -19q26 0 47 19t25 47q2 7 6 11.5t11 4.5h4q8 0 13.5 -5.5t4.5 -13.5q-8 -39 -40.5 -66.5t-70.5 -27.5z" />
    <glyph glyph-name="Ohungarumlaut" unicode="&#x150;" horiz-adv-x="548" 
d="M273 -6q-56 0 -101.5 21t-72 66.5t-26.5 121.5v319q0 76 26.5 121.5t72 66.5t101.5 21q57 0 103 -21t72.5 -66.5t26.5 -121.5v-319q0 -76 -26.5 -121.5t-72.5 -66.5t-103 -21zM273 42q71 0 111.5 39.5t40.5 121.5v319q0 82 -40 121.5t-112 39.5q-71 0 -111 -39.5
t-40 -121.5v-319q0 -82 40 -121.5t111 -39.5zM318 855q-9 0 -15.5 6.5t-6.5 14.5q0 9 7 13l100 64q2 2 4.5 2.5t3.5 0.5q9 0 14.5 -6.5t5.5 -14.5q0 -11 -10 -18l-93 -58q-4 -4 -10 -4zM169 855q-8 0 -15 6.5t-7 14.5q0 9 8 13l99 64q3 2 5 2.5t4 0.5q9 0 14 -6.5t5 -14.5
q0 -11 -9 -18l-93 -58q-5 -4 -11 -4z" />
    <glyph glyph-name="ohungarumlaut" unicode="&#x151;" horiz-adv-x="461" 
d="M230 -6q-48 0 -90 26t-67.5 68t-25.5 91v116q0 49 25 91t67 67t91 25q50 0 91.5 -24.5t67 -66t25.5 -92.5v-116q0 -48 -25.5 -90.5t-67 -68.5t-91.5 -26zM230 40q38 0 68 20t48.5 52t18.5 67v116q0 35 -18 66t-48.5 51t-68.5 20t-68 -20t-48 -51t-18 -66v-116
q0 -35 18 -67t48.5 -52t67.5 -20zM275 598q-9 0 -15.5 6.5t-6.5 14.5q0 9 7 13l100 64q2 2 4.5 2.5t3.5 0.5q9 0 14.5 -6.5t5.5 -14.5q0 -11 -10 -18l-93 -58q-4 -4 -10 -4zM126 598q-8 0 -15 6.5t-7 14.5q0 9 8 13l99 64q3 2 5 2.5t4 0.5q9 0 14 -6.5t5 -14.5q0 -11 -9 -18
l-93 -58q-5 -4 -11 -4z" />
    <glyph glyph-name="OE" unicode="&#x152;" horiz-adv-x="843" 
d="M270 -6q-56 0 -100.5 21t-70.5 66.5t-26 121.5v319q0 76 26 121.5t70.5 66.5t100.5 21q49 0 91 -17t68 -55v51q0 10 7 15.5t16 5.5h347q11 0 16 -7.5t5 -15.5q0 -9 -5.5 -17t-15.5 -8h-324v-294h153q10 0 15.5 -7t5.5 -17q0 -8 -5 -15t-16 -7h-153v-295h324
q10 0 15.5 -7.5t5.5 -17.5q0 -8 -5 -15.5t-16 -7.5h-347q-9 0 -16 5.5t-7 15.5v45q-26 -38 -68 -55t-91 -17zM273 42q72 0 112 39.5t40 121.5v319q0 82 -40 121.5t-112 39.5q-71 0 -110.5 -39.5t-39.5 -121.5v-319q0 -82 39.5 -121.5t110.5 -39.5z" />
    <glyph glyph-name="oe" unicode="&#x153;" horiz-adv-x="768" 
d="M230 -6q-48 0 -90 25.5t-67.5 68t-25.5 91.5v116q0 49 25 91t67 67t91 25q51 0 94 -27t66 -72q22 44 64.5 71.5t94.5 27.5q48 0 89.5 -23.5t66.5 -63.5t25 -92q0 -38 -11.5 -55t-30.5 -20.5t-42 -3.5h-232v-42q0 -64 45.5 -101.5t118.5 -37.5q40 0 60.5 10t32 20t22.5 10
q7 0 12 -3t8.5 -9t3.5 -14q0 -10 -19 -24t-51 -24.5t-75 -10.5q-63 0 -111 26.5t-72 73.5q-23 -44 -65.5 -72t-93.5 -28zM230 40q38 0 68 20t48.5 52t18.5 67v116q0 35 -18 66t-48.5 51t-68.5 20t-68 -20t-48 -51t-18 -66v-116q0 -35 18 -67t48.5 -52t67.5 -20zM414 261h213
q34 0 45 7t11 29q0 34 -17 65.5t-47 51.5t-70 20q-38 0 -68.5 -17.5t-48.5 -46.5t-18 -64v-45z" />
    <glyph glyph-name="Racute" unicode="&#x154;" horiz-adv-x="518" 
d="M457 -1q-11 0 -18.5 12.5l-13.5 22.5l-157 307h-138v-320q0 -10 -8 -15.5t-17 -5.5q-10 0 -17.5 5.5t-7.5 15.5v690q0 8 5.5 13.5t15.5 6.5h172q56 0 104 -17.5t77 -60t29 -116.5q0 -63 -21.5 -103t-58 -60.5t-82.5 -27.5l160 -310q2 -3 2.5 -6t0.5 -5q0 -7 -4 -12.5
t-10 -9.5t-13 -4zM130 387h143q71 0 115.5 34.5t44.5 114.5q0 79 -44.5 113t-115.5 34h-143v-296zM231 853q-8 0 -15 7t-7 16q0 11 9 15l107 61q4 2 8 2q9 0 14 -7t5 -16q0 -13 -11 -19l-100 -56q-2 -1 -5 -2t-5 -1z" />
    <glyph glyph-name="racute" unicode="&#x155;" horiz-adv-x="318" 
d="M89 0q-10 0 -17 6.5t-7 14.5v431q0 9 7 14.5t17 5.5q11 0 17.5 -5.5t6.5 -14.5v-51q12 20 31 37.5t45.5 28.5t60.5 11h36q9 0 15 -6.5t6 -16.5t-6 -16.5t-15 -6.5h-36q-34 0 -65.5 -17.5t-51 -50t-19.5 -78.5v-265q0 -8 -7 -14.5t-18 -6.5zM112 596q-8 0 -15 7t-7 16
q0 11 9 15l107 61q4 2 8 2q9 0 14 -7t5 -16q0 -13 -11 -19l-100 -56q-2 -1 -5 -2t-5 -1z" />
    <glyph glyph-name="uni0156" unicode="&#x156;" horiz-adv-x="518" 
d="M457 -1q-11 0 -18.5 12.5l-13.5 22.5l-157 307h-138v-320q0 -10 -8 -15.5t-17 -5.5q-10 0 -17.5 5.5t-7.5 15.5v690q0 8 5.5 13.5t15.5 6.5h172q56 0 104 -17.5t77 -60t29 -116.5q0 -63 -21.5 -103t-58 -60.5t-82.5 -27.5l160 -310q2 -3 2.5 -6t0.5 -5q0 -7 -4 -12.5
t-10 -9.5t-13 -4zM130 387h143q71 0 115.5 34.5t44.5 114.5q0 79 -44.5 113t-115.5 34h-143v-296zM198 -149q-9 0 -16 7t-7 16q0 11 10 15l106 61q5 2 8 2q9 0 14.5 -7t5.5 -16q0 -13 -12 -20l-100 -55q-2 -1 -4.5 -2t-4.5 -1z" />
    <glyph glyph-name="uni0157" unicode="&#x157;" horiz-adv-x="318" 
d="M89 0q-10 0 -17 6.5t-7 14.5v431q0 9 7 14.5t17 5.5q11 0 17.5 -5.5t6.5 -14.5v-51q12 20 31 37.5t45.5 28.5t60.5 11h36q9 0 15 -6.5t6 -16.5t-6 -16.5t-15 -6.5h-36q-34 0 -65.5 -17.5t-51 -50t-19.5 -78.5v-265q0 -8 -7 -14.5t-18 -6.5zM18 -149q-9 0 -16 7t-7 16
q0 11 10 15l106 61q5 2 8 2q9 0 14.5 -7t5.5 -16q0 -13 -12 -20l-100 -55q-2 -1 -4.5 -2t-4.5 -1z" />
    <glyph glyph-name="Rcaron" unicode="&#x158;" horiz-adv-x="518" 
d="M457 -1q-11 0 -18.5 12.5l-13.5 22.5l-157 307h-138v-320q0 -10 -8 -15.5t-17 -5.5q-10 0 -17.5 5.5t-7.5 15.5v690q0 8 5.5 13.5t15.5 6.5h172q56 0 104 -17.5t77 -60t29 -116.5q0 -63 -21.5 -103t-58 -60.5t-82.5 -27.5l160 -310q2 -3 2.5 -6t0.5 -5q0 -7 -4 -12.5
t-10 -9.5t-13 -4zM130 387h143q71 0 115.5 34.5t44.5 114.5q0 79 -44.5 113t-115.5 34h-143v-296zM277 844q-12 0 -21 10l-100 96q-5 6 -7.5 10t-2.5 10t4.5 12t12.5 6t15 -7l99 -98l98 98q7 7 16 7q8 0 12.5 -6t4.5 -12t-2.5 -10t-7.5 -10l-101 -96q-11 -10 -20 -10z" />
    <glyph glyph-name="rcaron" unicode="&#x159;" horiz-adv-x="318" 
d="M89 0q-10 0 -17 6.5t-7 14.5v431q0 9 7 14.5t17 5.5q11 0 17.5 -5.5t6.5 -14.5v-51q12 20 31 37.5t45.5 28.5t60.5 11h36q9 0 15 -6.5t6 -16.5t-6 -16.5t-15 -6.5h-36q-34 0 -65.5 -17.5t-51 -50t-19.5 -78.5v-265q0 -8 -7 -14.5t-18 -6.5zM163 587q-12 0 -21 10l-100 96
q-5 6 -7.5 10t-2.5 10t4.5 12t12.5 6t15 -7l99 -98l98 98q7 7 16 7q8 0 12.5 -6t4.5 -12t-2.5 -10t-7.5 -10l-101 -96q-11 -10 -20 -10z" />
    <glyph glyph-name="Sacute" unicode="&#x15a;" horiz-adv-x="487" 
d="M238 -6q-64 0 -108.5 19t-67.5 44.5t-23 40.5q0 6 4 13t9 11t10 4q9 0 18.5 -12.5t26.5 -29.5t47 -29.5t79 -12.5q51 0 86.5 17t54 50.5t18.5 82.5q0 52 -18.5 83.5t-48 51t-65 32t-71 25.5t-65.5 32.5t-48.5 52.5t-18.5 86q0 54 19.5 88.5t50.5 54t66 27t68 7.5
q30 0 58.5 -5t52.5 -12.5t38 -17.5t14 -21q0 -6 -3 -12.5t-8 -11.5t-12 -5q-8 0 -24 9.5t-44 19t-73 9.5q-36 0 -71.5 -11t-58.5 -38t-23 -77q0 -43 18.5 -69t48.5 -42t65 -27.5t71 -26.5t65.5 -38t48 -61t18.5 -98q0 -71 -26.5 -116t-72 -66t-105.5 -21zM198 853
q-8 0 -15 7t-7 16q0 11 9 15l107 61q4 2 8 2q9 0 14 -7t5 -16q0 -13 -11 -19l-100 -56q-2 -1 -5 -2t-5 -1z" />
    <glyph glyph-name="sacute" unicode="&#x15b;" horiz-adv-x="380" 
d="M187 -6q-46 0 -79.5 11.5t-52.5 27t-19 29.5q0 5 2.5 10t7 9t8.5 4q10 0 23 -11.5t38 -23.5t71 -12q60 0 85 23t25 54q0 36 -17.5 56.5t-46.5 31.5t-60.5 19.5t-60.5 21.5t-47 37t-18 65q0 30 16 61t49.5 51t87.5 20q32 0 61 -6.5t48 -17t19 -21.5q0 -4 -3 -10.5
t-7.5 -11t-11.5 -4.5t-20 7t-34 13.5t-51 6.5q-39 0 -62.5 -14t-34 -34t-10.5 -39q0 -30 18 -47t46.5 -26.5t60.5 -18.5t60.5 -24t46.5 -41.5t18 -72.5q0 -56 -41 -89.5t-115 -33.5zM144 594q-8 0 -15 7t-7 16q0 11 9 15l107 61q4 2 8 2q9 0 14 -7t5 -16q0 -13 -11 -19
l-100 -56q-2 -1 -5 -2t-5 -1z" />
    <glyph glyph-name="Scircumflex" unicode="&#x15c;" horiz-adv-x="487" 
d="M238 -6q-64 0 -108.5 19t-67.5 44.5t-23 40.5q0 6 4 13t9 11t10 4q9 0 18.5 -12.5t26.5 -29.5t47 -29.5t79 -12.5q51 0 86.5 17t54 50.5t18.5 82.5q0 52 -18.5 83.5t-48 51t-65 32t-71 25.5t-65.5 32.5t-48.5 52.5t-18.5 86q0 54 19.5 88.5t50.5 54t66 27t68 7.5
q30 0 58.5 -5t52.5 -12.5t38 -17.5t14 -21q0 -6 -3 -12.5t-8 -11.5t-12 -5q-8 0 -24 9.5t-44 19t-73 9.5q-36 0 -71.5 -11t-58.5 -38t-23 -77q0 -43 18.5 -69t48.5 -42t65 -27.5t71 -26.5t65.5 -38t48 -61t18.5 -98q0 -71 -26.5 -116t-72 -66t-105.5 -21zM132 853
q-8 0 -14 6.5t-6 16.5q0 5 3 9.5t8 7.5l104 56q8 5 17 5t17 -5l104 -55q6 -3 8.5 -8.5t2.5 -11.5q0 -8 -5.5 -14t-13.5 -6q-2 0 -4.5 1t-4.5 2l-104 55l-104 -56l-4 -2t-4 -1z" />
    <glyph glyph-name="scircumflex" unicode="&#x15d;" horiz-adv-x="380" 
d="M187 -6q-46 0 -79.5 11.5t-52.5 27t-19 29.5q0 5 2.5 10t7 9t8.5 4q10 0 23 -11.5t38 -23.5t71 -12q60 0 85 23t25 54q0 36 -17.5 56.5t-46.5 31.5t-60.5 19.5t-60.5 21.5t-47 37t-18 65q0 30 16 61t49.5 51t87.5 20q32 0 61 -6.5t48 -17t19 -21.5q0 -4 -3 -10.5
t-7.5 -11t-11.5 -4.5t-20 7t-34 13.5t-51 6.5q-39 0 -62.5 -14t-34 -34t-10.5 -39q0 -30 18 -47t46.5 -26.5t60.5 -18.5t60.5 -24t46.5 -41.5t18 -72.5q0 -56 -41 -89.5t-115 -33.5zM78 594q-8 0 -14 6.5t-6 16.5q0 5 3 9.5t8 7.5l104 56q8 5 17 5t17 -5l104 -55
q6 -3 8.5 -8.5t2.5 -11.5q0 -8 -5.5 -14t-13.5 -6q-2 0 -4.5 1t-4.5 2l-104 55l-104 -56l-4 -2t-4 -1z" />
    <glyph glyph-name="Scedilla" unicode="&#x15e;" horiz-adv-x="487" 
d="M238 -6q-64 0 -108.5 19t-67.5 44.5t-23 40.5q0 6 4 13t9 11t10 4q9 0 18.5 -12.5t26.5 -29.5t47 -29.5t79 -12.5q51 0 86.5 17t54 50.5t18.5 82.5q0 52 -18.5 83.5t-48 51t-65 32t-71 25.5t-65.5 32.5t-48.5 52.5t-18.5 86q0 54 19.5 88.5t50.5 54t66 27t68 7.5
q30 0 58.5 -5t52.5 -12.5t38 -17.5t14 -21q0 -6 -3 -12.5t-8 -11.5t-12 -5q-8 0 -24 9.5t-44 19t-73 9.5q-36 0 -71.5 -11t-58.5 -38t-23 -77q0 -43 18.5 -69t48.5 -42t65 -27.5t71 -26.5t65.5 -38t48 -61t18.5 -98q0 -71 -26.5 -116t-72 -66t-105.5 -21zM278 -208
q-13 0 -31 2.5t-31.5 8t-13.5 13.5q0 4 2 9t5 8.5t7 3.5q5 0 18 -6.5t38 -6.5q30 0 42 12t12 28q0 22 -18 32t-49 12l-33 2l25 99h35l-18 -72q51 -1 73 -22.5t22 -48.5q0 -18 -9.5 -35t-28.5 -28t-47 -11z" />
    <glyph glyph-name="scedilla" unicode="&#x15f;" horiz-adv-x="380" 
d="M187 -6q-46 0 -79.5 11.5t-52.5 27t-19 29.5q0 5 2.5 10t7 9t8.5 4q10 0 23 -11.5t38 -23.5t71 -12q60 0 85 23t25 54q0 36 -17.5 56.5t-46.5 31.5t-60.5 19.5t-60.5 21.5t-47 37t-18 65q0 30 16 61t49.5 51t87.5 20q32 0 61 -6.5t48 -17t19 -21.5q0 -4 -3 -10.5
t-7.5 -11t-11.5 -4.5t-20 7t-34 13.5t-51 6.5q-39 0 -62.5 -14t-34 -34t-10.5 -39q0 -30 18 -47t46.5 -26.5t60.5 -18.5t60.5 -24t46.5 -41.5t18 -72.5q0 -56 -41 -89.5t-115 -33.5zM207 -208q-13 0 -31 2.5t-31.5 8t-13.5 13.5q0 4 2 9t5 8.5t7 3.5q5 0 18 -6.5t38 -6.5
q30 0 42 12t12 28q0 22 -18 32t-49 12l-33 2l25 99h35l-18 -72q51 -1 73 -22.5t22 -48.5q0 -18 -9.5 -35t-28.5 -28t-47 -11z" />
    <glyph glyph-name="Scaron" unicode="&#x160;" horiz-adv-x="487" 
d="M238 -6q-64 0 -108.5 19t-67.5 44.5t-23 40.5q0 6 4 13t9 11t10 4q9 0 18.5 -12.5t26.5 -29.5t47 -29.5t79 -12.5q51 0 86.5 17t54 50.5t18.5 82.5q0 52 -18.5 83.5t-48 51t-65 32t-71 25.5t-65.5 32.5t-48.5 52.5t-18.5 86q0 54 19.5 88.5t50.5 54t66 27t68 7.5
q30 0 58.5 -5t52.5 -12.5t38 -17.5t14 -21q0 -6 -3 -12.5t-8 -11.5t-12 -5q-8 0 -24 9.5t-44 19t-73 9.5q-36 0 -71.5 -11t-58.5 -38t-23 -77q0 -43 18.5 -69t48.5 -42t65 -27.5t71 -26.5t65.5 -38t48 -61t18.5 -98q0 -71 -26.5 -116t-72 -66t-105.5 -21zM244 844
q-12 0 -21 10l-100 96q-5 6 -7.5 10t-2.5 10t4.5 12t12.5 6t15 -7l99 -98l98 98q7 7 16 7q8 0 12.5 -6t4.5 -12t-2.5 -10t-7.5 -10l-101 -96q-11 -10 -20 -10z" />
    <glyph glyph-name="scaron" unicode="&#x161;" horiz-adv-x="380" 
d="M187 -6q-46 0 -79.5 11.5t-52.5 27t-19 29.5q0 5 2.5 10t7 9t8.5 4q10 0 23 -11.5t38 -23.5t71 -12q60 0 85 23t25 54q0 36 -17.5 56.5t-46.5 31.5t-60.5 19.5t-60.5 21.5t-47 37t-18 65q0 30 16 61t49.5 51t87.5 20q32 0 61 -6.5t48 -17t19 -21.5q0 -4 -3 -10.5
t-7.5 -11t-11.5 -4.5t-20 7t-34 13.5t-51 6.5q-39 0 -62.5 -14t-34 -34t-10.5 -39q0 -30 18 -47t46.5 -26.5t60.5 -18.5t60.5 -24t46.5 -41.5t18 -72.5q0 -56 -41 -89.5t-115 -33.5zM191 585q-12 0 -21 10l-100 96q-5 6 -7.5 10t-2.5 10t4.5 12t12.5 6t15 -7l99 -98l98 98
q7 7 16 7q8 0 12.5 -6t4.5 -12t-2.5 -10t-7.5 -10l-101 -96q-11 -10 -20 -10z" />
    <glyph glyph-name="uni021A" unicode="&#x162;" horiz-adv-x="465" 
d="M233 0q-10 0 -17.5 5.5t-7.5 15.5v662h-173q-10 0 -16 7.5t-6 16.5t6 16.5t16 7.5h395q11 0 16.5 -7t5.5 -16q0 -10 -5 -17.5t-17 -7.5h-172v-662q0 -10 -7.5 -15.5t-17.5 -5.5zM184 -149q-9 0 -16 7t-7 16q0 11 10 15l106 61q5 2 8 2q9 0 14.5 -7t5.5 -16q0 -13 -12 -20
l-100 -55q-2 -1 -4.5 -2t-4.5 -1z" />
    <glyph glyph-name="uni021B" unicode="&#x163;" horiz-adv-x="283" 
d="M215 0q-74 0 -113 34t-39 108v538q0 10 8 15.5t16 5.5q10 0 17.5 -5.5t7.5 -15.5v-208h133q8 0 13.5 -6t5.5 -16q0 -8 -5.5 -14.5t-13.5 -6.5h-133v-287q0 -52 23.5 -74t79.5 -22h25q11 0 17 -6.5t6 -16.5q0 -9 -6 -16t-17 -7h-25zM92 -149q-9 0 -16 7t-7 16q0 11 10 15
l106 61q5 2 8 2q9 0 14.5 -7t5.5 -16q0 -13 -12 -20l-100 -55q-2 -1 -4.5 -2t-4.5 -1z" />
    <glyph glyph-name="Tcaron" unicode="&#x164;" horiz-adv-x="465" 
d="M233 0q-10 0 -17.5 5.5t-7.5 15.5v662h-173q-10 0 -16 7.5t-6 16.5t6 16.5t16 7.5h395q11 0 16.5 -7t5.5 -16q0 -10 -5 -17.5t-17 -7.5h-172v-662q0 -10 -7.5 -15.5t-17.5 -5.5zM233 844q-12 0 -21 10l-100 96q-5 6 -7.5 10t-2.5 10t4.5 12t12.5 6t15 -7l99 -98l98 98
q7 7 16 7q8 0 12.5 -6t4.5 -12t-2.5 -10t-7.5 -10l-101 -96q-11 -10 -20 -10z" />
    <glyph glyph-name="tcaron" unicode="&#x165;" horiz-adv-x="283" 
d="M215 0q-74 0 -113 34t-39 108v538q0 10 8 15.5t16 5.5q10 0 17.5 -5.5t7.5 -15.5v-208h133q8 0 13.5 -6t5.5 -16q0 -8 -5.5 -14.5t-13.5 -6.5h-133v-287q0 -52 23.5 -74t79.5 -22h25q11 0 17 -6.5t6 -16.5q0 -9 -6 -16t-17 -7h-25zM210 588q-7 0 -13.5 4.5t-6.5 13.5
q0 4 2 7l19 51q-13 4 -21 15t-8 24q0 17 11.5 29t29.5 12q16 0 28 -12t12 -29q0 -5 -3 -16t-7.5 -25t-11.5 -30t-15 -33q-2 -5 -6.5 -8t-9.5 -3z" />
    <glyph glyph-name="Tbar" unicode="&#x166;" horiz-adv-x="469" 
d="M235 0q-10 0 -17.5 5.5t-7.5 15.5v322h-139q-9 0 -14.5 6.5t-5.5 15.5t5.5 15.5t14.5 6.5h139v296h-174q-9 0 -15 7.5t-6 16.5t5.5 16.5t15.5 7.5h396q11 0 16.5 -7t5.5 -16q0 -10 -5 -17.5t-17 -7.5h-172v-296h137q11 0 16 -6.5t5 -14.5q0 -9 -5 -16t-16 -7h-137v-322
q0 -10 -8 -15.5t-17 -5.5z" />
    <glyph glyph-name="tbar" unicode="&#x167;" horiz-adv-x="286" 
d="M215 0q-74 0 -113 34t-39 108v538q0 10 8 15.5t16 5.5q10 0 17.5 -5.5t7.5 -15.5v-208h133q8 0 13.5 -6t5.5 -16q0 -8 -5.5 -14.5t-13.5 -6.5h-133v-109h133q8 0 13.5 -6.5t5.5 -15.5t-5.5 -15.5t-13.5 -6.5h-133v-134q0 -52 23.5 -74t79.5 -22h25q11 0 17 -6.5t6 -16.5
q0 -9 -6 -16t-17 -7h-25z" />
    <glyph glyph-name="Utilde" unicode="&#x168;" horiz-adv-x="556" 
d="M277 -6q-56 0 -102 21t-72.5 66.5t-26.5 121.5v508q0 10 7.5 15t17.5 5q9 0 17 -5t8 -15v-508q0 -82 40 -121.5t111 -39.5q72 0 112.5 39.5t40.5 121.5v508q0 10 7.5 15t17.5 5q9 0 17 -5t8 -15v-508q0 -76 -27 -121.5t-73 -66.5t-103 -21zM345 871q-25 0 -44.5 9.5
t-39.5 18t-47 8.5q-21 0 -34.5 -8t-21.5 -16.5t-15 -8.5q-4 0 -8 3t-6 8t-2 10q0 12 8.5 21.5t23 17t29.5 11.5t28 4q25 0 44.5 -8.5t39.5 -18t45 -9.5q23 0 34 8t18 15.5t15 7.5q6 0 9.5 -3t5.5 -7t2 -9q0 -14 -8.5 -23.5t-22 -16.5t-28 -10.5t-25.5 -3.5z" />
    <glyph glyph-name="utilde" unicode="&#x169;" horiz-adv-x="489" 
d="M245 -6q-50 0 -92 25.5t-67 67.5t-25 90v274q0 8 7.5 14.5t17.5 6.5t17 -6.5t7 -14.5v-274q0 -35 18 -66t48.5 -51t68.5 -20t68 19.5t48 51t18 66.5v275q0 8 7.5 14t17.5 6q11 0 17.5 -6t6.5 -14v-275q0 -49 -25 -91t-66.5 -67t-91.5 -25zM312 612q-25 0 -44.5 9.5
t-39.5 18t-47 8.5q-21 0 -34.5 -8t-21.5 -16.5t-15 -8.5q-4 0 -8 3t-6 8t-2 10q0 12 8.5 21.5t23 17t29.5 11.5t28 4q25 0 44.5 -8.5t39.5 -18t45 -9.5q23 0 34 8t18 15.5t15 7.5q6 0 9.5 -3t5.5 -7t2 -9q0 -14 -8.5 -23.5t-22 -16.5t-28 -10.5t-25.5 -3.5z" />
    <glyph glyph-name="Umacron" unicode="&#x16a;" horiz-adv-x="556" 
d="M277 -6q-56 0 -102 21t-72.5 66.5t-26.5 121.5v508q0 10 7.5 15t17.5 5q9 0 17 -5t8 -15v-508q0 -82 40 -121.5t111 -39.5q72 0 112.5 39.5t40.5 121.5v508q0 10 7.5 15t17.5 5q9 0 17 -5t8 -15v-508q0 -76 -27 -121.5t-73 -66.5t-103 -21zM168 899q-8 0 -14 6t-6 14
q0 10 6 16t14 6h218q8 0 15 -6t7 -16q0 -8 -7 -14t-15 -6h-218z" />
    <glyph glyph-name="umacron" unicode="&#x16b;" horiz-adv-x="489" 
d="M245 -6q-50 0 -92 25.5t-67 67.5t-25 90v274q0 8 7.5 14.5t17.5 6.5t17 -6.5t7 -14.5v-274q0 -35 18 -66t48.5 -51t68.5 -20t68 19.5t48 51t18 66.5v275q0 8 7.5 14t17.5 6q11 0 17.5 -6t6.5 -14v-275q0 -49 -25 -91t-66.5 -67t-91.5 -25zM135 640q-8 0 -14 6t-6 14
q0 10 6 16t14 6h218q8 0 15 -6t7 -16q0 -8 -7 -14t-15 -6h-218z" />
    <glyph glyph-name="Ubreve" unicode="&#x16c;" horiz-adv-x="556" 
d="M277 -6q-56 0 -102 21t-72.5 66.5t-26.5 121.5v508q0 10 7.5 15t17.5 5q9 0 17 -5t8 -15v-508q0 -82 40 -121.5t111 -39.5q72 0 112.5 39.5t40.5 121.5v508q0 10 7.5 15t17.5 5q9 0 17 -5t8 -15v-508q0 -76 -27 -121.5t-73 -66.5t-103 -21zM279 856q-40 0 -72 27.5
t-40 66.5q-1 9 4 14t13 5h4q7 0 11.5 -4.5t5.5 -11.5q5 -28 26 -47t48 -19q26 0 47 19t25 47q2 7 6 11.5t11 4.5h4q8 0 13.5 -5.5t4.5 -13.5q-8 -39 -40.5 -66.5t-70.5 -27.5z" />
    <glyph glyph-name="ubreve" unicode="&#x16d;" horiz-adv-x="489" 
d="M245 -6q-50 0 -92 25.5t-67 67.5t-25 90v274q0 8 7.5 14.5t17.5 6.5t17 -6.5t7 -14.5v-274q0 -35 18 -66t48.5 -51t68.5 -20t68 19.5t48 51t18 66.5v275q0 8 7.5 14t17.5 6q11 0 17.5 -6t6.5 -14v-275q0 -49 -25 -91t-66.5 -67t-91.5 -25zM245 597q-40 0 -72 27.5
t-40 66.5q-1 9 4 14t13 5h4q7 0 11.5 -4.5t5.5 -11.5q5 -28 26 -47t48 -19q26 0 47 19t25 47q2 7 6 11.5t11 4.5h4q8 0 13.5 -5.5t4.5 -13.5q-8 -39 -40.5 -66.5t-70.5 -27.5z" />
    <glyph glyph-name="Uring" unicode="&#x16e;" horiz-adv-x="556" 
d="M277 -6q-56 0 -102 21t-72.5 66.5t-26.5 121.5v508q0 10 7.5 15t17.5 5q9 0 17 -5t8 -15v-508q0 -82 40 -121.5t111 -39.5q72 0 112.5 39.5t40.5 121.5v508q0 10 7.5 15t17.5 5q9 0 17 -5t8 -15v-508q0 -76 -27 -121.5t-73 -66.5t-103 -21zM278 838q-25 0 -46 13t-33 35
t-12 46t12 45t33 34t46 13q24 0 45 -12.5t33.5 -34t12.5 -45.5t-12.5 -46t-33.5 -35t-45 -13zM278 865q25 0 43.5 21t18.5 46q0 22 -18.5 42t-43.5 20q-27 0 -45 -20t-18 -42q0 -25 18.5 -46t44.5 -21z" />
    <glyph glyph-name="uring" unicode="&#x16f;" horiz-adv-x="489" 
d="M245 -6q-50 0 -92 25.5t-67 67.5t-25 90v274q0 8 7.5 14.5t17.5 6.5t17 -6.5t7 -14.5v-274q0 -35 18 -66t48.5 -51t68.5 -20t68 19.5t48 51t18 66.5v275q0 8 7.5 14t17.5 6q11 0 17.5 -6t6.5 -14v-275q0 -49 -25 -91t-66.5 -67t-91.5 -25zM245 580q-25 0 -46 13t-33 35
t-12 46t12 45t33 34t46 13q24 0 45 -12.5t33.5 -34t12.5 -45.5t-12.5 -46t-33.5 -35t-45 -13zM245 607q25 0 43.5 21t18.5 46q0 22 -18.5 42t-43.5 20q-27 0 -45 -20t-18 -42q0 -25 18.5 -46t44.5 -21z" />
    <glyph glyph-name="Uhungarumlaut" unicode="&#x170;" horiz-adv-x="556" 
d="M277 -6q-56 0 -102 21t-72.5 66.5t-26.5 121.5v508q0 10 7.5 15t17.5 5q9 0 17 -5t8 -15v-508q0 -82 40 -121.5t111 -39.5q72 0 112.5 39.5t40.5 121.5v508q0 10 7.5 15t17.5 5q9 0 17 -5t8 -15v-508q0 -76 -27 -121.5t-73 -66.5t-103 -21zM322 855q-9 0 -15.5 6.5
t-6.5 14.5q0 9 7 13l100 64q2 2 4.5 2.5t3.5 0.5q9 0 14.5 -6.5t5.5 -14.5q0 -11 -10 -18l-93 -58q-4 -4 -10 -4zM173 855q-8 0 -15 6.5t-7 14.5q0 9 8 13l99 64q3 2 5 2.5t4 0.5q9 0 14 -6.5t5 -14.5q0 -11 -9 -18l-93 -58q-5 -4 -11 -4z" />
    <glyph glyph-name="uhungarumlaut" unicode="&#x171;" horiz-adv-x="489" 
d="M245 -6q-50 0 -92 25.5t-67 67.5t-25 90v274q0 8 7.5 14.5t17.5 6.5t17 -6.5t7 -14.5v-274q0 -35 18 -66t48.5 -51t68.5 -20t68 19.5t48 51t18 66.5v275q0 8 7.5 14t17.5 6q11 0 17.5 -6t6.5 -14v-275q0 -49 -25 -91t-66.5 -67t-91.5 -25zM289 596q-9 0 -15.5 6.5
t-6.5 14.5q0 9 7 13l100 64q2 2 4.5 2.5t3.5 0.5q9 0 14.5 -6.5t5.5 -14.5q0 -11 -10 -18l-93 -58q-4 -4 -10 -4zM140 596q-8 0 -15 6.5t-7 14.5q0 9 8 13l99 64q3 2 5 2.5t4 0.5q9 0 14 -6.5t5 -14.5q0 -11 -9 -18l-93 -58q-5 -4 -11 -4z" />
    <glyph glyph-name="Uogonek" unicode="&#x172;" horiz-adv-x="556" 
d="M277 -6q-56 0 -102 21t-72.5 66.5t-26.5 121.5v508q0 10 7.5 15t17.5 5q9 0 17 -5t8 -15v-508q0 -82 40 -121.5t111 -39.5q72 0 112.5 39.5t40.5 121.5v508q0 10 7.5 15t17.5 5q9 0 17 -5t8 -15v-508q0 -76 -27 -121.5t-73 -66.5t-103 -21zM331 -198q-21 0 -41.5 6.5
t-35 22t-14.5 42.5q0 43 21.5 79.5t56.5 66.5l29 -16q-31 -28 -52 -58.5t-21 -68.5q0 -24 17 -33.5t46 -9.5q8 0 13 -3.5t5 -12.5q0 -7 -5 -11t-19 -4z" />
    <glyph glyph-name="uogonek" unicode="&#x173;" horiz-adv-x="489" 
d="M245 -6q-50 0 -92 25.5t-67 67.5t-25 90v274q0 8 7.5 14.5t17.5 6.5t17 -6.5t7 -14.5v-274q0 -35 18 -66t48.5 -51t68.5 -20t68 19.5t48 51t18 66.5v275q0 8 7.5 14t17.5 6q11 0 17.5 -6t6.5 -14v-275q0 -49 -25 -91t-66.5 -67t-91.5 -25zM284 -198q-21 0 -41.5 6.5
t-35 22t-14.5 42.5q0 43 21.5 79.5t56.5 66.5l29 -16q-31 -28 -52 -58.5t-21 -68.5q0 -24 17 -33.5t46 -9.5q8 0 13 -3.5t5 -12.5q0 -7 -5 -11t-19 -4z" />
    <glyph glyph-name="Wcircumflex" unicode="&#x174;" horiz-adv-x="760" 
d="M250 -6q-10 0 -18 4.5t-10 13.5l-198 691q-1 3 -1 7q0 7 4 11.5t10.5 7t12.5 2.5q8 0 14.5 -4t8.5 -11l176 -632l103 379q4 12 11.5 16t16.5 4q11 0 17.5 -4t9.5 -16l105 -379l175 632q3 7 9.5 11t13.5 4t13 -2.5t10 -7t4 -11.5q0 -4 -1 -7l-196 -691q-3 -9 -10.5 -13.5
t-18.5 -4.5q-9 0 -17 4.5t-10 13.5l-104 374l-102 -374q-2 -9 -10 -13.5t-18 -4.5zM269 853q-8 0 -14 6.5t-6 16.5q0 5 3 9.5t8 7.5l104 56q8 5 17 5t17 -5l104 -55q6 -3 8.5 -8.5t2.5 -11.5q0 -8 -5.5 -14t-13.5 -6q-2 0 -4.5 1t-4.5 2l-104 55l-104 -56l-4 -2t-4 -1z" />
    <glyph glyph-name="wcircumflex" unicode="&#x175;" horiz-adv-x="660" 
d="M199 -7q-9 0 -13.5 4t-8.5 14l-156 425l-2.5 7.5t-1.5 6.5q0 7 4 12t10.5 8t13.5 3q6 0 12 -3t8 -9l135 -375l109 344q2 8 8 11.5t14 3.5t13.5 -3.5t8.5 -11.5l105 -349l138 380q3 12 19 12q6 0 12.5 -2.5t10.5 -7.5t4 -12q0 -3 -1 -8t-3 -7l-156 -429q-3 -8 -8.5 -11
t-11.5 -3q-8 0 -12.5 3t-7.5 10l-111 352l-110 -347q-3 -9 -8.5 -13.5t-13.5 -4.5zM218 594q-8 0 -14 6.5t-6 16.5q0 5 3 9.5t8 7.5l104 56q8 5 17 5t17 -5l104 -55q6 -3 8.5 -8.5t2.5 -11.5q0 -8 -5.5 -14t-13.5 -6q-2 0 -4.5 1t-4.5 2l-104 55l-104 -56l-4 -2t-4 -1z" />
    <glyph glyph-name="Ycircumflex" unicode="&#x176;" horiz-adv-x="518" 
d="M259 0q-10 0 -17.5 5.5t-7.5 15.5v255q0 4 -2 7l-207 407q-2 6 -3.5 11t-1.5 8q0 7 4 11.5t9 7.5t11 3t12 -4.5t11 -13.5l192 -385l193 385q5 9 11 13.5t12 4.5t11 -3t8.5 -7.5t3.5 -11.5q0 -3 -1 -8t-4 -11l-208 -407q-1 -3 -1 -7v-255q0 -10 -8 -15.5t-17 -5.5z
M148 853q-8 0 -14 6.5t-6 16.5q0 5 3 9.5t8 7.5l104 56q8 5 17 5t17 -5l104 -55q6 -3 8.5 -8.5t2.5 -11.5q0 -8 -5.5 -14t-13.5 -6q-2 0 -4.5 1t-4.5 2l-104 55l-104 -56l-4 -2t-4 -1z" />
    <glyph glyph-name="ycircumflex" unicode="&#x177;" horiz-adv-x="407" 
d="M40 -235q-9 0 -16 6t-7 17q0 9 4 16t14 7q25 0 46.5 17.5t40 48t33 66.5t25.5 73l-162 431q-2 5 -2 8q0 7 4.5 12t11 8.5t13.5 3.5q6 0 12 -3.5t7 -9.5l141 -385l137 385q3 6 8 9.5t11 3.5q7 0 13.5 -3t11 -8.5t4.5 -12.5q0 -5 -2 -8l-158 -431q-13 -39 -30 -82.5
t-39.5 -81.5t-52 -62.5t-68.5 -24.5zM92 594q-8 0 -14 6.5t-6 16.5q0 5 3 9.5t8 7.5l104 56q8 5 17 5t17 -5l104 -55q6 -3 8.5 -8.5t2.5 -11.5q0 -8 -5.5 -14t-13.5 -6q-2 0 -4.5 1t-4.5 2l-104 55l-104 -56l-4 -2t-4 -1z" />
    <glyph glyph-name="Ydieresis" unicode="&#x178;" horiz-adv-x="518" 
d="M259 0q-10 0 -17.5 5.5t-7.5 15.5v255q0 4 -2 7l-207 407q-2 6 -3.5 11t-1.5 8q0 7 4 11.5t9 7.5t11 3t12 -4.5t11 -13.5l192 -385l193 385q5 9 11 13.5t12 4.5t11 -3t8.5 -7.5t3.5 -11.5q0 -3 -1 -8t-4 -11l-208 -407q-1 -3 -1 -7v-255q0 -10 -8 -15.5t-17 -5.5z
M318 854q-14 0 -23.5 9.5t-9.5 23.5t9.5 23t23.5 9t23 -9t9 -23t-9 -23.5t-23 -9.5zM201 854q-14 0 -23.5 9.5t-9.5 23.5t9.5 23t23.5 9t23 -9t9 -23t-9 -23.5t-23 -9.5z" />
    <glyph glyph-name="Zacute" unicode="&#x179;" horiz-adv-x="472" 
d="M46 0q-9 0 -15 6t-6 14t5 17l342 646h-315q-10 0 -15.5 7.5t-5.5 16.5t5.5 16.5t15.5 7.5h359q11 0 16 -5t5 -13q0 -10 -6 -21l-341 -644h337q11 0 16 -7.5t5 -16.5t-5 -16.5t-16 -7.5h-381zM181 853q-8 0 -15 7t-7 16q0 11 9 15l107 61q4 2 8 2q9 0 14 -7t5 -16
q0 -13 -11 -19l-100 -56q-2 -1 -5 -2t-5 -1z" />
    <glyph glyph-name="zacute" unicode="&#x17a;" horiz-adv-x="392" 
d="M47 0q-10 0 -16 6t-6 14q0 4 2 9.5t5 8.5l256 389h-232q-9 0 -15 6.5t-6 15.5q0 10 6 16.5t15 6.5h279q10 0 16 -5.5t6 -15.5q0 -9 -6 -17l-257 -389h253q9 0 15 -6.5t6 -16.5q0 -9 -6 -15.5t-15 -6.5h-300zM151 594q-8 0 -15 7t-7 16q0 11 9 15l107 61q4 2 8 2
q9 0 14 -7t5 -16q0 -13 -11 -19l-100 -56q-2 -1 -5 -2t-5 -1z" />
    <glyph glyph-name="Zdotaccent" unicode="&#x17b;" horiz-adv-x="472" 
d="M46 0q-9 0 -15 6t-6 14t5 17l342 646h-315q-10 0 -15.5 7.5t-5.5 16.5t5.5 16.5t15.5 7.5h359q11 0 16 -5t5 -13q0 -10 -6 -21l-341 -644h337q11 0 16 -7.5t5 -16.5t-5 -16.5t-16 -7.5h-381zM227 855q-15 0 -25.5 10.5t-10.5 25.5t10.5 25.5t25.5 10.5q16 0 26 -10.5
t10 -25.5t-10 -25.5t-26 -10.5z" />
    <glyph glyph-name="zdotaccent" unicode="&#x17c;" horiz-adv-x="392" 
d="M47 0q-10 0 -16 6t-6 14q0 4 2 9.5t5 8.5l256 389h-232q-9 0 -15 6.5t-6 15.5q0 10 6 16.5t15 6.5h279q10 0 16 -5.5t6 -15.5q0 -9 -6 -17l-257 -389h253q9 0 15 -6.5t6 -16.5q0 -9 -6 -15.5t-15 -6.5h-300zM196 596q-15 0 -25.5 10.5t-10.5 25.5t10.5 25.5t25.5 10.5
q16 0 26 -10.5t10 -25.5t-10 -25.5t-26 -10.5z" />
    <glyph glyph-name="Zcaron" unicode="&#x17d;" horiz-adv-x="472" 
d="M46 0q-9 0 -15 6t-6 14t5 17l342 646h-315q-10 0 -15.5 7.5t-5.5 16.5t5.5 16.5t15.5 7.5h359q11 0 16 -5t5 -13q0 -10 -6 -21l-341 -644h337q11 0 16 -7.5t5 -16.5t-5 -16.5t-16 -7.5h-381zM228 844q-12 0 -21 10l-100 96q-5 6 -7.5 10t-2.5 10t4.5 12t12.5 6t15 -7
l99 -98l98 98q7 7 16 7q8 0 12.5 -6t4.5 -12t-2.5 -10t-7.5 -10l-101 -96q-11 -10 -20 -10z" />
    <glyph glyph-name="zcaron" unicode="&#x17e;" horiz-adv-x="392" 
d="M47 0q-10 0 -16 6t-6 14q0 4 2 9.5t5 8.5l256 389h-232q-9 0 -15 6.5t-6 15.5q0 10 6 16.5t15 6.5h279q10 0 16 -5.5t6 -15.5q0 -9 -6 -17l-257 -389h253q9 0 15 -6.5t6 -16.5q0 -9 -6 -15.5t-15 -6.5h-300zM197 585q-12 0 -21 10l-100 96q-5 6 -7.5 10t-2.5 10t4.5 12
t12.5 6t15 -7l99 -98l98 98q7 7 16 7q8 0 12.5 -6t4.5 -12t-2.5 -10t-7.5 -10l-101 -96q-11 -10 -20 -10z" />
    <glyph glyph-name="florin" unicode="&#x192;" horiz-adv-x="337" 
d="M-53 -137q-9 0 -14 7t-5 15q0 11 7 18.5t17 7.5h20q25 0 41 21t26.5 54t15.5 69l74 532q7 49 37.5 90t75 66t93.5 25h11q8 0 13 -6t5 -16t-7 -17.5t-16 -7.5h-11q-37 0 -70 -19t-54.5 -49.5t-27.5 -65.5l-25 -179h148q10 0 14.5 -6t4.5 -13q0 -10 -7 -17t-16 -7h-151
l-43 -310q-7 -49 -22.5 -93t-43 -71.5t-69.5 -27.5h-21z" />
    <glyph glyph-name="Ohorn" unicode="&#x1a0;" horiz-adv-x="548" 
d="M273 -6q-56 0 -101.5 21t-72 66.5t-26.5 121.5v319q0 76 26.5 121.5t72 66.5t101.5 21q57 0 103 -21t72.5 -66.5t26.5 -121.5v-319q0 -76 -26.5 -121.5t-72.5 -66.5t-103 -21zM273 42q71 0 111.5 39.5t40.5 121.5v319q0 82 -40 121.5t-112 39.5q-71 0 -111 -39.5
t-40 -121.5v-319q0 -82 40 -121.5t111 -39.5zM300 692v40q49 0 73.5 18t24.5 50q0 12 4 22t15 10q14 0 18 -11t4 -21q0 -32 -13 -56.5t-43 -38t-83 -13.5z" />
    <glyph glyph-name="ohorn" unicode="&#x1a1;" horiz-adv-x="461" 
d="M230 -6q-48 0 -90 26t-67.5 68t-25.5 91v116q0 49 25 91t67 67t91 25q50 0 91.5 -24.5t67 -66t25.5 -92.5v-116q0 -48 -25.5 -90.5t-67 -68.5t-91.5 -26zM230 40q38 0 68 20t48.5 52t18.5 67v116q0 35 -18 66t-48.5 51t-68.5 20t-68 -20t-48 -51t-18 -66v-116
q0 -35 18 -67t48.5 -52t67.5 -20zM276 433v40q49 0 73.5 18t24.5 50q0 12 4 22t15 10q14 0 18 -11t4 -21q0 -32 -13 -56.5t-43 -38t-83 -13.5z" />
    <glyph glyph-name="Uhorn" unicode="&#x1af;" horiz-adv-x="556" 
d="M277 -6q-56 0 -102 21t-72.5 66.5t-26.5 121.5v508q0 10 7.5 15t17.5 5q9 0 17 -5t8 -15v-508q0 -82 40 -121.5t111 -39.5q72 0 112.5 39.5t40.5 121.5v508q0 10 7.5 15t17.5 5q9 0 17 -5t8 -15v-508q0 -76 -27 -121.5t-73 -66.5t-103 -21zM454 692v40q49 0 73.5 18
t24.5 50q0 12 4 22t15 10q14 0 18 -11t4 -21q0 -32 -13 -56.5t-43 -38t-83 -13.5z" />
    <glyph glyph-name="uhorn" unicode="&#x1b0;" horiz-adv-x="489" 
d="M245 -6q-50 0 -92 25.5t-67 67.5t-25 90v274q0 8 7.5 14.5t17.5 6.5t17 -6.5t7 -14.5v-274q0 -35 18 -66t48.5 -51t68.5 -20t68 19.5t48 51t18 66.5v275q0 8 7.5 14t17.5 6q11 0 17.5 -6t6.5 -14v-275q0 -49 -25 -91t-66.5 -67t-91.5 -25zM402 433v40q49 0 73.5 18
t24.5 50q0 12 4 22t15 10q14 0 18 -11t4 -21q0 -32 -13 -56.5t-43 -38t-83 -13.5z" />
    <glyph glyph-name="AEacute" unicode="&#x1fc;" horiz-adv-x="696" 
d="M100 0q-14 0 -19 7.5t-5 18.5v496q0 76 26.5 121.5t72 66.5t101.5 21h373q11 0 16 -7.5t5 -15.5q0 -9 -5.5 -17t-15.5 -8h-236v-294h154q10 0 15.5 -7t5.5 -17q0 -8 -5 -15t-16 -7h-154v-295h236q10 0 15.5 -7.5t5.5 -17.5q0 -8 -5 -15.5t-16 -7.5h-262q-9 0 -16.5 5.5
t-7.5 15.5v322h-238v-317q0 -11 -4.5 -18.5t-20.5 -7.5zM125 389h238v294h-87q-71 0 -111 -39.5t-40 -121.5v-133zM311 853q-8 0 -15 7t-7 16q0 11 9 15l107 61q4 2 8 2q9 0 14 -7t5 -16q0 -13 -11 -19l-100 -56q-2 -1 -5 -2t-5 -1z" />
    <glyph glyph-name="aeacute" unicode="&#x1fd;" horiz-adv-x="723" 
d="M171 -6q-36 0 -67.5 14t-51 43.5t-19.5 73.5q0 54 29 83t81 40.5t121 11.5h54v27q0 35 -12.5 69t-40.5 56t-75 22q-30 0 -50.5 -6.5t-33.5 -14t-20 -7.5q-9 0 -15 9.5t-6 17.5q0 12 19.5 22.5t49.5 17t61 6.5q61 0 97.5 -27.5t53.5 -69.5q23 42 64.5 69t92.5 27
q30 0 61.5 -10t59 -33.5t44.5 -60t17 -89.5q0 -27 -7 -41.5t-25.5 -19t-51.5 -4.5h-231v-42q0 -64 45.5 -101.5t112.5 -37.5q40 0 62.5 10t35.5 20t23 10q5 0 10 -3t8.5 -8.5t3.5 -12.5q0 -14 -24 -28.5t-59 -23.5t-71 -9q-55 0 -103 26.5t-72 75.5q-31 -56 -78.5 -79
t-92.5 -23zM177 38q39 0 71 18t51 43.5t19 46.5v74h-49q-50 0 -93 -5.5t-68.5 -25.5t-25.5 -63q0 -44 27.5 -66t67.5 -22zM370 261h212q37 0 46 7.5t9 26.5q0 36 -16.5 67.5t-46.5 51.5t-71 20q-37 0 -67 -17.5t-48 -47.5t-18 -66v-42zM313 596q-8 0 -15 7t-7 16q0 11 9 15
l107 61q4 2 8 2q9 0 14 -7t5 -16q0 -13 -11 -19l-100 -56q-2 -1 -5 -2t-5 -1z" />
    <glyph glyph-name="Oslashacute" unicode="&#x1fe;" horiz-adv-x="548" 
d="M273 -6q-56 0 -101.5 21t-72 66.5t-26.5 121.5v319q0 76 26.5 121.5t72 66.5t101.5 21q57 0 103 -21t72.5 -66.5t26.5 -121.5v-319q0 -76 -26.5 -121.5t-72.5 -66.5t-103 -21zM273 42q71 0 111.5 39.5t40.5 121.5v319q0 82 -40 121.5t-112 39.5q-71 0 -111 -39.5
t-40 -121.5v-319q0 -82 40 -121.5t111 -39.5zM81 -24q-8 0 -14.5 5.5t-6.5 13.5q0 7 3 11l386 751q5 10 16 10q8 0 15.5 -6.5t7.5 -15.5q0 -6 -3 -12l-384 -744q-3 -7 -8.5 -10t-11.5 -3zM228 853q-8 0 -15 7t-7 16q0 11 9 15l107 61q4 2 8 2q9 0 14 -7t5 -16q0 -13 -11 -19
l-100 -56q-2 -1 -5 -2t-5 -1z" />
    <glyph glyph-name="oslashacute" unicode="&#x1ff;" horiz-adv-x="461" 
d="M230 -6q-48 0 -90 26t-67.5 68t-25.5 91v116q0 49 25 91t67 67t91 25q50 0 91.5 -24.5t67 -66t25.5 -92.5v-116q0 -48 -25.5 -90.5t-67 -68.5t-91.5 -26zM230 40q38 0 68 20t48.5 52t18.5 67v116q0 35 -18 66t-48.5 51t-68.5 20t-68 -20t-48 -51t-18 -66v-116
q0 -35 18 -67t48.5 -52t67.5 -20zM91 -32q-6 0 -11.5 4.5t-5.5 12.5q0 6 2 10l28 52l219 406l26 48q5 8 14 8q7 0 13.5 -6t6.5 -14q0 -6 -4 -13l-26 -46l-220 -407l-25 -44q-5 -11 -17 -11zM185 594q-8 0 -15 7t-7 16q0 11 9 15l107 61q4 2 8 2q9 0 14 -7t5 -16
q0 -13 -11 -19l-100 -56q-2 -1 -5 -2t-5 -1z" />
    <glyph glyph-name="uni0218" unicode="&#x218;" horiz-adv-x="487" 
d="M238 -6q-64 0 -108.5 19t-67.5 44.5t-23 40.5q0 6 4 13t9 11t10 4q9 0 18.5 -12.5t26.5 -29.5t47 -29.5t79 -12.5q51 0 86.5 17t54 50.5t18.5 82.5q0 52 -18.5 83.5t-48 51t-65 32t-71 25.5t-65.5 32.5t-48.5 52.5t-18.5 86q0 54 19.5 88.5t50.5 54t66 27t68 7.5
q30 0 58.5 -5t52.5 -12.5t38 -17.5t14 -21q0 -6 -3 -12.5t-8 -11.5t-12 -5q-8 0 -24 9.5t-44 19t-73 9.5q-36 0 -71.5 -11t-58.5 -38t-23 -77q0 -43 18.5 -69t48.5 -42t65 -27.5t71 -26.5t65.5 -38t48 -61t18.5 -98q0 -71 -26.5 -116t-72 -66t-105.5 -21zM217 -149
q-9 0 -16 7t-7 16q0 11 10 15l106 61q5 2 8 2q9 0 14.5 -7t5.5 -16q0 -13 -12 -20l-100 -55q-2 -1 -4.5 -2t-4.5 -1z" />
    <glyph glyph-name="uni0219" unicode="&#x219;" horiz-adv-x="380" 
d="M187 -6q-46 0 -79.5 11.5t-52.5 27t-19 29.5q0 5 2.5 10t7 9t8.5 4q10 0 23 -11.5t38 -23.5t71 -12q60 0 85 23t25 54q0 36 -17.5 56.5t-46.5 31.5t-60.5 19.5t-60.5 21.5t-47 37t-18 65q0 30 16 61t49.5 51t87.5 20q32 0 61 -6.5t48 -17t19 -21.5q0 -4 -3 -10.5
t-7.5 -11t-11.5 -4.5t-20 7t-34 13.5t-51 6.5q-39 0 -62.5 -14t-34 -34t-10.5 -39q0 -30 18 -47t46.5 -26.5t60.5 -18.5t60.5 -24t46.5 -41.5t18 -72.5q0 -56 -41 -89.5t-115 -33.5zM145 -149q-9 0 -16 7t-7 16q0 11 10 15l106 61q5 2 8 2q9 0 14.5 -7t5.5 -16
q0 -13 -12 -20l-100 -55q-2 -1 -4.5 -2t-4.5 -1z" />
    <glyph glyph-name="uni0237" unicode="&#x237;" horiz-adv-x="181" 
d="M-11 -235q-12 0 -18.5 7.5t-6.5 16.5q0 10 6.5 16t15.5 6q36 0 53 18.5t22 51t5 73.5v498q0 9 7 14.5t17 5.5q11 0 18 -5.5t7 -14.5v-498q0 -55 -12 -98t-40 -67t-74 -24z" />
    <glyph glyph-name="uni0259" unicode="&#x259;" horiz-adv-x="451" 
d="M219 -6q-48 0 -89.5 23.5t-67 64t-25.5 93.5q0 38 12.5 54t32 19.5t40.5 3.5h232v42q0 64 -45.5 101.5t-115.5 37.5q-41 0 -63 -9.5t-33.5 -20t-22.5 -10.5q-6 0 -11.5 4t-8.5 9.5t-3 10.5q0 11 17.5 25.5t49.5 25t77 10.5q61 0 107.5 -23t73.5 -64.5t27 -97.5v-119
q0 -49 -25.5 -90t-67 -65.5t-91.5 -24.5zM219 38q38 0 68.5 18t48.5 48.5t18 65.5v41h-213q-34 0 -45 -7t-11 -29q0 -34 16.5 -65.5t47 -51.5t70.5 -20z" />
    <glyph glyph-name="circumflex" unicode="&#x2c6;" horiz-adv-x="264" 
d="M20 596q-8 0 -14 6.5t-6 16.5q0 5 3 9.5t8 7.5l104 56q8 5 17 5t17 -5l104 -55q6 -3 8.5 -8.5t2.5 -11.5q0 -8 -5.5 -14t-13.5 -6q-2 0 -4.5 1t-4.5 2l-104 55l-104 -56l-4 -2t-4 -1z" />
    <glyph glyph-name="caron" unicode="&#x2c7;" horiz-adv-x="262" 
d="M131 587q-12 0 -21 10l-100 96q-5 6 -7.5 10t-2.5 10t4.5 12t12.5 6t15 -7l99 -98l98 98q7 7 16 7q8 0 12.5 -6t4.5 -12t-2.5 -10t-7.5 -10l-101 -96q-11 -10 -20 -10z" />
    <glyph glyph-name="breve" unicode="&#x2d8;" horiz-adv-x="223" 
d="M112 599q-40 0 -72 27.5t-40 66.5q-1 9 4 14t13 5h4q7 0 11.5 -4.5t5.5 -11.5q5 -28 26 -47t48 -19q26 0 47 19t25 47q2 7 6 11.5t11 4.5h4q8 0 13.5 -5.5t4.5 -13.5q-8 -39 -40.5 -66.5t-70.5 -27.5z" />
    <glyph glyph-name="dotaccent" unicode="&#x2d9;" horiz-adv-x="216" 
d="M108 598q-15 0 -25.5 10.5t-10.5 25.5t10.5 25.5t25.5 10.5q16 0 26 -10.5t10 -25.5t-10 -25.5t-26 -10.5z" />
    <glyph glyph-name="uni030A" unicode="&#x2da;" 
d="M91 582q-25 0 -46 13t-33 35t-12 46t12 45t33 34t46 13q24 0 45 -12.5t33.5 -34t12.5 -45.5t-12.5 -46t-33.5 -35t-45 -13zM91 609q25 0 43.5 21t18.5 46q0 22 -18.5 42t-43.5 20q-27 0 -45 -20t-18 -42q0 -25 18.5 -46t44.5 -21z" />
    <glyph glyph-name="ogonek" unicode="&#x2db;" horiz-adv-x="115" 
d="M91 -198q-21 0 -41.5 6.5t-35 22t-14.5 42.5q0 43 21.5 79.5t56.5 66.5l29 -16q-31 -28 -52 -58.5t-21 -68.5q0 -24 17 -33.5t46 -9.5q8 0 13 -3.5t5 -12.5q0 -7 -5 -11t-19 -4z" />
    <glyph glyph-name="tilde" unicode="&#x2dc;" horiz-adv-x="302" 
d="M218 614q-25 0 -44.5 9.5t-39.5 18t-47 8.5q-21 0 -34.5 -8t-21.5 -16.5t-15 -8.5q-4 0 -8 3t-6 8t-2 10q0 12 8.5 21.5t23 17t29.5 11.5t28 4q25 0 44.5 -8.5t39.5 -18t45 -9.5q23 0 34 8t18 15.5t15 7.5q6 0 9.5 -3t5.5 -7t2 -9q0 -14 -8.5 -23.5t-22 -16.5t-28 -10.5
t-25.5 -3.5z" />
    <glyph glyph-name="uni030B" unicode="&#x2dd;" 
d="M171 596q-9 0 -15.5 6.5t-6.5 14.5q0 9 7 13l100 64q2 2 4.5 2.5t3.5 0.5q9 0 14.5 -6.5t5.5 -14.5q0 -11 -10 -18l-93 -58q-4 -4 -10 -4zM22 596q-8 0 -15 6.5t-7 14.5q0 9 8 13l99 64q3 2 5 2.5t4 0.5q9 0 14 -6.5t5 -14.5q0 -11 -9 -18l-93 -58q-5 -4 -11 -4z" />
    <glyph glyph-name="gravecomb" unicode="&#x300;" 
d="M121 596q-2 0 -4.5 1t-5.5 2l-100 56q-11 6 -11 19q0 9 5.5 16t14.5 7q3 0 7 -2l107 -61q9 -4 9 -15q0 -9 -6 -16t-16 -7z" />
    <glyph glyph-name="acutecomb" unicode="&#x301;" 
d="M22 596q-8 0 -15 7t-7 16q0 11 9 15l107 61q4 2 8 2q9 0 14 -7t5 -16q0 -13 -11 -19l-100 -56q-2 -1 -5 -2t-5 -1z" />
    <glyph glyph-name="uni0302" unicode="&#x302;" 
d="M20 596q-8 0 -14 6.5t-6 16.5q0 5 3 9.5t8 7.5l104 56q8 5 17 5t17 -5l104 -55q6 -3 8.5 -8.5t2.5 -11.5q0 -8 -5.5 -14t-13.5 -6q-2 0 -4.5 1t-4.5 2l-104 55l-104 -56l-4 -2t-4 -1z" />
    <glyph glyph-name="tildecomb" unicode="&#x303;" 
d="M218 614q-25 0 -44.5 9.5t-39.5 18t-47 8.5q-21 0 -34.5 -8t-21.5 -16.5t-15 -8.5q-4 0 -8 3t-6 8t-2 10q0 12 8.5 21.5t23 17t29.5 11.5t28 4q25 0 44.5 -8.5t39.5 -18t45 -9.5q23 0 34 8t18 15.5t15 7.5q6 0 9.5 -3t5.5 -7t2 -9q0 -14 -8.5 -23.5t-22 -16.5t-28 -10.5
t-25.5 -3.5z" />
    <glyph glyph-name="uni0306" unicode="&#x306;" 
d="M113 599q-40 0 -72 27.5t-40 66.5q-1 9 4 14t13 5h4q7 0 11.5 -4.5t5.5 -11.5q5 -28 26 -47t48 -19q26 0 47 19t25 47q2 7 6 11.5t11 4.5h4q8 0 13.5 -5.5t4.5 -13.5q-8 -39 -40.5 -66.5t-70.5 -27.5z" />
    <glyph glyph-name="uni0307" unicode="&#x307;" 
d="M108 598q-15 0 -25.5 10.5t-10.5 25.5t10.5 25.5t25.5 10.5q16 0 26 -10.5t10 -25.5t-10 -25.5t-26 -10.5z" />
    <glyph glyph-name="uni0308" unicode="&#x308;" 
d="M150 597q-14 0 -23.5 9.5t-9.5 23.5t9.5 23t23.5 9t23 -9t9 -23t-9 -23.5t-23 -9.5zM33 597q-14 0 -23.5 9.5t-9.5 23.5t9.5 23t23.5 9t23 -9t9 -23t-9 -23.5t-23 -9.5z" />
    <glyph glyph-name="hookabovecomb" unicode="&#x309;" 
d="M106 676q14 14 31 21.5t37 7.5q26 0 41.5 -11t22 -25.5t6.5 -27.5q0 -16 -9.5 -29.5t-23.5 -27.5q-4 -4 -6.5 -9.5t-3.5 -13.5q-1 -6 -5.5 -10t-11.5 -4t-11.5 5t-4.5 11q0 7 2 17t11 20q11 12 19 20.5t8 19.5q0 12 -10 20.5t-24 8.5q-13 0 -23 -6t-18 -12
q-7 -6 -15.5 -7t-13.5 6q-5 6 -5 12.5t7 13.5z" />
    <glyph glyph-name="uni030C" unicode="&#x30c;" 
d="M141 587q-12 0 -21 10l-100 96q-5 6 -7.5 10t-2.5 10t4.5 12t12.5 6t15 -7l99 -98l98 98q7 7 16 7q8 0 12.5 -6t4.5 -12t-2.5 -10t-7.5 -10l-101 -96q-11 -10 -20 -10z" />
    <glyph glyph-name="uni0312" unicode="&#x312;" 
d="M178 596q-8 0 -15 7t-7 16q0 11 9 15l107 61q4 2 7 2q10 0 15 -7t5 -16q0 -13 -11 -19l-100 -56q-3 -1 -5.5 -2t-4.5 -1z" />
    <glyph glyph-name="uni031B" unicode="&#x31b;" 
d="M100 433v40q49 0 73.5 18t24.5 50q0 12 4 22t15 10q14 0 18 -11t4 -21q0 -32 -13 -56.5t-43 -38t-83 -13.5z" />
    <glyph glyph-name="dotbelowcomb" unicode="&#x323;" 
d="M83 -132q-18 0 -29.5 12.5t-11.5 28.5q0 17 11.5 29t29.5 12q16 0 28 -12t12 -29q0 -16 -12 -28.5t-28 -12.5z" />
    <glyph glyph-name="uni0326" unicode="&#x326;" 
d="M49 -149q-9 0 -16 7t-7 16q0 11 10 15l106 61q5 2 8 2q9 0 14.5 -7t5.5 -16q0 -13 -12 -20l-100 -55q-2 -1 -4.5 -2t-4.5 -1z" />
    <glyph glyph-name="uni0327" unicode="&#x327;" 
d="M76 -208q-13 0 -31 2.5t-31.5 8t-13.5 13.5q0 4 2 9t5 8.5t7 3.5q5 0 18 -6.5t38 -6.5q30 0 42 12t12 28q0 22 -18 32t-49 12l-33 2l25 99h35l-18 -72q51 -1 73 -22.5t22 -48.5q0 -18 -9.5 -35t-28.5 -28t-47 -11z" />
    <glyph glyph-name="uni0328" unicode="&#x328;" 
d="M91 -198q-21 0 -41.5 6.5t-35 22t-14.5 42.5q0 43 21.5 79.5t56.5 66.5l29 -16q-31 -28 -52 -58.5t-21 -68.5q0 -24 17 -33.5t46 -9.5q8 0 13 -3.5t5 -12.5q0 -7 -5 -11t-19 -4z" />
    <glyph glyph-name="uni0335" unicode="&#x335;" 
d="M68 218q-8 0 -14 6.5t-6 15.5q0 10 6 16.5t14 6.5h260q9 0 15.5 -6.5t6.5 -16.5q0 -9 -6.5 -15.5t-15.5 -6.5h-260z" />
    <glyph glyph-name="pi" unicode="&#x3c0;" horiz-adv-x="478" 
d="M90 0q-9 0 -17 5t-8 15v431q0 11 7.5 16t16.5 5h300q9 0 16.5 -5t7.5 -16v-431q0 -10 -8 -15t-17 -5q-10 0 -17.5 5t-7.5 15v405h-248v-405q0 -10 -7.5 -15t-17.5 -5z" />
    <glyph glyph-name="Wgrave" unicode="&#x1e80;" horiz-adv-x="760" 
d="M250 -6q-10 0 -18 4.5t-10 13.5l-198 691q-1 3 -1 7q0 7 4 11.5t10.5 7t12.5 2.5q8 0 14.5 -4t8.5 -11l176 -632l103 379q4 12 11.5 16t16.5 4q11 0 17.5 -4t9.5 -16l105 -379l175 632q3 7 9.5 11t13.5 4t13 -2.5t10 -7t4 -11.5q0 -4 -1 -7l-196 -691q-3 -9 -10.5 -13.5
t-18.5 -4.5q-9 0 -17 4.5t-10 13.5l-104 374l-102 -374q-2 -9 -10 -13.5t-18 -4.5zM426 853q-2 0 -4.5 1t-5.5 2l-100 56q-11 6 -11 19q0 9 5.5 16t14.5 7q3 0 7 -2l107 -61q9 -4 9 -15q0 -9 -6 -16t-16 -7z" />
    <glyph glyph-name="wgrave" unicode="&#x1e81;" horiz-adv-x="660" 
d="M199 -7q-9 0 -13.5 4t-8.5 14l-156 425l-2.5 7.5t-1.5 6.5q0 7 4 12t10.5 8t13.5 3q6 0 12 -3t8 -9l135 -375l109 344q2 8 8 11.5t14 3.5t13.5 -3.5t8.5 -11.5l105 -349l138 380q3 12 19 12q6 0 12.5 -2.5t10.5 -7.5t4 -12q0 -3 -1 -8t-3 -7l-156 -429q-3 -8 -8.5 -11
t-11.5 -3q-8 0 -12.5 3t-7.5 10l-111 352l-110 -347q-3 -9 -8.5 -13.5t-13.5 -4.5zM376 594q-2 0 -4.5 1t-5.5 2l-100 56q-11 6 -11 19q0 9 5.5 16t14.5 7q3 0 7 -2l107 -61q9 -4 9 -15q0 -9 -6 -16t-16 -7z" />
    <glyph glyph-name="Wacute" unicode="&#x1e82;" horiz-adv-x="760" 
d="M250 -6q-10 0 -18 4.5t-10 13.5l-198 691q-1 3 -1 7q0 7 4 11.5t10.5 7t12.5 2.5q8 0 14.5 -4t8.5 -11l176 -632l103 379q4 12 11.5 16t16.5 4q11 0 17.5 -4t9.5 -16l105 -379l175 632q3 7 9.5 11t13.5 4t13 -2.5t10 -7t4 -11.5q0 -4 -1 -7l-196 -691q-3 -9 -10.5 -13.5
t-18.5 -4.5q-9 0 -17 4.5t-10 13.5l-104 374l-102 -374q-2 -9 -10 -13.5t-18 -4.5zM334 853q-8 0 -15 7t-7 16q0 11 9 15l107 61q4 2 8 2q9 0 14 -7t5 -16q0 -13 -11 -19l-100 -56q-2 -1 -5 -2t-5 -1z" />
    <glyph glyph-name="wacute" unicode="&#x1e83;" horiz-adv-x="660" 
d="M199 -7q-9 0 -13.5 4t-8.5 14l-156 425l-2.5 7.5t-1.5 6.5q0 7 4 12t10.5 8t13.5 3q6 0 12 -3t8 -9l135 -375l109 344q2 8 8 11.5t14 3.5t13.5 -3.5t8.5 -11.5l105 -349l138 380q3 12 19 12q6 0 12.5 -2.5t10.5 -7.5t4 -12q0 -3 -1 -8t-3 -7l-156 -429q-3 -8 -8.5 -11
t-11.5 -3q-8 0 -12.5 3t-7.5 10l-111 352l-110 -347q-3 -9 -8.5 -13.5t-13.5 -4.5zM284 594q-8 0 -15 7t-7 16q0 11 9 15l107 61q4 2 8 2q9 0 14 -7t5 -16q0 -13 -11 -19l-100 -56q-2 -1 -5 -2t-5 -1z" />
    <glyph glyph-name="Wdieresis" unicode="&#x1e84;" horiz-adv-x="760" 
d="M250 -6q-10 0 -18 4.5t-10 13.5l-198 691q-1 3 -1 7q0 7 4 11.5t10.5 7t12.5 2.5q8 0 14.5 -4t8.5 -11l176 -632l103 379q4 12 11.5 16t16.5 4q11 0 17.5 -4t9.5 -16l105 -379l175 632q3 7 9.5 11t13.5 4t13 -2.5t10 -7t4 -11.5q0 -4 -1 -7l-196 -691q-3 -9 -10.5 -13.5
t-18.5 -4.5q-9 0 -17 4.5t-10 13.5l-104 374l-102 -374q-2 -9 -10 -13.5t-18 -4.5zM439 854q-14 0 -23.5 9.5t-9.5 23.5t9.5 23t23.5 9t23 -9t9 -23t-9 -23.5t-23 -9.5zM322 854q-14 0 -23.5 9.5t-9.5 23.5t9.5 23t23.5 9t23 -9t9 -23t-9 -23.5t-23 -9.5z" />
    <glyph glyph-name="wdieresis" unicode="&#x1e85;" horiz-adv-x="660" 
d="M199 -7q-9 0 -13.5 4t-8.5 14l-156 425l-2.5 7.5t-1.5 6.5q0 7 4 12t10.5 8t13.5 3q6 0 12 -3t8 -9l135 -375l109 344q2 8 8 11.5t14 3.5t13.5 -3.5t8.5 -11.5l105 -349l138 380q3 12 19 12q6 0 12.5 -2.5t10.5 -7.5t4 -12q0 -3 -1 -8t-3 -7l-156 -429q-3 -8 -8.5 -11
t-11.5 -3q-8 0 -12.5 3t-7.5 10l-111 352l-110 -347q-3 -9 -8.5 -13.5t-13.5 -4.5zM389 595q-14 0 -23.5 9.5t-9.5 23.5t9.5 23t23.5 9t23 -9t9 -23t-9 -23.5t-23 -9.5zM272 595q-14 0 -23.5 9.5t-9.5 23.5t9.5 23t23.5 9t23 -9t9 -23t-9 -23.5t-23 -9.5z" />
    <glyph glyph-name="uni1EA0" unicode="&#x1ea0;" horiz-adv-x="521" 
d="M50 0q-6 0 -12.5 3t-10.5 7.5t-4 11.5q0 3 1 6l213 691q3 10 11 14t17 4t17.5 -4.5t11.5 -13.5l211 -691q1 -3 1 -6q0 -5 -4.5 -10.5t-11 -8.5t-13.5 -3t-12.5 3.5t-7.5 11.5l-49 159h-288l-48 -159q-2 -8 -8 -11.5t-14 -3.5zM134 220h260l-129 427zM263 -132
q-18 0 -29.5 12.5t-11.5 28.5q0 17 11.5 29t29.5 12q16 0 28 -12t12 -29q0 -16 -12 -28.5t-28 -12.5z" />
    <glyph glyph-name="uni1EA1" unicode="&#x1ea1;" horiz-adv-x="423" 
d="M171 -6q-58 0 -98 32.5t-40 99.5q0 53 29.5 82t82 40.5t121.5 11.5h54v26q0 35 -12.5 69t-40 56t-73.5 22q-32 0 -52.5 -6.5t-33 -14t-19.5 -7.5q-10 0 -16 9.5t-6 17.5q0 12 19.5 22.5t49.5 17t60 6.5q65 0 102.5 -27.5t54 -71t16.5 -93.5v-265q0 -8 -6.5 -14.5
t-17.5 -6.5q-10 0 -17 6.5t-7 14.5v49q-25 -29 -62.5 -52.5t-87.5 -23.5zM178 38q35 0 67.5 17.5t53.5 43t21 47.5v74h-49q-49 0 -92 -5.5t-70 -25t-27 -61.5q0 -47 28 -68.5t68 -21.5zM214 -132q-18 0 -29.5 12.5t-11.5 28.5q0 17 11.5 29t29.5 12q16 0 28 -12t12 -29
q0 -16 -12 -28.5t-28 -12.5z" />
    <glyph glyph-name="uni1EA2" unicode="&#x1ea2;" horiz-adv-x="529" 
d="M50 0q-6 0 -12.5 3t-10.5 7.5t-4 11.5q0 3 1 6l213 691q3 10 11 14t17 4t17.5 -4.5t11.5 -13.5l211 -691q1 -3 1 -6q0 -5 -4.5 -10.5t-11 -8.5t-13.5 -3t-12.5 3.5t-7.5 11.5l-49 159h-288l-48 -159q-2 -8 -8 -11.5t-14 -3.5zM134 220h260l-129 427zM198 935
q14 14 31 21.5t37 7.5q26 0 41.5 -11t22 -25.5t6.5 -27.5q0 -16 -9.5 -29.5t-23.5 -27.5q-4 -4 -6.5 -9.5t-3.5 -13.5q-1 -6 -5.5 -10t-11.5 -4t-11.5 5t-4.5 11q0 7 2 17t11 20q11 12 19 20.5t8 19.5q0 12 -10 20.5t-24 8.5q-13 0 -23 -6t-18 -12q-7 -6 -15.5 -7t-13.5 6
q-5 6 -5 12.5t7 13.5z" />
    <glyph glyph-name="uni1EA3" unicode="&#x1ea3;" horiz-adv-x="430" 
d="M171 -6q-58 0 -98 32.5t-40 99.5q0 53 29.5 82t82 40.5t121.5 11.5h54v26q0 35 -12.5 69t-40 56t-73.5 22q-32 0 -52.5 -6.5t-33 -14t-19.5 -7.5q-10 0 -16 9.5t-6 17.5q0 12 19.5 22.5t49.5 17t60 6.5q65 0 102.5 -27.5t54 -71t16.5 -93.5v-265q0 -8 -6.5 -14.5
t-17.5 -6.5q-10 0 -17 6.5t-7 14.5v49q-25 -29 -62.5 -52.5t-87.5 -23.5zM178 38q35 0 67.5 17.5t53.5 43t21 47.5v74h-49q-49 0 -92 -5.5t-70 -25t-27 -61.5q0 -47 28 -68.5t68 -21.5zM146 677q14 14 31 21.5t37 7.5q26 0 41.5 -11t22 -25.5t6.5 -27.5q0 -16 -9.5 -29.5
t-23.5 -27.5q-4 -4 -6.5 -9.5t-3.5 -13.5q-1 -6 -5.5 -10t-11.5 -4t-11.5 5t-4.5 11q0 7 2 17t11 20q11 12 19 20.5t8 19.5q0 12 -10 20.5t-24 8.5q-13 0 -23 -6t-18 -12q-7 -6 -15.5 -7t-13.5 6q-5 6 -5 12.5t7 13.5z" />
    <glyph glyph-name="uni1EA4" unicode="&#x1ea4;" horiz-adv-x="521" 
d="M50 0q-6 0 -12.5 3t-10.5 7.5t-4 11.5q0 3 1 6l213 691q3 10 11 14t17 4t17.5 -4.5t11.5 -13.5l211 -691q1 -3 1 -6q0 -5 -4.5 -10.5t-11 -8.5t-13.5 -3t-12.5 3.5t-7.5 11.5l-49 159h-288l-48 -159q-2 -8 -8 -11.5t-14 -3.5zM134 220h260l-129 427zM179 808
q-7 0 -13 6.5t-6 16.5t11 17l75 56q8 5 17 5t17 -5l75 -55q11 -7 11 -20q0 -8 -5.5 -14t-13.5 -6q-2 0 -4.5 1t-4.5 2l-75 55l-75 -56q-2 -1 -4.5 -2t-4.5 -1zM220 917q-8 0 -15 7t-7 16q0 11 9 15l107 61q4 2 8 2q9 0 14 -7t5 -16q0 -13 -11 -19l-100 -56q-2 -1 -5 -2
t-5 -1z" />
    <glyph glyph-name="uni1EA5" unicode="&#x1ea5;" horiz-adv-x="423" 
d="M171 -6q-58 0 -98 32.5t-40 99.5q0 53 29.5 82t82 40.5t121.5 11.5h54v26q0 35 -12.5 69t-40 56t-73.5 22q-32 0 -52.5 -6.5t-33 -14t-19.5 -7.5q-10 0 -16 9.5t-6 17.5q0 12 19.5 22.5t49.5 17t60 6.5q65 0 102.5 -27.5t54 -71t16.5 -93.5v-265q0 -8 -6.5 -14.5
t-17.5 -6.5q-10 0 -17 6.5t-7 14.5v49q-25 -29 -62.5 -52.5t-87.5 -23.5zM178 38q35 0 67.5 17.5t53.5 43t21 47.5v74h-49q-49 0 -92 -5.5t-70 -25t-27 -61.5q0 -47 28 -68.5t68 -21.5zM130 549q-7 0 -13 6.5t-6 16.5t11 17l75 56q8 5 17 5t17 -5l75 -55q11 -7 11 -20
q0 -8 -5.5 -14t-13.5 -6q-2 0 -4.5 1t-4.5 2l-75 55l-75 -56q-2 -1 -4.5 -2t-4.5 -1zM171 658q-8 0 -15 7t-7 16q0 11 9 15l107 61q4 2 8 2q9 0 14 -7t5 -16q0 -13 -11 -19l-100 -56q-2 -1 -5 -2t-5 -1z" />
    <glyph glyph-name="uni1EA6" unicode="&#x1ea6;" horiz-adv-x="521" 
d="M50 0q-6 0 -12.5 3t-10.5 7.5t-4 11.5q0 3 1 6l213 691q3 10 11 14t17 4t17.5 -4.5t11.5 -13.5l211 -691q1 -3 1 -6q0 -5 -4.5 -10.5t-11 -8.5t-13.5 -3t-12.5 3.5t-7.5 11.5l-49 159h-288l-48 -159q-2 -8 -8 -11.5t-14 -3.5zM134 220h260l-129 427zM179 810
q-7 0 -13 6.5t-6 16.5t11 17l75 56q8 5 17 5t17 -5l75 -55q11 -7 11 -20q0 -8 -5.5 -14t-13.5 -6q-2 0 -4.5 1t-4.5 2l-75 55l-75 -56q-2 -1 -4.5 -2t-4.5 -1zM326 915q-2 0 -4.5 1t-5.5 2l-100 56q-11 6 -11 19q0 9 5.5 16t14.5 7q3 0 7 -2l107 -61q9 -4 9 -15q0 -9 -6 -16
t-16 -7z" />
    <glyph glyph-name="uni1EA7" unicode="&#x1ea7;" horiz-adv-x="423" 
d="M171 -6q-58 0 -98 32.5t-40 99.5q0 53 29.5 82t82 40.5t121.5 11.5h54v26q0 35 -12.5 69t-40 56t-73.5 22q-32 0 -52.5 -6.5t-33 -14t-19.5 -7.5q-10 0 -16 9.5t-6 17.5q0 12 19.5 22.5t49.5 17t60 6.5q65 0 102.5 -27.5t54 -71t16.5 -93.5v-265q0 -8 -6.5 -14.5
t-17.5 -6.5q-10 0 -17 6.5t-7 14.5v49q-25 -29 -62.5 -52.5t-87.5 -23.5zM178 38q35 0 67.5 17.5t53.5 43t21 47.5v74h-49q-49 0 -92 -5.5t-70 -25t-27 -61.5q0 -47 28 -68.5t68 -21.5zM130 551q-7 0 -13 6.5t-6 16.5t11 17l75 56q8 5 17 5t17 -5l75 -55q11 -7 11 -20
q0 -8 -5.5 -14t-13.5 -6q-2 0 -4.5 1t-4.5 2l-75 55l-75 -56q-2 -1 -4.5 -2t-4.5 -1zM277 656q-2 0 -4.5 1t-5.5 2l-100 56q-11 6 -11 19q0 9 5.5 16t14.5 7q3 0 7 -2l107 -61q9 -4 9 -15q0 -9 -6 -16t-16 -7z" />
    <glyph glyph-name="uni1EA8" unicode="&#x1ea8;" horiz-adv-x="529" 
d="M50 0q-6 0 -12.5 3t-10.5 7.5t-4 11.5q0 3 1 6l213 691q3 10 11 14t17 4t17.5 -4.5t11.5 -13.5l211 -691q1 -3 1 -6q0 -5 -4.5 -10.5t-11 -8.5t-13.5 -3t-12.5 3.5t-7.5 11.5l-49 159h-288l-48 -159q-2 -8 -8 -11.5t-14 -3.5zM134 220h260l-129 427zM179 810
q-7 0 -13 6.5t-6 16.5t11 17l75 56q8 5 17 5t17 -5l75 -55q11 -7 11 -20q0 -8 -5.5 -14t-13.5 -6q-2 0 -4.5 1t-4.5 2l-75 55l-75 -56q-2 -1 -4.5 -2t-4.5 -1zM300 990q14 14 31 21.5t37 7.5q26 0 41.5 -11t22 -25.5t6.5 -27.5q0 -16 -9.5 -29.5t-23.5 -27.5
q-4 -4 -6.5 -9.5t-3.5 -13.5q-1 -6 -5.5 -10t-11.5 -4t-11.5 5t-4.5 11q0 7 2 17t11 20q11 12 19 20.5t8 19.5q0 12 -10 20.5t-24 8.5q-13 0 -23 -6t-18 -12q-7 -6 -15.5 -7t-13.5 6q-5 6 -5 12.5t7 13.5z" />
    <glyph glyph-name="uni1EA9" unicode="&#x1ea9;" horiz-adv-x="430" 
d="M171 -6q-58 0 -98 32.5t-40 99.5q0 53 29.5 82t82 40.5t121.5 11.5h54v26q0 35 -12.5 69t-40 56t-73.5 22q-32 0 -52.5 -6.5t-33 -14t-19.5 -7.5q-10 0 -16 9.5t-6 17.5q0 12 19.5 22.5t49.5 17t60 6.5q65 0 102.5 -27.5t54 -71t16.5 -93.5v-265q0 -8 -6.5 -14.5
t-17.5 -6.5q-10 0 -17 6.5t-7 14.5v49q-25 -29 -62.5 -52.5t-87.5 -23.5zM178 38q35 0 67.5 17.5t53.5 43t21 47.5v74h-49q-49 0 -92 -5.5t-70 -25t-27 -61.5q0 -47 28 -68.5t68 -21.5zM128 553q-7 0 -13 6.5t-6 16.5t11 17l75 56q8 5 17 5t17 -5l75 -55q11 -7 11 -20
q0 -8 -5.5 -14t-13.5 -6q-2 0 -4.5 1t-4.5 2l-75 55l-75 -56q-2 -1 -4.5 -2t-4.5 -1zM248 733q14 14 31 21.5t37 7.5q26 0 41.5 -11t22 -25.5t6.5 -27.5q0 -16 -9.5 -29.5t-23.5 -27.5q-4 -4 -6.5 -9.5t-3.5 -13.5q-1 -6 -5.5 -10t-11.5 -4t-11.5 5t-4.5 11q0 7 2 17t11 20
q11 12 19 20.5t8 19.5q0 12 -10 20.5t-24 8.5q-13 0 -23 -6t-18 -12q-7 -6 -15.5 -7t-13.5 6q-5 6 -5 12.5t7 13.5z" />
    <glyph glyph-name="uni1EAA" unicode="&#x1eaa;" horiz-adv-x="521" 
d="M50 0q-6 0 -12.5 3t-10.5 7.5t-4 11.5q0 3 1 6l213 691q3 10 11 14t17 4t17.5 -4.5t11.5 -13.5l211 -691q1 -3 1 -6q0 -5 -4.5 -10.5t-11 -8.5t-13.5 -3t-12.5 3.5t-7.5 11.5l-49 159h-288l-48 -159q-2 -8 -8 -11.5t-14 -3.5zM134 220h260l-129 427zM179 808
q-7 0 -13 6.5t-6 16.5t11 17l75 56q8 5 17 5t17 -5l75 -55q11 -7 11 -20q0 -8 -5.5 -14t-13.5 -6q-2 0 -4.5 1t-4.5 2l-75 55l-75 -56q-2 -1 -4.5 -2t-4.5 -1zM331 910q-25 0 -44.5 9.5t-39.5 18t-47 8.5q-21 0 -34.5 -8t-21.5 -16.5t-15 -8.5q-4 0 -8 3t-6 8t-2 10
q0 12 8.5 21.5t23 17t29.5 11.5t28 4q25 0 44.5 -8.5t39.5 -18t45 -9.5q23 0 34 8t18 15.5t15 7.5q6 0 9.5 -3t5.5 -7t2 -9q0 -14 -8.5 -23.5t-22 -16.5t-28 -10.5t-25.5 -3.5z" />
    <glyph glyph-name="uni1EAB" unicode="&#x1eab;" horiz-adv-x="423" 
d="M171 -6q-58 0 -98 32.5t-40 99.5q0 53 29.5 82t82 40.5t121.5 11.5h54v26q0 35 -12.5 69t-40 56t-73.5 22q-32 0 -52.5 -6.5t-33 -14t-19.5 -7.5q-10 0 -16 9.5t-6 17.5q0 12 19.5 22.5t49.5 17t60 6.5q65 0 102.5 -27.5t54 -71t16.5 -93.5v-265q0 -8 -6.5 -14.5
t-17.5 -6.5q-10 0 -17 6.5t-7 14.5v49q-25 -29 -62.5 -52.5t-87.5 -23.5zM178 38q35 0 67.5 17.5t53.5 43t21 47.5v74h-49q-49 0 -92 -5.5t-70 -25t-27 -61.5q0 -47 28 -68.5t68 -21.5zM130 549q-7 0 -13 6.5t-6 16.5t11 17l75 56q8 5 17 5t17 -5l75 -55q11 -7 11 -20
q0 -8 -5.5 -14t-13.5 -6q-2 0 -4.5 1t-4.5 2l-75 55l-75 -56q-2 -1 -4.5 -2t-4.5 -1zM282 651q-25 0 -44.5 9.5t-39.5 18t-47 8.5q-21 0 -34.5 -8t-21.5 -16.5t-15 -8.5q-4 0 -8 3t-6 8t-2 10q0 12 8.5 21.5t23 17t29.5 11.5t28 4q25 0 44.5 -8.5t39.5 -18t45 -9.5
q23 0 34 8t18 15.5t15 7.5q6 0 9.5 -3t5.5 -7t2 -9q0 -14 -8.5 -23.5t-22 -16.5t-28 -10.5t-25.5 -3.5z" />
    <glyph glyph-name="uni1EAC" unicode="&#x1eac;" horiz-adv-x="521" 
d="M50 0q-6 0 -12.5 3t-10.5 7.5t-4 11.5q0 3 1 6l213 691q3 10 11 14t17 4t17.5 -4.5t11.5 -13.5l211 -691q1 -3 1 -6q0 -5 -4.5 -10.5t-11 -8.5t-13.5 -3t-12.5 3.5t-7.5 11.5l-49 159h-288l-48 -159q-2 -8 -8 -11.5t-14 -3.5zM134 220h260l-129 427zM263 -132
q-18 0 -29.5 12.5t-11.5 28.5q0 17 11.5 29t29.5 12q16 0 28 -12t12 -29q0 -16 -12 -28.5t-28 -12.5zM151 855q-8 0 -14 6.5t-6 16.5q0 5 3 9.5t8 7.5l104 56q8 5 17 5t17 -5l104 -55q6 -3 8.5 -8.5t2.5 -11.5q0 -8 -5.5 -14t-13.5 -6q-2 0 -4.5 1t-4.5 2l-104 55l-104 -56
l-4 -2t-4 -1z" />
    <glyph glyph-name="uni1EAD" unicode="&#x1ead;" horiz-adv-x="423" 
d="M171 -6q-58 0 -98 32.5t-40 99.5q0 53 29.5 82t82 40.5t121.5 11.5h54v26q0 35 -12.5 69t-40 56t-73.5 22q-32 0 -52.5 -6.5t-33 -14t-19.5 -7.5q-10 0 -16 9.5t-6 17.5q0 12 19.5 22.5t49.5 17t60 6.5q65 0 102.5 -27.5t54 -71t16.5 -93.5v-265q0 -8 -6.5 -14.5
t-17.5 -6.5q-10 0 -17 6.5t-7 14.5v49q-25 -29 -62.5 -52.5t-87.5 -23.5zM178 38q35 0 67.5 17.5t53.5 43t21 47.5v74h-49q-49 0 -92 -5.5t-70 -25t-27 -61.5q0 -47 28 -68.5t68 -21.5zM214 -132q-18 0 -29.5 12.5t-11.5 28.5q0 17 11.5 29t29.5 12q16 0 28 -12t12 -29
q0 -16 -12 -28.5t-28 -12.5zM102 596q-8 0 -14 6.5t-6 16.5q0 5 3 9.5t8 7.5l104 56q8 5 17 5t17 -5l104 -55q6 -3 8.5 -8.5t2.5 -11.5q0 -8 -5.5 -14t-13.5 -6q-2 0 -4.5 1t-4.5 2l-104 55l-104 -56l-4 -2t-4 -1z" />
    <glyph glyph-name="uni1EAE" unicode="&#x1eae;" horiz-adv-x="529" 
d="M50 0q-6 0 -12.5 3t-10.5 7.5t-4 11.5q0 3 1 6l213 691q3 10 11 14t17 4t17.5 -4.5t11.5 -13.5l211 -691q1 -3 1 -6q0 -5 -4.5 -10.5t-11 -8.5t-13.5 -3t-12.5 3.5t-7.5 11.5l-49 159h-288l-48 -159q-2 -8 -8 -11.5t-14 -3.5zM134 220h260l-129 427zM265 809
q-40 0 -72 27.5t-40 66.5q-1 9 4 14t13 5h4q7 0 11.5 -4.5t5.5 -11.5q5 -28 26 -47t48 -19q26 0 47 19t25 47q2 7 6 11.5t11 4.5h4q8 0 13.5 -5.5t4.5 -13.5q-8 -39 -40.5 -66.5t-70.5 -27.5zM257 964q-8 0 -15 7t-7 16q0 11 9 15l107 61q4 2 8 2q9 0 14 -7t5 -16
q0 -13 -11 -19l-100 -56q-2 -1 -5 -2t-5 -1z" />
    <glyph glyph-name="uni1EAF" unicode="&#x1eaf;" horiz-adv-x="430" 
d="M171 -6q-58 0 -98 32.5t-40 99.5q0 53 29.5 82t82 40.5t121.5 11.5h54v26q0 35 -12.5 69t-40 56t-73.5 22q-32 0 -52.5 -6.5t-33 -14t-19.5 -7.5q-10 0 -16 9.5t-6 17.5q0 12 19.5 22.5t49.5 17t60 6.5q65 0 102.5 -27.5t54 -71t16.5 -93.5v-265q0 -8 -6.5 -14.5
t-17.5 -6.5q-10 0 -17 6.5t-7 14.5v49q-25 -29 -62.5 -52.5t-87.5 -23.5zM178 38q35 0 67.5 17.5t53.5 43t21 47.5v74h-49q-49 0 -92 -5.5t-70 -25t-27 -61.5q0 -47 28 -68.5t68 -21.5zM214 552q-40 0 -72 27.5t-40 66.5q-1 9 4 14t13 5h4q7 0 11.5 -4.5t5.5 -11.5
q5 -28 26 -47t48 -19q26 0 47 19t25 47q2 7 6 11.5t11 4.5h4q8 0 13.5 -5.5t4.5 -13.5q-8 -39 -40.5 -66.5t-70.5 -27.5zM206 706q-8 0 -15 7t-7 16q0 11 9 15l107 61q4 2 8 2q9 0 14 -7t5 -16q0 -13 -11 -19l-100 -56q-2 -1 -5 -2t-5 -1z" />
    <glyph glyph-name="uni1EB0" unicode="&#x1eb0;" horiz-adv-x="529" 
d="M50 0q-6 0 -12.5 3t-10.5 7.5t-4 11.5q0 3 1 6l213 691q3 10 11 14t17 4t17.5 -4.5t11.5 -13.5l211 -691q1 -3 1 -6q0 -5 -4.5 -10.5t-11 -8.5t-13.5 -3t-12.5 3.5t-7.5 11.5l-49 159h-288l-48 -159q-2 -8 -8 -11.5t-14 -3.5zM134 220h260l-129 427zM262 810
q-40 0 -72 27.5t-40 66.5q-1 9 4 14t13 5h4q7 0 11.5 -4.5t5.5 -11.5q5 -28 26 -47t48 -19q26 0 47 19t25 47q2 7 6 11.5t11 4.5h4q8 0 13.5 -5.5t4.5 -13.5q-8 -39 -40.5 -66.5t-70.5 -27.5zM261 955q-2 0 -4.5 1t-5.5 2l-100 56q-11 6 -11 19q0 9 5.5 16t14.5 7q3 0 7 -2
l107 -61q9 -4 9 -15q0 -9 -6 -16t-16 -7z" />
    <glyph glyph-name="uni1EB1" unicode="&#x1eb1;" horiz-adv-x="430" 
d="M171 -6q-58 0 -98 32.5t-40 99.5q0 53 29.5 82t82 40.5t121.5 11.5h54v26q0 35 -12.5 69t-40 56t-73.5 22q-32 0 -52.5 -6.5t-33 -14t-19.5 -7.5q-10 0 -16 9.5t-6 17.5q0 12 19.5 22.5t49.5 17t60 6.5q65 0 102.5 -27.5t54 -71t16.5 -93.5v-265q0 -8 -6.5 -14.5
t-17.5 -6.5q-10 0 -17 6.5t-7 14.5v49q-25 -29 -62.5 -52.5t-87.5 -23.5zM178 38q35 0 67.5 17.5t53.5 43t21 47.5v74h-49q-49 0 -92 -5.5t-70 -25t-27 -61.5q0 -47 28 -68.5t68 -21.5zM210 553q-40 0 -72 27.5t-40 66.5q-1 9 4 14t13 5h4q7 0 11.5 -4.5t5.5 -11.5
q5 -28 26 -47t48 -19q26 0 47 19t25 47q2 7 6 11.5t11 4.5h4q8 0 13.5 -5.5t4.5 -13.5q-8 -39 -40.5 -66.5t-70.5 -27.5zM209 698q-2 0 -4.5 1t-5.5 2l-100 56q-11 6 -11 19q0 9 5.5 16t14.5 7q3 0 7 -2l107 -61q9 -4 9 -15q0 -9 -6 -16t-16 -7z" />
    <glyph glyph-name="uni1EB2" unicode="&#x1eb2;" horiz-adv-x="529" 
d="M50 0q-6 0 -12.5 3t-10.5 7.5t-4 11.5q0 3 1 6l213 691q3 10 11 14t17 4t17.5 -4.5t11.5 -13.5l211 -691q1 -3 1 -6q0 -5 -4.5 -10.5t-11 -8.5t-13.5 -3t-12.5 3.5t-7.5 11.5l-49 159h-288l-48 -159q-2 -8 -8 -11.5t-14 -3.5zM134 220h260l-129 427zM265 810
q-40 0 -72 27.5t-40 66.5q-1 9 4 14t13 5h4q7 0 11.5 -4.5t5.5 -11.5q5 -28 26 -47t48 -19q26 0 47 19t25 47q2 7 6 11.5t11 4.5h4q8 0 13.5 -5.5t4.5 -13.5q-8 -39 -40.5 -66.5t-70.5 -27.5zM186 1028q14 14 31 21.5t37 7.5q26 0 41.5 -11t22 -25.5t6.5 -27.5
q0 -16 -9.5 -29.5t-23.5 -27.5q-4 -4 -6.5 -9.5t-3.5 -13.5q-1 -6 -5.5 -10t-11.5 -4t-11.5 5t-4.5 11q0 7 2 17t11 20q11 12 19 20.5t8 19.5q0 12 -10 20.5t-24 8.5q-13 0 -23 -6t-18 -12q-7 -6 -15.5 -7t-13.5 6q-5 6 -5 12.5t7 13.5z" />
    <glyph glyph-name="uni1EB3" unicode="&#x1eb3;" horiz-adv-x="430" 
d="M171 -6q-58 0 -98 32.5t-40 99.5q0 53 29.5 82t82 40.5t121.5 11.5h54v26q0 35 -12.5 69t-40 56t-73.5 22q-32 0 -52.5 -6.5t-33 -14t-19.5 -7.5q-10 0 -16 9.5t-6 17.5q0 12 19.5 22.5t49.5 17t60 6.5q65 0 102.5 -27.5t54 -71t16.5 -93.5v-265q0 -8 -6.5 -14.5
t-17.5 -6.5q-10 0 -17 6.5t-7 14.5v49q-25 -29 -62.5 -52.5t-87.5 -23.5zM178 38q35 0 67.5 17.5t53.5 43t21 47.5v74h-49q-49 0 -92 -5.5t-70 -25t-27 -61.5q0 -47 28 -68.5t68 -21.5zM214 552q-40 0 -72 27.5t-40 66.5q-1 9 4 14t13 5h4q7 0 11.5 -4.5t5.5 -11.5
q5 -28 26 -47t48 -19q26 0 47 19t25 47q2 7 6 11.5t11 4.5h4q8 0 13.5 -5.5t4.5 -13.5q-8 -39 -40.5 -66.5t-70.5 -27.5zM134 771q14 14 31 21.5t37 7.5q26 0 41.5 -11t22 -25.5t6.5 -27.5q0 -16 -9.5 -29.5t-23.5 -27.5q-4 -4 -6.5 -9.5t-3.5 -13.5q-1 -6 -5.5 -10
t-11.5 -4t-11.5 5t-4.5 11q0 7 2 17t11 20q11 12 19 20.5t8 19.5q0 12 -10 20.5t-24 8.5q-13 0 -23 -6t-18 -12q-7 -6 -15.5 -7t-13.5 6q-5 6 -5 12.5t7 13.5z" />
    <glyph glyph-name="uni1EB4" unicode="&#x1eb4;" horiz-adv-x="521" 
d="M50 0q-6 0 -12.5 3t-10.5 7.5t-4 11.5q0 3 1 6l213 691q3 10 11 14t17 4t17.5 -4.5t11.5 -13.5l211 -691q1 -3 1 -6q0 -5 -4.5 -10.5t-11 -8.5t-13.5 -3t-12.5 3.5t-7.5 11.5l-49 159h-288l-48 -159q-2 -8 -8 -11.5t-14 -3.5zM134 220h260l-129 427zM265 811
q-40 0 -72 27.5t-40 66.5q-1 9 4 14t13 5h4q7 0 11.5 -4.5t5.5 -11.5q5 -28 26 -47t48 -19q26 0 47 19t25 47q2 7 6 11.5t11 4.5h4q8 0 13.5 -5.5t4.5 -13.5q-8 -39 -40.5 -66.5t-70.5 -27.5zM331 943q-25 0 -44.5 9.5t-39.5 18t-47 8.5q-21 0 -34.5 -8t-21.5 -16.5
t-15 -8.5q-4 0 -8 3t-6 8t-2 10q0 12 8.5 21.5t23 17t29.5 11.5t28 4q25 0 44.5 -8.5t39.5 -18t45 -9.5q23 0 34 8t18 15.5t15 7.5q6 0 9.5 -3t5.5 -7t2 -9q0 -14 -8.5 -23.5t-22 -16.5t-28 -10.5t-25.5 -3.5z" />
    <glyph glyph-name="uni1EB5" unicode="&#x1eb5;" horiz-adv-x="423" 
d="M171 -6q-58 0 -98 32.5t-40 99.5q0 53 29.5 82t82 40.5t121.5 11.5h54v26q0 35 -12.5 69t-40 56t-73.5 22q-32 0 -52.5 -6.5t-33 -14t-19.5 -7.5q-10 0 -16 9.5t-6 17.5q0 12 19.5 22.5t49.5 17t60 6.5q65 0 102.5 -27.5t54 -71t16.5 -93.5v-265q0 -8 -6.5 -14.5
t-17.5 -6.5q-10 0 -17 6.5t-7 14.5v49q-25 -29 -62.5 -52.5t-87.5 -23.5zM178 38q35 0 67.5 17.5t53.5 43t21 47.5v74h-49q-49 0 -92 -5.5t-70 -25t-27 -61.5q0 -47 28 -68.5t68 -21.5zM216 552q-40 0 -72 27.5t-40 66.5q-1 9 4 14t13 5h4q7 0 11.5 -4.5t5.5 -11.5
q5 -28 26 -47t48 -19q26 0 47 19t25 47q2 7 6 11.5t11 4.5h4q8 0 13.5 -5.5t4.5 -13.5q-8 -39 -40.5 -66.5t-70.5 -27.5zM282 684q-25 0 -44.5 9.5t-39.5 18t-47 8.5q-21 0 -34.5 -8t-21.5 -16.5t-15 -8.5q-4 0 -8 3t-6 8t-2 10q0 12 8.5 21.5t23 17t29.5 11.5t28 4
q25 0 44.5 -8.5t39.5 -18t45 -9.5q23 0 34 8t18 15.5t15 7.5q6 0 9.5 -3t5.5 -7t2 -9q0 -14 -8.5 -23.5t-22 -16.5t-28 -10.5t-25.5 -3.5z" />
    <glyph glyph-name="uni1EB6" unicode="&#x1eb6;" horiz-adv-x="521" 
d="M50 0q-6 0 -12.5 3t-10.5 7.5t-4 11.5q0 3 1 6l213 691q3 10 11 14t17 4t17.5 -4.5t11.5 -13.5l211 -691q1 -3 1 -6q0 -5 -4.5 -10.5t-11 -8.5t-13.5 -3t-12.5 3.5t-7.5 11.5l-49 159h-288l-48 -159q-2 -8 -8 -11.5t-14 -3.5zM134 220h260l-129 427zM263 -132
q-18 0 -29.5 12.5t-11.5 28.5q0 17 11.5 29t29.5 12q16 0 28 -12t12 -29q0 -16 -12 -28.5t-28 -12.5zM265 858q-40 0 -72 27.5t-40 66.5q-1 9 4 14t13 5h4q7 0 11.5 -4.5t5.5 -11.5q5 -28 26 -47t48 -19q26 0 47 19t25 47q2 7 6 11.5t11 4.5h4q8 0 13.5 -5.5t4.5 -13.5
q-8 -39 -40.5 -66.5t-70.5 -27.5z" />
    <glyph glyph-name="uni1EB7" unicode="&#x1eb7;" horiz-adv-x="423" 
d="M171 -6q-58 0 -98 32.5t-40 99.5q0 53 29.5 82t82 40.5t121.5 11.5h54v26q0 35 -12.5 69t-40 56t-73.5 22q-32 0 -52.5 -6.5t-33 -14t-19.5 -7.5q-10 0 -16 9.5t-6 17.5q0 12 19.5 22.5t49.5 17t60 6.5q65 0 102.5 -27.5t54 -71t16.5 -93.5v-265q0 -8 -6.5 -14.5
t-17.5 -6.5q-10 0 -17 6.5t-7 14.5v49q-25 -29 -62.5 -52.5t-87.5 -23.5zM178 38q35 0 67.5 17.5t53.5 43t21 47.5v74h-49q-49 0 -92 -5.5t-70 -25t-27 -61.5q0 -47 28 -68.5t68 -21.5zM214 -132q-18 0 -29.5 12.5t-11.5 28.5q0 17 11.5 29t29.5 12q16 0 28 -12t12 -29
q0 -16 -12 -28.5t-28 -12.5zM216 599q-40 0 -72 27.5t-40 66.5q-1 9 4 14t13 5h4q7 0 11.5 -4.5t5.5 -11.5q5 -28 26 -47t48 -19q26 0 47 19t25 47q2 7 6 11.5t11 4.5h4q8 0 13.5 -5.5t4.5 -13.5q-8 -39 -40.5 -66.5t-70.5 -27.5z" />
    <glyph glyph-name="uni1EB8" unicode="&#x1eb8;" horiz-adv-x="498" 
d="M103 0q-9 0 -16 5.5t-7 15.5v689q0 10 7 15.5t16 5.5h356q11 0 16 -7.5t5 -15.5q0 -9 -5.5 -17t-15.5 -8h-329v-294h158q10 0 15.5 -7t5.5 -17q0 -8 -5 -15t-16 -7h-158v-295h329q10 0 15.5 -7.5t5.5 -17.5q0 -8 -5 -15.5t-16 -7.5h-356zM251 -132q-18 0 -29.5 12.5
t-11.5 28.5q0 17 11.5 29t29.5 12q16 0 28 -12t12 -29q0 -16 -12 -28.5t-28 -12.5z" />
    <glyph glyph-name="uni1EB9" unicode="&#x1eb9;" horiz-adv-x="445" 
d="M256 -6q-61 0 -107.5 23t-73.5 64.5t-27 97.5v119q0 49 25.5 90t67 65.5t91.5 24.5q49 0 90 -23.5t66.5 -64t25.5 -93.5q0 -37 -12.5 -53.5t-31.5 -20t-41 -3.5h-232v-42q0 -64 46 -101.5t115 -37.5q41 0 63 10t34 20t22 10q7 0 12 -4t8 -9.5t3 -10.5q0 -10 -17.5 -25
t-49.5 -25.5t-77 -10.5zM97 261h213q34 0 45 7t11 29q0 34 -16.5 65.5t-47 51.5t-70.5 20q-38 0 -68.5 -18t-48.5 -48t-18 -66v-41zM231 -132q-18 0 -29.5 12.5t-11.5 28.5q0 17 11.5 29t29.5 12q16 0 28 -12t12 -29q0 -16 -12 -28.5t-28 -12.5z" />
    <glyph glyph-name="uni1EBA" unicode="&#x1eba;" horiz-adv-x="503" 
d="M103 0q-9 0 -16 5.5t-7 15.5v689q0 10 7 15.5t16 5.5h356q11 0 16 -7.5t5 -15.5q0 -9 -5.5 -17t-15.5 -8h-329v-294h158q10 0 15.5 -7t5.5 -17q0 -8 -5 -15t-16 -7h-158v-295h329q10 0 15.5 -7.5t5.5 -17.5q0 -8 -5 -15.5t-16 -7.5h-356zM213 935q14 14 31 21.5t37 7.5
q26 0 41.5 -11t22 -25.5t6.5 -27.5q0 -16 -9.5 -29.5t-23.5 -27.5q-4 -4 -6.5 -9.5t-3.5 -13.5q-1 -6 -5.5 -10t-11.5 -4t-11.5 5t-4.5 11q0 7 2 17t11 20q11 12 19 20.5t8 19.5q0 12 -10 20.5t-24 8.5q-13 0 -23 -6t-18 -12q-7 -6 -15.5 -7t-13.5 6q-5 6 -5 12.5t7 13.5z
" />
    <glyph glyph-name="uni1EBB" unicode="&#x1ebb;" horiz-adv-x="451" 
d="M256 -6q-61 0 -107.5 23t-73.5 64.5t-27 97.5v119q0 49 25.5 90t67 65.5t91.5 24.5q49 0 90 -23.5t66.5 -64t25.5 -93.5q0 -37 -12.5 -53.5t-31.5 -20t-41 -3.5h-232v-42q0 -64 46 -101.5t115 -37.5q41 0 63 10t34 20t22 10q7 0 12 -4t8 -9.5t3 -10.5q0 -10 -17.5 -25
t-49.5 -25.5t-77 -10.5zM97 261h213q34 0 45 7t11 29q0 34 -16.5 65.5t-47 51.5t-70.5 20q-38 0 -68.5 -18t-48.5 -48t-18 -66v-41zM165 678q14 14 31 21.5t37 7.5q26 0 41.5 -11t22 -25.5t6.5 -27.5q0 -16 -9.5 -29.5t-23.5 -27.5q-4 -4 -6.5 -9.5t-3.5 -13.5
q-1 -6 -5.5 -10t-11.5 -4t-11.5 5t-4.5 11q0 7 2 17t11 20q11 12 19 20.5t8 19.5q0 12 -10 20.5t-24 8.5q-13 0 -23 -6t-18 -12q-7 -6 -15.5 -7t-13.5 6q-5 6 -5 12.5t7 13.5z" />
    <glyph glyph-name="uni1EBC" unicode="&#x1ebc;" horiz-adv-x="503" 
d="M103 0q-9 0 -16 5.5t-7 15.5v689q0 10 7 15.5t16 5.5h356q11 0 16 -7.5t5 -15.5q0 -9 -5.5 -17t-15.5 -8h-329v-294h158q10 0 15.5 -7t5.5 -17q0 -8 -5 -15t-16 -7h-158v-295h329q10 0 15.5 -7.5t5.5 -17.5q0 -8 -5 -15.5t-16 -7.5h-356zM347 871q-25 0 -44.5 9.5
t-39.5 18t-47 8.5q-21 0 -34.5 -8t-21.5 -16.5t-15 -8.5q-4 0 -8 3t-6 8t-2 10q0 12 8.5 21.5t23 17t29.5 11.5t28 4q25 0 44.5 -8.5t39.5 -18t45 -9.5q23 0 34 8t18 15.5t15 7.5q6 0 9.5 -3t5.5 -7t2 -9q0 -14 -8.5 -23.5t-22 -16.5t-28 -10.5t-25.5 -3.5z" />
    <glyph glyph-name="uni1EBD" unicode="&#x1ebd;" horiz-adv-x="451" 
d="M256 -6q-61 0 -107.5 23t-73.5 64.5t-27 97.5v119q0 49 25.5 90t67 65.5t91.5 24.5q49 0 90 -23.5t66.5 -64t25.5 -93.5q0 -37 -12.5 -53.5t-31.5 -20t-41 -3.5h-232v-42q0 -64 46 -101.5t115 -37.5q41 0 63 10t34 20t22 10q7 0 12 -4t8 -9.5t3 -10.5q0 -10 -17.5 -25
t-49.5 -25.5t-77 -10.5zM97 261h213q34 0 45 7t11 29q0 34 -16.5 65.5t-47 51.5t-70.5 20q-38 0 -68.5 -18t-48.5 -48t-18 -66v-41zM299 614q-25 0 -44.5 9.5t-39.5 18t-47 8.5q-21 0 -34.5 -8t-21.5 -16.5t-15 -8.5q-4 0 -8 3t-6 8t-2 10q0 12 8.5 21.5t23 17t29.5 11.5
t28 4q25 0 44.5 -8.5t39.5 -18t45 -9.5q23 0 34 8t18 15.5t15 7.5q6 0 9.5 -3t5.5 -7t2 -9q0 -14 -8.5 -23.5t-22 -16.5t-28 -10.5t-25.5 -3.5z" />
    <glyph glyph-name="uni1EBE" unicode="&#x1ebe;" horiz-adv-x="498" 
d="M103 0q-9 0 -16 5.5t-7 15.5v689q0 10 7 15.5t16 5.5h356q11 0 16 -7.5t5 -15.5q0 -9 -5.5 -17t-15.5 -8h-329v-294h158q10 0 15.5 -7t5.5 -17q0 -8 -5 -15t-16 -7h-158v-295h329q10 0 15.5 -7.5t5.5 -17.5q0 -8 -5 -15.5t-16 -7.5h-356zM198 808q-7 0 -13 6.5t-6 16.5
t11 17l75 56q8 5 17 5t17 -5l75 -55q11 -7 11 -20q0 -8 -5.5 -14t-13.5 -6q-2 0 -4.5 1t-4.5 2l-75 55l-75 -56q-2 -1 -4.5 -2t-4.5 -1zM239 917q-8 0 -15 7t-7 16q0 11 9 15l107 61q4 2 8 2q9 0 14 -7t5 -16q0 -13 -11 -19l-100 -56q-2 -1 -5 -2t-5 -1z" />
    <glyph glyph-name="uni1EBF" unicode="&#x1ebf;" horiz-adv-x="445" 
d="M256 -6q-61 0 -107.5 23t-73.5 64.5t-27 97.5v119q0 49 25.5 90t67 65.5t91.5 24.5q49 0 90 -23.5t66.5 -64t25.5 -93.5q0 -37 -12.5 -53.5t-31.5 -20t-41 -3.5h-232v-42q0 -64 46 -101.5t115 -37.5q41 0 63 10t34 20t22 10q7 0 12 -4t8 -9.5t3 -10.5q0 -10 -17.5 -25
t-49.5 -25.5t-77 -10.5zM97 261h213q34 0 45 7t11 29q0 34 -16.5 65.5t-47 51.5t-70.5 20q-38 0 -68.5 -18t-48.5 -48t-18 -66v-41zM147 549q-7 0 -13 6.5t-6 16.5t11 17l75 56q8 5 17 5t17 -5l75 -55q11 -7 11 -20q0 -8 -5.5 -14t-13.5 -6q-2 0 -4.5 1t-4.5 2l-75 55
l-75 -56q-2 -1 -4.5 -2t-4.5 -1zM188 658q-8 0 -15 7t-7 16q0 11 9 15l107 61q4 2 8 2q9 0 14 -7t5 -16q0 -13 -11 -19l-100 -56q-2 -1 -5 -2t-5 -1z" />
    <glyph glyph-name="uni1EC0" unicode="&#x1ec0;" horiz-adv-x="498" 
d="M103 0q-9 0 -16 5.5t-7 15.5v689q0 10 7 15.5t16 5.5h356q11 0 16 -7.5t5 -15.5q0 -9 -5.5 -17t-15.5 -8h-329v-294h158q10 0 15.5 -7t5.5 -17q0 -8 -5 -15t-16 -7h-158v-295h329q10 0 15.5 -7.5t5.5 -17.5q0 -8 -5 -15.5t-16 -7.5h-356zM198 810q-7 0 -13 6.5t-6 16.5
t11 17l75 56q8 5 17 5t17 -5l75 -55q11 -7 11 -20q0 -8 -5.5 -14t-13.5 -6q-2 0 -4.5 1t-4.5 2l-75 55l-75 -56q-2 -1 -4.5 -2t-4.5 -1zM345 915q-2 0 -4.5 1t-5.5 2l-100 56q-11 6 -11 19q0 9 5.5 16t14.5 7q3 0 7 -2l107 -61q9 -4 9 -15q0 -9 -6 -16t-16 -7z" />
    <glyph glyph-name="uni1EC1" unicode="&#x1ec1;" horiz-adv-x="445" 
d="M256 -6q-61 0 -107.5 23t-73.5 64.5t-27 97.5v119q0 49 25.5 90t67 65.5t91.5 24.5q49 0 90 -23.5t66.5 -64t25.5 -93.5q0 -37 -12.5 -53.5t-31.5 -20t-41 -3.5h-232v-42q0 -64 46 -101.5t115 -37.5q41 0 63 10t34 20t22 10q7 0 12 -4t8 -9.5t3 -10.5q0 -10 -17.5 -25
t-49.5 -25.5t-77 -10.5zM97 261h213q34 0 45 7t11 29q0 34 -16.5 65.5t-47 51.5t-70.5 20q-38 0 -68.5 -18t-48.5 -48t-18 -66v-41zM147 551q-7 0 -13 6.5t-6 16.5t11 17l75 56q8 5 17 5t17 -5l75 -55q11 -7 11 -20q0 -8 -5.5 -14t-13.5 -6q-2 0 -4.5 1t-4.5 2l-75 55
l-75 -56q-2 -1 -4.5 -2t-4.5 -1zM294 656q-2 0 -4.5 1t-5.5 2l-100 56q-11 6 -11 19q0 9 5.5 16t14.5 7q3 0 7 -2l107 -61q9 -4 9 -15q0 -9 -6 -16t-16 -7z" />
    <glyph glyph-name="uni1EC2" unicode="&#x1ec2;" horiz-adv-x="503" 
d="M103 0q-9 0 -16 5.5t-7 15.5v689q0 10 7 15.5t16 5.5h356q11 0 16 -7.5t5 -15.5q0 -9 -5.5 -17t-15.5 -8h-329v-294h158q10 0 15.5 -7t5.5 -17q0 -8 -5 -15t-16 -7h-158v-295h329q10 0 15.5 -7.5t5.5 -17.5q0 -8 -5 -15.5t-16 -7.5h-356zM195 810q-7 0 -13 6.5t-6 16.5
t11 17l75 56q8 5 17 5t17 -5l75 -55q11 -7 11 -20q0 -8 -5.5 -14t-13.5 -6q-2 0 -4.5 1t-4.5 2l-75 55l-75 -56q-2 -1 -4.5 -2t-4.5 -1zM315 990q14 14 31 21.5t37 7.5q26 0 41.5 -11t22 -25.5t6.5 -27.5q0 -16 -9.5 -29.5t-23.5 -27.5q-4 -4 -6.5 -9.5t-3.5 -13.5
q-1 -6 -5.5 -10t-11.5 -4t-11.5 5t-4.5 11q0 7 2 17t11 20q11 12 19 20.5t8 19.5q0 12 -10 20.5t-24 8.5q-13 0 -23 -6t-18 -12q-7 -6 -15.5 -7t-13.5 6q-5 6 -5 12.5t7 13.5z" />
    <glyph glyph-name="uni1EC3" unicode="&#x1ec3;" horiz-adv-x="451" 
d="M256 -6q-61 0 -107.5 23t-73.5 64.5t-27 97.5v119q0 49 25.5 90t67 65.5t91.5 24.5q49 0 90 -23.5t66.5 -64t25.5 -93.5q0 -37 -12.5 -53.5t-31.5 -20t-41 -3.5h-232v-42q0 -64 46 -101.5t115 -37.5q41 0 63 10t34 20t22 10q7 0 12 -4t8 -9.5t3 -10.5q0 -10 -17.5 -25
t-49.5 -25.5t-77 -10.5zM97 261h213q34 0 45 7t11 29q0 34 -16.5 65.5t-47 51.5t-70.5 20q-38 0 -68.5 -18t-48.5 -48t-18 -66v-41zM147 553q-7 0 -13 6.5t-6 16.5t11 17l75 56q8 5 17 5t17 -5l75 -55q11 -7 11 -20q0 -8 -5.5 -14t-13.5 -6q-2 0 -4.5 1t-4.5 2l-75 55
l-75 -56q-2 -1 -4.5 -2t-4.5 -1zM267 733q14 14 31 21.5t37 7.5q26 0 41.5 -11t22 -25.5t6.5 -27.5q0 -16 -9.5 -29.5t-23.5 -27.5q-4 -4 -6.5 -9.5t-3.5 -13.5q-1 -6 -5.5 -10t-11.5 -4t-11.5 5t-4.5 11q0 7 2 17t11 20q11 12 19 20.5t8 19.5q0 12 -10 20.5t-24 8.5
q-13 0 -23 -6t-18 -12q-7 -6 -15.5 -7t-13.5 6q-5 6 -5 12.5t7 13.5z" />
    <glyph glyph-name="uni1EC4" unicode="&#x1ec4;" horiz-adv-x="498" 
d="M103 0q-9 0 -16 5.5t-7 15.5v689q0 10 7 15.5t16 5.5h356q11 0 16 -7.5t5 -15.5q0 -9 -5.5 -17t-15.5 -8h-329v-294h158q10 0 15.5 -7t5.5 -17q0 -8 -5 -15t-16 -7h-158v-295h329q10 0 15.5 -7.5t5.5 -17.5q0 -8 -5 -15.5t-16 -7.5h-356zM198 808q-7 0 -13 6.5t-6 16.5
t11 17l75 56q8 5 17 5t17 -5l75 -55q11 -7 11 -20q0 -8 -5.5 -14t-13.5 -6q-2 0 -4.5 1t-4.5 2l-75 55l-75 -56q-2 -1 -4.5 -2t-4.5 -1zM350 910q-25 0 -44.5 9.5t-39.5 18t-47 8.5q-21 0 -34.5 -8t-21.5 -16.5t-15 -8.5q-4 0 -8 3t-6 8t-2 10q0 12 8.5 21.5t23 17
t29.5 11.5t28 4q25 0 44.5 -8.5t39.5 -18t45 -9.5q23 0 34 8t18 15.5t15 7.5q6 0 9.5 -3t5.5 -7t2 -9q0 -14 -8.5 -23.5t-22 -16.5t-28 -10.5t-25.5 -3.5z" />
    <glyph glyph-name="uni1EC5" unicode="&#x1ec5;" horiz-adv-x="445" 
d="M256 -6q-61 0 -107.5 23t-73.5 64.5t-27 97.5v119q0 49 25.5 90t67 65.5t91.5 24.5q49 0 90 -23.5t66.5 -64t25.5 -93.5q0 -37 -12.5 -53.5t-31.5 -20t-41 -3.5h-232v-42q0 -64 46 -101.5t115 -37.5q41 0 63 10t34 20t22 10q7 0 12 -4t8 -9.5t3 -10.5q0 -10 -17.5 -25
t-49.5 -25.5t-77 -10.5zM97 261h213q34 0 45 7t11 29q0 34 -16.5 65.5t-47 51.5t-70.5 20q-38 0 -68.5 -18t-48.5 -48t-18 -66v-41zM147 549q-7 0 -13 6.5t-6 16.5t11 17l75 56q8 5 17 5t17 -5l75 -55q11 -7 11 -20q0 -8 -5.5 -14t-13.5 -6q-2 0 -4.5 1t-4.5 2l-75 55
l-75 -56q-2 -1 -4.5 -2t-4.5 -1zM299 651q-25 0 -44.5 9.5t-39.5 18t-47 8.5q-21 0 -34.5 -8t-21.5 -16.5t-15 -8.5q-4 0 -8 3t-6 8t-2 10q0 12 8.5 21.5t23 17t29.5 11.5t28 4q25 0 44.5 -8.5t39.5 -18t45 -9.5q23 0 34 8t18 15.5t15 7.5q6 0 9.5 -3t5.5 -7t2 -9
q0 -14 -8.5 -23.5t-22 -16.5t-28 -10.5t-25.5 -3.5z" />
    <glyph glyph-name="uni1EC6" unicode="&#x1ec6;" horiz-adv-x="498" 
d="M103 0q-9 0 -16 5.5t-7 15.5v689q0 10 7 15.5t16 5.5h356q11 0 16 -7.5t5 -15.5q0 -9 -5.5 -17t-15.5 -8h-329v-294h158q10 0 15.5 -7t5.5 -17q0 -8 -5 -15t-16 -7h-158v-295h329q10 0 15.5 -7.5t5.5 -17.5q0 -8 -5 -15.5t-16 -7.5h-356zM251 -132q-18 0 -29.5 12.5
t-11.5 28.5q0 17 11.5 29t29.5 12q16 0 28 -12t12 -29q0 -16 -12 -28.5t-28 -12.5zM170 855q-8 0 -14 6.5t-6 16.5q0 5 3 9.5t8 7.5l104 56q8 5 17 5t17 -5l104 -55q6 -3 8.5 -8.5t2.5 -11.5q0 -8 -5.5 -14t-13.5 -6q-2 0 -4.5 1t-4.5 2l-104 55l-104 -56l-4 -2t-4 -1z" />
    <glyph glyph-name="uni1EC7" unicode="&#x1ec7;" horiz-adv-x="445" 
d="M256 -6q-61 0 -107.5 23t-73.5 64.5t-27 97.5v119q0 49 25.5 90t67 65.5t91.5 24.5q49 0 90 -23.5t66.5 -64t25.5 -93.5q0 -37 -12.5 -53.5t-31.5 -20t-41 -3.5h-232v-42q0 -64 46 -101.5t115 -37.5q41 0 63 10t34 20t22 10q7 0 12 -4t8 -9.5t3 -10.5q0 -10 -17.5 -25
t-49.5 -25.5t-77 -10.5zM97 261h213q34 0 45 7t11 29q0 34 -16.5 65.5t-47 51.5t-70.5 20q-38 0 -68.5 -18t-48.5 -48t-18 -66v-41zM231 -132q-18 0 -29.5 12.5t-11.5 28.5q0 17 11.5 29t29.5 12q16 0 28 -12t12 -29q0 -16 -12 -28.5t-28 -12.5zM119 596q-8 0 -14 6.5
t-6 16.5q0 5 3 9.5t8 7.5l104 56q8 5 17 5t17 -5l104 -55q6 -3 8.5 -8.5t2.5 -11.5q0 -8 -5.5 -14t-13.5 -6q-2 0 -4.5 1t-4.5 2l-104 55l-104 -56l-4 -2t-4 -1z" />
    <glyph glyph-name="uni1EC8" unicode="&#x1ec8;" horiz-adv-x="209" 
d="M105 0q-10 0 -17.5 5.5t-7.5 15.5v690q0 10 7.5 15t17.5 5q9 0 17 -5t8 -15v-690q0 -10 -8 -15.5t-17 -5.5zM37 935q14 14 31 21.5t37 7.5q26 0 41.5 -11t22 -25.5t6.5 -27.5q0 -16 -9.5 -29.5t-23.5 -27.5q-4 -4 -6.5 -9.5t-3.5 -13.5q-1 -6 -5.5 -10t-11.5 -4t-11.5 5
t-4.5 11q0 7 2 17t11 20q11 12 19 20.5t8 19.5q0 12 -10 20.5t-24 8.5q-13 0 -23 -6t-18 -12q-7 -6 -15.5 -7t-13.5 6q-5 6 -5 12.5t7 13.5z" />
    <glyph glyph-name="uni1EC9" unicode="&#x1ec9;" horiz-adv-x="180" 
d="M89 0q-10 0 -17 6.5t-7 14.5v431q0 9 7 14.5t17 5.5q11 0 18 -5.5t7 -14.5v-431q0 -8 -7 -14.5t-18 -6.5zM23 678q14 14 31 21.5t37 7.5q26 0 41.5 -11t22 -25.5t6.5 -27.5q0 -16 -9.5 -29.5t-23.5 -27.5q-4 -4 -6.5 -9.5t-3.5 -13.5q-1 -6 -5.5 -10t-11.5 -4t-11.5 5
t-4.5 11q0 7 2 17t11 20q11 12 19 20.5t8 19.5q0 12 -10 20.5t-24 8.5q-13 0 -23 -6t-18 -12q-7 -6 -15.5 -7t-13.5 6q-5 6 -5 12.5t7 13.5z" />
    <glyph glyph-name="uni1ECA" unicode="&#x1eca;" horiz-adv-x="202" 
d="M105 0q-10 0 -17.5 5.5t-7.5 15.5v690q0 10 7.5 15t17.5 5q9 0 17 -5t8 -15v-690q0 -10 -8 -15.5t-17 -5.5zM103 -132q-18 0 -29.5 12.5t-11.5 28.5q0 17 11.5 29t29.5 12q16 0 28 -12t12 -29q0 -16 -12 -28.5t-28 -12.5z" />
    <glyph glyph-name="uni1ECB" unicode="&#x1ecb;" horiz-adv-x="171" 
d="M90 621q-15 0 -26.5 11t-11.5 26t11.5 25t26.5 10q16 0 26.5 -10t10.5 -25t-10.5 -26t-26.5 -11zM89 0q-10 0 -17 6.5t-7 14.5v431q0 9 7 14.5t17 5.5q11 0 18 -5.5t7 -14.5v-431q0 -8 -7 -14.5t-18 -6.5zM88 -132q-18 0 -29.5 12.5t-11.5 28.5q0 17 11.5 29t29.5 12
q16 0 28 -12t12 -29q0 -16 -12 -28.5t-28 -12.5z" />
    <glyph glyph-name="uni1ECC" unicode="&#x1ecc;" horiz-adv-x="543" 
d="M273 -6q-56 0 -101.5 21t-72 66.5t-26.5 121.5v319q0 76 26.5 121.5t72 66.5t101.5 21q57 0 103 -21t72.5 -66.5t26.5 -121.5v-319q0 -76 -26.5 -121.5t-72.5 -66.5t-103 -21zM273 42q71 0 111.5 39.5t40.5 121.5v319q0 82 -40 121.5t-112 39.5q-71 0 -111 -39.5
t-40 -121.5v-319q0 -82 40 -121.5t111 -39.5zM274 -132q-18 0 -29.5 12.5t-11.5 28.5q0 17 11.5 29t29.5 12q16 0 28 -12t12 -29q0 -16 -12 -28.5t-28 -12.5z" />
    <glyph glyph-name="uni1ECD" unicode="&#x1ecd;" horiz-adv-x="455" 
d="M230 -6q-48 0 -90 26t-67.5 68t-25.5 91v116q0 49 25 91t67 67t91 25q50 0 91.5 -24.5t67 -66t25.5 -92.5v-116q0 -48 -25.5 -90.5t-67 -68.5t-91.5 -26zM230 40q38 0 68 20t48.5 52t18.5 67v116q0 35 -18 66t-48.5 51t-68.5 20t-68 -20t-48 -51t-18 -66v-116
q0 -35 18 -67t48.5 -52t67.5 -20zM230 -132q-18 0 -29.5 12.5t-11.5 28.5q0 17 11.5 29t29.5 12q16 0 28 -12t12 -29q0 -16 -12 -28.5t-28 -12.5z" />
    <glyph glyph-name="uni1ECE" unicode="&#x1ece;" horiz-adv-x="548" 
d="M273 -6q-56 0 -101.5 21t-72 66.5t-26.5 121.5v319q0 76 26.5 121.5t72 66.5t101.5 21q57 0 103 -21t72.5 -66.5t26.5 -121.5v-319q0 -76 -26.5 -121.5t-72.5 -66.5t-103 -21zM273 42q71 0 111.5 39.5t40.5 121.5v319q0 82 -40 121.5t-112 39.5q-71 0 -111 -39.5
t-40 -121.5v-319q0 -82 40 -121.5t111 -39.5zM207 935q14 14 31 21.5t37 7.5q26 0 41.5 -11t22 -25.5t6.5 -27.5q0 -16 -9.5 -29.5t-23.5 -27.5q-4 -4 -6.5 -9.5t-3.5 -13.5q-1 -6 -5.5 -10t-11.5 -4t-11.5 5t-4.5 11q0 7 2 17t11 20q11 12 19 20.5t8 19.5q0 12 -10 20.5
t-24 8.5q-13 0 -23 -6t-18 -12q-7 -6 -15.5 -7t-13.5 6q-5 6 -5 12.5t7 13.5z" />
    <glyph glyph-name="uni1ECF" unicode="&#x1ecf;" horiz-adv-x="461" 
d="M230 -6q-48 0 -90 26t-67.5 68t-25.5 91v116q0 49 25 91t67 67t91 25q50 0 91.5 -24.5t67 -66t25.5 -92.5v-116q0 -48 -25.5 -90.5t-67 -68.5t-91.5 -26zM230 40q38 0 68 20t48.5 52t18.5 67v116q0 35 -18 66t-48.5 51t-68.5 20t-68 -20t-48 -51t-18 -66v-116
q0 -35 18 -67t48.5 -52t67.5 -20zM164 678q14 14 31 21.5t37 7.5q26 0 41.5 -11t22 -25.5t6.5 -27.5q0 -16 -9.5 -29.5t-23.5 -27.5q-4 -4 -6.5 -9.5t-3.5 -13.5q-1 -6 -5.5 -10t-11.5 -4t-11.5 5t-4.5 11q0 7 2 17t11 20q11 12 19 20.5t8 19.5q0 12 -10 20.5t-24 8.5
q-13 0 -23 -6t-18 -12q-7 -6 -15.5 -7t-13.5 6q-5 6 -5 12.5t7 13.5z" />
    <glyph glyph-name="uni1ED0" unicode="&#x1ed0;" horiz-adv-x="543" 
d="M273 -6q-56 0 -101.5 21t-72 66.5t-26.5 121.5v319q0 76 26.5 121.5t72 66.5t101.5 21q57 0 103 -21t72.5 -66.5t26.5 -121.5v-319q0 -76 -26.5 -121.5t-72.5 -66.5t-103 -21zM273 42q71 0 111.5 39.5t40.5 121.5v319q0 82 -40 121.5t-112 39.5q-71 0 -111 -39.5
t-40 -121.5v-319q0 -82 40 -121.5t111 -39.5zM190 808q-7 0 -13 6.5t-6 16.5t11 17l75 56q8 5 17 5t17 -5l75 -55q11 -7 11 -20q0 -8 -5.5 -14t-13.5 -6q-2 0 -4.5 1t-4.5 2l-75 55l-75 -56q-2 -1 -4.5 -2t-4.5 -1zM231 917q-8 0 -15 7t-7 16q0 11 9 15l107 61q4 2 8 2
q9 0 14 -7t5 -16q0 -13 -11 -19l-100 -56q-2 -1 -5 -2t-5 -1z" />
    <glyph glyph-name="uni1ED1" unicode="&#x1ed1;" horiz-adv-x="455" 
d="M230 -6q-48 0 -90 26t-67.5 68t-25.5 91v116q0 49 25 91t67 67t91 25q50 0 91.5 -24.5t67 -66t25.5 -92.5v-116q0 -48 -25.5 -90.5t-67 -68.5t-91.5 -26zM230 40q38 0 68 20t48.5 52t18.5 67v116q0 35 -18 66t-48.5 51t-68.5 20t-68 -20t-48 -51t-18 -66v-116
q0 -35 18 -67t48.5 -52t67.5 -20zM146 549q-7 0 -13 6.5t-6 16.5t11 17l75 56q8 5 17 5t17 -5l75 -55q11 -7 11 -20q0 -8 -5.5 -14t-13.5 -6q-2 0 -4.5 1t-4.5 2l-75 55l-75 -56q-2 -1 -4.5 -2t-4.5 -1zM187 658q-8 0 -15 7t-7 16q0 11 9 15l107 61q4 2 8 2q9 0 14 -7t5 -16
q0 -13 -11 -19l-100 -56q-2 -1 -5 -2t-5 -1z" />
    <glyph glyph-name="uni1ED2" unicode="&#x1ed2;" horiz-adv-x="543" 
d="M273 -6q-56 0 -101.5 21t-72 66.5t-26.5 121.5v319q0 76 26.5 121.5t72 66.5t101.5 21q57 0 103 -21t72.5 -66.5t26.5 -121.5v-319q0 -76 -26.5 -121.5t-72.5 -66.5t-103 -21zM273 42q71 0 111.5 39.5t40.5 121.5v319q0 82 -40 121.5t-112 39.5q-71 0 -111 -39.5
t-40 -121.5v-319q0 -82 40 -121.5t111 -39.5zM190 810q-7 0 -13 6.5t-6 16.5t11 17l75 56q8 5 17 5t17 -5l75 -55q11 -7 11 -20q0 -8 -5.5 -14t-13.5 -6q-2 0 -4.5 1t-4.5 2l-75 55l-75 -56q-2 -1 -4.5 -2t-4.5 -1zM337 915q-2 0 -4.5 1t-5.5 2l-100 56q-11 6 -11 19
q0 9 5.5 16t14.5 7q3 0 7 -2l107 -61q9 -4 9 -15q0 -9 -6 -16t-16 -7z" />
    <glyph glyph-name="uni1ED3" unicode="&#x1ed3;" horiz-adv-x="455" 
d="M230 -6q-48 0 -90 26t-67.5 68t-25.5 91v116q0 49 25 91t67 67t91 25q50 0 91.5 -24.5t67 -66t25.5 -92.5v-116q0 -48 -25.5 -90.5t-67 -68.5t-91.5 -26zM230 40q38 0 68 20t48.5 52t18.5 67v116q0 35 -18 66t-48.5 51t-68.5 20t-68 -20t-48 -51t-18 -66v-116
q0 -35 18 -67t48.5 -52t67.5 -20zM146 551q-7 0 -13 6.5t-6 16.5t11 17l75 56q8 5 17 5t17 -5l75 -55q11 -7 11 -20q0 -8 -5.5 -14t-13.5 -6q-2 0 -4.5 1t-4.5 2l-75 55l-75 -56q-2 -1 -4.5 -2t-4.5 -1zM293 656q-2 0 -4.5 1t-5.5 2l-100 56q-11 6 -11 19q0 9 5.5 16t14.5 7
q3 0 7 -2l107 -61q9 -4 9 -15q0 -9 -6 -16t-16 -7z" />
    <glyph glyph-name="uni1ED4" unicode="&#x1ed4;" horiz-adv-x="548" 
d="M273 -6q-56 0 -101.5 21t-72 66.5t-26.5 121.5v319q0 76 26.5 121.5t72 66.5t101.5 21q57 0 103 -21t72.5 -66.5t26.5 -121.5v-319q0 -76 -26.5 -121.5t-72.5 -66.5t-103 -21zM273 42q71 0 111.5 39.5t40.5 121.5v319q0 82 -40 121.5t-112 39.5q-71 0 -111 -39.5
t-40 -121.5v-319q0 -82 40 -121.5t111 -39.5zM189 810q-7 0 -13 6.5t-6 16.5t11 17l75 56q8 5 17 5t17 -5l75 -55q11 -7 11 -20q0 -8 -5.5 -14t-13.5 -6q-2 0 -4.5 1t-4.5 2l-75 55l-75 -56q-2 -1 -4.5 -2t-4.5 -1zM309 990q14 14 31 21.5t37 7.5q26 0 41.5 -11t22 -25.5
t6.5 -27.5q0 -16 -9.5 -29.5t-23.5 -27.5q-4 -4 -6.5 -9.5t-3.5 -13.5q-1 -6 -5.5 -10t-11.5 -4t-11.5 5t-4.5 11q0 7 2 17t11 20q11 12 19 20.5t8 19.5q0 12 -10 20.5t-24 8.5q-13 0 -23 -6t-18 -12q-7 -6 -15.5 -7t-13.5 6q-5 6 -5 12.5t7 13.5z" />
    <glyph glyph-name="uni1ED5" unicode="&#x1ed5;" horiz-adv-x="461" 
d="M230 -6q-48 0 -90 26t-67.5 68t-25.5 91v116q0 49 25 91t67 67t91 25q50 0 91.5 -24.5t67 -66t25.5 -92.5v-116q0 -48 -25.5 -90.5t-67 -68.5t-91.5 -26zM230 40q38 0 68 20t48.5 52t18.5 67v116q0 35 -18 66t-48.5 51t-68.5 20t-68 -20t-48 -51t-18 -66v-116
q0 -35 18 -67t48.5 -52t67.5 -20zM145 553q-7 0 -13 6.5t-6 16.5t11 17l75 56q8 5 17 5t17 -5l75 -55q11 -7 11 -20q0 -8 -5.5 -14t-13.5 -6q-2 0 -4.5 1t-4.5 2l-75 55l-75 -56q-2 -1 -4.5 -2t-4.5 -1zM266 733q14 14 31 21.5t37 7.5q26 0 41.5 -11t22 -25.5t6.5 -27.5
q0 -16 -9.5 -29.5t-23.5 -27.5q-4 -4 -6.5 -9.5t-3.5 -13.5q-1 -6 -5.5 -10t-11.5 -4t-11.5 5t-4.5 11q0 7 2 17t11 20q11 12 19 20.5t8 19.5q0 12 -10 20.5t-24 8.5q-13 0 -23 -6t-18 -12q-7 -6 -15.5 -7t-13.5 6q-5 6 -5 12.5t7 13.5z" />
    <glyph glyph-name="uni1ED6" unicode="&#x1ed6;" horiz-adv-x="543" 
d="M273 -6q-56 0 -101.5 21t-72 66.5t-26.5 121.5v319q0 76 26.5 121.5t72 66.5t101.5 21q57 0 103 -21t72.5 -66.5t26.5 -121.5v-319q0 -76 -26.5 -121.5t-72.5 -66.5t-103 -21zM273 42q71 0 111.5 39.5t40.5 121.5v319q0 82 -40 121.5t-112 39.5q-71 0 -111 -39.5
t-40 -121.5v-319q0 -82 40 -121.5t111 -39.5zM190 808q-7 0 -13 6.5t-6 16.5t11 17l75 56q8 5 17 5t17 -5l75 -55q11 -7 11 -20q0 -8 -5.5 -14t-13.5 -6q-2 0 -4.5 1t-4.5 2l-75 55l-75 -56q-2 -1 -4.5 -2t-4.5 -1zM342 910q-25 0 -44.5 9.5t-39.5 18t-47 8.5
q-21 0 -34.5 -8t-21.5 -16.5t-15 -8.5q-4 0 -8 3t-6 8t-2 10q0 12 8.5 21.5t23 17t29.5 11.5t28 4q25 0 44.5 -8.5t39.5 -18t45 -9.5q23 0 34 8t18 15.5t15 7.5q6 0 9.5 -3t5.5 -7t2 -9q0 -14 -8.5 -23.5t-22 -16.5t-28 -10.5t-25.5 -3.5z" />
    <glyph glyph-name="uni1ED7" unicode="&#x1ed7;" horiz-adv-x="455" 
d="M230 -6q-48 0 -90 26t-67.5 68t-25.5 91v116q0 49 25 91t67 67t91 25q50 0 91.5 -24.5t67 -66t25.5 -92.5v-116q0 -48 -25.5 -90.5t-67 -68.5t-91.5 -26zM230 40q38 0 68 20t48.5 52t18.5 67v116q0 35 -18 66t-48.5 51t-68.5 20t-68 -20t-48 -51t-18 -66v-116
q0 -35 18 -67t48.5 -52t67.5 -20zM146 549q-7 0 -13 6.5t-6 16.5t11 17l75 56q8 5 17 5t17 -5l75 -55q11 -7 11 -20q0 -8 -5.5 -14t-13.5 -6q-2 0 -4.5 1t-4.5 2l-75 55l-75 -56q-2 -1 -4.5 -2t-4.5 -1zM298 651q-25 0 -44.5 9.5t-39.5 18t-47 8.5q-21 0 -34.5 -8
t-21.5 -16.5t-15 -8.5q-4 0 -8 3t-6 8t-2 10q0 12 8.5 21.5t23 17t29.5 11.5t28 4q25 0 44.5 -8.5t39.5 -18t45 -9.5q23 0 34 8t18 15.5t15 7.5q6 0 9.5 -3t5.5 -7t2 -9q0 -14 -8.5 -23.5t-22 -16.5t-28 -10.5t-25.5 -3.5z" />
    <glyph glyph-name="uni1ED8" unicode="&#x1ed8;" horiz-adv-x="543" 
d="M273 -6q-56 0 -101.5 21t-72 66.5t-26.5 121.5v319q0 76 26.5 121.5t72 66.5t101.5 21q57 0 103 -21t72.5 -66.5t26.5 -121.5v-319q0 -76 -26.5 -121.5t-72.5 -66.5t-103 -21zM273 42q71 0 111.5 39.5t40.5 121.5v319q0 82 -40 121.5t-112 39.5q-71 0 -111 -39.5
t-40 -121.5v-319q0 -82 40 -121.5t111 -39.5zM274 -132q-18 0 -29.5 12.5t-11.5 28.5q0 17 11.5 29t29.5 12q16 0 28 -12t12 -29q0 -16 -12 -28.5t-28 -12.5zM162 855q-8 0 -14 6.5t-6 16.5q0 5 3 9.5t8 7.5l104 56q8 5 17 5t17 -5l104 -55q6 -3 8.5 -8.5t2.5 -11.5
q0 -8 -5.5 -14t-13.5 -6q-2 0 -4.5 1t-4.5 2l-104 55l-104 -56l-4 -2t-4 -1z" />
    <glyph glyph-name="uni1ED9" unicode="&#x1ed9;" horiz-adv-x="455" 
d="M230 -6q-48 0 -90 26t-67.5 68t-25.5 91v116q0 49 25 91t67 67t91 25q50 0 91.5 -24.5t67 -66t25.5 -92.5v-116q0 -48 -25.5 -90.5t-67 -68.5t-91.5 -26zM230 40q38 0 68 20t48.5 52t18.5 67v116q0 35 -18 66t-48.5 51t-68.5 20t-68 -20t-48 -51t-18 -66v-116
q0 -35 18 -67t48.5 -52t67.5 -20zM230 -132q-18 0 -29.5 12.5t-11.5 28.5q0 17 11.5 29t29.5 12q16 0 28 -12t12 -29q0 -16 -12 -28.5t-28 -12.5zM118 596q-8 0 -14 6.5t-6 16.5q0 5 3 9.5t8 7.5l104 56q8 5 17 5t17 -5l104 -55q6 -3 8.5 -8.5t2.5 -11.5q0 -8 -5.5 -14
t-13.5 -6q-2 0 -4.5 1t-4.5 2l-104 55l-104 -56l-4 -2t-4 -1z" />
    <glyph glyph-name="uni1EDA" unicode="&#x1eda;" horiz-adv-x="548" 
d="M273 -6q-56 0 -101.5 21t-72 66.5t-26.5 121.5v319q0 76 26.5 121.5t72 66.5t101.5 21q57 0 103 -21t72.5 -66.5t26.5 -121.5v-319q0 -76 -26.5 -121.5t-72.5 -66.5t-103 -21zM273 42q71 0 111.5 39.5t40.5 121.5v319q0 82 -40 121.5t-112 39.5q-71 0 -111 -39.5
t-40 -121.5v-319q0 -82 40 -121.5t111 -39.5zM300 692v40q49 0 73.5 18t24.5 50q0 12 4 22t15 10q14 0 18 -11t4 -21q0 -32 -13 -56.5t-43 -38t-83 -13.5zM228 853q-8 0 -15 7t-7 16q0 11 9 15l107 61q4 2 8 2q9 0 14 -7t5 -16q0 -13 -11 -19l-100 -56q-2 -1 -5 -2t-5 -1z
" />
    <glyph glyph-name="uni1EDB" unicode="&#x1edb;" horiz-adv-x="461" 
d="M230 -6q-48 0 -90 26t-67.5 68t-25.5 91v116q0 49 25 91t67 67t91 25q50 0 91.5 -24.5t67 -66t25.5 -92.5v-116q0 -48 -25.5 -90.5t-67 -68.5t-91.5 -26zM230 40q38 0 68 20t48.5 52t18.5 67v116q0 35 -18 66t-48.5 51t-68.5 20t-68 -20t-48 -51t-18 -66v-116
q0 -35 18 -67t48.5 -52t67.5 -20zM276 433v40q49 0 73.5 18t24.5 50q0 12 4 22t15 10q14 0 18 -11t4 -21q0 -32 -13 -56.5t-43 -38t-83 -13.5zM185 596q-8 0 -15 7t-7 16q0 11 9 15l107 61q4 2 8 2q9 0 14 -7t5 -16q0 -13 -11 -19l-100 -56q-2 -1 -5 -2t-5 -1z" />
    <glyph glyph-name="uni1EDC" unicode="&#x1edc;" horiz-adv-x="548" 
d="M273 -6q-56 0 -101.5 21t-72 66.5t-26.5 121.5v319q0 76 26.5 121.5t72 66.5t101.5 21q57 0 103 -21t72.5 -66.5t26.5 -121.5v-319q0 -76 -26.5 -121.5t-72.5 -66.5t-103 -21zM273 42q71 0 111.5 39.5t40.5 121.5v319q0 82 -40 121.5t-112 39.5q-71 0 -111 -39.5
t-40 -121.5v-319q0 -82 40 -121.5t111 -39.5zM300 692v40q49 0 73.5 18t24.5 50q0 12 4 22t15 10q14 0 18 -11t4 -21q0 -32 -13 -56.5t-43 -38t-83 -13.5zM320 853q-2 0 -4.5 1t-5.5 2l-100 56q-11 6 -11 19q0 9 5.5 16t14.5 7q3 0 7 -2l107 -61q9 -4 9 -15q0 -9 -6 -16
t-16 -7z" />
    <glyph glyph-name="uni1EDD" unicode="&#x1edd;" horiz-adv-x="461" 
d="M230 -6q-48 0 -90 26t-67.5 68t-25.5 91v116q0 49 25 91t67 67t91 25q50 0 91.5 -24.5t67 -66t25.5 -92.5v-116q0 -48 -25.5 -90.5t-67 -68.5t-91.5 -26zM230 40q38 0 68 20t48.5 52t18.5 67v116q0 35 -18 66t-48.5 51t-68.5 20t-68 -20t-48 -51t-18 -66v-116
q0 -35 18 -67t48.5 -52t67.5 -20zM276 433v40q49 0 73.5 18t24.5 50q0 12 4 22t15 10q14 0 18 -11t4 -21q0 -32 -13 -56.5t-43 -38t-83 -13.5zM277 596q-2 0 -4.5 1t-5.5 2l-100 56q-11 6 -11 19q0 9 5.5 16t14.5 7q3 0 7 -2l107 -61q9 -4 9 -15q0 -9 -6 -16t-16 -7z" />
    </font>
</defs>
</svg>
